<?xml version="1.0" encoding="UTF-8" standalone="no"?>
<!-- Created with Inkscape (http://www.inkscape.org/) -->

<svg
   width="72.435097mm"
   height="100.50288mm"
   viewBox="0 0 72.435097 100.50288"
   version="1.1"
   id="svg5"
   xml:space="preserve"
   xmlns:inkscape="http://www.inkscape.org/namespaces/inkscape"
   xmlns:sodipodi="http://sodipodi.sourceforge.net/DTD/sodipodi-0.dtd"
   xmlns="http://www.w3.org/2000/svg"
   xmlns:svg="http://www.w3.org/2000/svg"><sodipodi:namedview
     id="namedview7"
     pagecolor="#ffffff"
     bordercolor="#000000"
     borderopacity="0.25"
     inkscape:showpageshadow="2"
     inkscape:pageopacity="0.0"
     inkscape:pagecheckerboard="0"
     inkscape:deskcolor="#d1d1d1"
     inkscape:document-units="mm"
     showgrid="false" /><defs
     id="defs2"><clipPath
       clipPathUnits="userSpaceOnUse"
       id="clipPath8417"><path
         d="M 260,579.20001 H 533.91998 V 926.23999 H 260 Z"
         clip-rule="evenodd"
         id="path8415" /></clipPath><clipPath
       clipPathUnits="userSpaceOnUse"
       id="clipPath8427"><path
         d="m 260,544.79999 v 381.44 h 273.91998 v -381.44 z"
         clip-rule="evenodd"
         id="path8425" /></clipPath><clipPath
       clipPathUnits="userSpaceOnUse"
       id="clipPath8449"><path
         d="m 260,544.79999 v 381.44 h 273.91998 v -381.44 z"
         clip-rule="evenodd"
         id="path8447" /></clipPath><clipPath
       clipPathUnits="userSpaceOnUse"
       id="clipPath8465"><path
         d="m 260,544.79999 v 381.44 h 273.91998 v -381.44 z"
         clip-rule="evenodd"
         id="path8463" /></clipPath><clipPath
       clipPathUnits="userSpaceOnUse"
       id="clipPath8493"><path
         d="M -147.17999,-21.610001 V 359.82999 H 126.74 V -21.610001 Z"
         clip-rule="evenodd"
         id="path8491" /></clipPath><clipPath
       clipPathUnits="userSpaceOnUse"
       id="clipPath8515"><path
         d="m 260,544.79999 v 381.44 h 273.91998 v -381.44 z"
         clip-rule="evenodd"
         id="path8513" /></clipPath><clipPath
       clipPathUnits="userSpaceOnUse"
       id="clipPath8531"><path
         d="m 260,544.79999 v 381.44 h 273.91998 v -381.44 z"
         clip-rule="evenodd"
         id="path8529" /></clipPath><clipPath
       clipPathUnits="userSpaceOnUse"
       id="clipPath8559"><path
         d="m 260,544.79999 v 381.44 h 273.91998 v -381.44 z"
         clip-rule="evenodd"
         id="path8557" /></clipPath><clipPath
       clipPathUnits="userSpaceOnUse"
       id="clipPath8587"><path
         d="M -89.279999,-136.25999 V 245.17999 H 184.64 v -381.43998 z"
         clip-rule="evenodd"
         id="path8585" /></clipPath><clipPath
       clipPathUnits="userSpaceOnUse"
       id="clipPath8603"><path
         d="m 260,544.79999 v 381.44 h 273.91998 v -381.44 z"
         clip-rule="evenodd"
         id="path8601" /></clipPath><clipPath
       clipPathUnits="userSpaceOnUse"
       id="clipPath8631"><path
         d="M -89.279999,-296.76001 V 84.68 H 184.64 v -381.44001 z"
         clip-rule="evenodd"
         id="path8629" /></clipPath><clipPath
       clipPathUnits="userSpaceOnUse"
       id="clipPath8647"><path
         d="m 260,544.79999 v 381.44 h 273.91998 v -381.44 z"
         clip-rule="evenodd"
         id="path8645" /></clipPath><clipPath
       clipPathUnits="userSpaceOnUse"
       id="clipPath8663"><path
         d="m 260,544.79999 v 381.44 h 273.91998 v -381.44 z"
         clip-rule="evenodd"
         id="path8661" /></clipPath><clipPath
       clipPathUnits="userSpaceOnUse"
       id="clipPath8685"><path
         d="m 260,544.79999 v 381.44 h 273.91998 v -381.44 z"
         clip-rule="evenodd"
         id="path8683" /></clipPath></defs><g
     inkscape:label="Layer 1"
     inkscape:groupmode="layer"
     id="layer1"
     transform="translate(-49.091458,-75.675131)"><g
       id="g8413"
       clip-path="url(#clipPath8417)"
       transform="matrix(0.26458333,0,0,0.26458333,-19.739763,-68.802471)"><path
         d="M 260.64001,585.73999 H 533.77002 V 925.41998 H 260.64001 Z"
         style="fill:none;stroke:#248814;stroke-width:0.981;stroke-linecap:butt;stroke-linejoin:miter;stroke-miterlimit:10;stroke-dasharray:none;stroke-opacity:1"
         id="path8419" /></g><g
       id="g8423"
       clip-path="url(#clipPath8427)"
       transform="matrix(0.26458333,0,0,0.26458333,-19.739763,-68.802471)"><g
         id="g8429"
         transform="translate(260.64001,609.32001)"><path
           d="m 0,0 c 0,-23.58 0,-23.58 0,-23.58 23.549999,0 23.549999,0 23.549999,0 0,23.58 0,23.58 0,23.58 z m 9.81,-10.81 c 3.27,0 3.27,0 3.27,0 0,1.97 0,1.97 0,1.97 -3.27,0 -3.27,0 -3.27,0 z m 1.63,-1.96 c 0,0 0.33,0.32 0.33,0.32 0.33,0.33 0.33,0.33 0.33,0.66 0,0.33 0,0.33 0,0.33 -1.31,0 -1.31,0 -1.31,0 0,-0.33 0,-0.33 0,-0.33 0,-0.33 0,-0.33 0.33,-0.66 0,0 0.32,-0.32 0.32,-0.32 z m 0,-0.66 c -0.32,0 -0.65,0.33 -0.98,0.66 -0.32,0.32 -0.32,0.65 -0.32,0.98 0,0.33 0,0.33 0,0.33 -0.66,0 -0.66,0 -0.66,0 0,0 -0.33,0.32 -0.33,0.32 0,2.63 0,2.63 0,2.63 0,0 0,0 0,0 0.33,0.32 0.33,0.32 0.33,0.32 3.93,0 3.93,0 3.93,0 0,0 0,0 0,-0.32 0.32,0 0.32,0 0.32,0 0,-2.63 0,-2.63 0,-2.63 0,0 -0.32,-0.32 -0.32,-0.32 -0.66,0 -0.66,0 -0.66,0 0,-0.33 0,-0.33 0,-0.33 0,-0.33 0,-0.66 -0.32,-0.98 -0.33,-0.33 -0.66,-0.66 -0.99,-0.66 z m -1.63,-2.949999 c 0.33,0 0.65,0 0.98,0 1.64,0.33 2.62,1.639999 2.94,2.949999 0,0 0.33,0 0.33,0 0,0 0.33,0 0.33,0 0.33,-0.33 0.65,-0.33 0.65,-0.65 0.33,0 0.66,0 1.31,0.32 0.33,0.33 0.66,0.99 0.66,1.64 0,0 0,0 0,0.33 0,0 0.32,0 0.32,0 0.979999,0 1.639999,0.65 1.960001,1.31 0.33,0.66 0.33,0.98 0.33,1.64 0,0.65 -0.33,0.98 -0.650002,1.31 0,0 0,0 0,0 -0.33,0.65 -0.979999,0.98 -1.959999,0.98 -10.47,0 -10.47,0 -10.47,0 -0.66,0 -1.64,-0.33 -1.96,-0.98 -0.33,-0.66 -0.66,-1.64 -0.33,-2.62 0.33,-0.66 0.65,-1.31 1.63,-1.64 0.33,0 0.33,-0.33 0.33,-0.33 0,-0.98 0.33,-1.96 0.98,-2.95 0.66,-0.979999 1.64,-1.309999 2.62,-1.309999 z m 0,-0.650002 c 0,0 0,0 0,0 -1.31,0 -2.29,0.33 -2.94,1.310001 -0.33,0 -0.33,0 -0.33,0 -0.66,0.98 -0.98,2.29 -0.98,3.27 -0.98,0.33 -1.64,1.31 -1.97,1.97 0,0 0,0 0,0 -0.32,1.31 0,2.62 0.33,3.28 0,0 0,0 0,0 0.66,0.65 1.64,1.31 2.62,1.31 10.47,0 10.47,0 10.47,0 0.98,0 1.959999,-0.33 2.610001,-1.31 0.33,-0.33 0.66,-0.99 0.66,-1.64 0,-0.66 0,-1.31 -0.33,-1.97 0,0 0,0 0,0 -0.33,-0.65 -1.310002,-1.64 -2.290001,-1.64 0,-0.65 -0.33,-1.63 -0.98,-1.96 0,0 0,0 0,0 -0.66,-0.33 -1.31,-0.33 -1.64,-0.33 -0.32,0.33 -0.65,0.33 -0.65,0.33 -0.66,-0.98 -1.64,-2.290001 -3.27,-2.620001 0,0 0,0 0,0 -0.33,0 -0.66,0 -1.31,0 z"
           style="fill:#248814;fill-opacity:1;fill-rule:nonzero;stroke:none"
           id="path8431" /></g><g
         id="g8433"><path
           d="M 290.73001,591.96002 H 382.97 V 605.06 h -92.23999 z"
           style="fill:#ffffff;fill-opacity:1;fill-rule:nonzero;stroke:none"
           id="path8435" /></g></g><text
       xml:space="preserve"
       transform="scale(0.9993121,1.0006884)"
       style="font-style:normal;font-variant:normal;font-weight:normal;font-stretch:normal;font-size:2.19403px;font-family:Arial;-inkscape-font-specification:'Arial, Normal';font-variant-ligatures:normal;font-variant-caps:normal;font-variant-numeric:normal;font-variant-east-asian:normal;writing-mode:lr-tb;fill:#009900;fill-opacity:1;fill-rule:nonzero;stroke:none;stroke-width:0.00634325"
       id="text8441"
       x="57.220127"
       y="90.518242"><tspan
         x="57.220127 58.612759 59.298683 59.755966 60.857601 61.460384 62.08395 62.686733 63.996223 64.599007 65.991638 67.342697 68.818474 69.46283 70.564461 71.707672 72.310455 73.453659 74.035652 75.137291 75.781647 76.883278 77.506844 78.608482"
         y="90.518242"
         sodipodi:role="line"
         id="tspan8439"
         style="font-style:normal;font-variant:normal;font-weight:normal;font-stretch:normal;font-size:2.19403px;font-family:Arial;-inkscape-font-specification:'Arial, Normal';font-variant-ligatures:normal;font-variant-caps:normal;font-variant-numeric:normal;font-variant-east-asian:normal;stroke-width:0.00634325">Print IT VPC 10.0.0.0/16</tspan></text><g
       id="g8445"
       clip-path="url(#clipPath8449)"
       transform="matrix(0.26458333,0,0,0.26458333,-19.739763,-68.802471)"><path
         d="m 288.76999,604.40997 h 2.94 V 605.06 h -2.94 z m -0.32999,4.26001 v -2.95001 h 0.98001 v 2.95001 z m 0,5.57001 v -2.95001 h 0.98001 v 2.95001 z m 0,5.56 v -2.94001 h 0.98001 v 2.94001 z m 0,5.57 V 622.75 h 0.98001 v 2.61999 z m 0,5.90003 v -2.95001 h 0.98001 v 2.95001 z m 0,5.57001 v -2.95002 h 0.98001 v 2.95002 z m 0,5.56994 v -2.61999 h 0.98001 v 2.61999 z m 0,5.56 v -2.61999 h 0.98001 v 2.61999 z m 0,5.90002 v -2.95001 h 0.98001 v 2.95001 z m 0,5.57001 v -2.95001 h 0.98001 V 659.44 Z m 0,5.57001 v -2.62 h 0.98001 v 2.62 z m 0,5.89001 v -2.94 h 0.98001 v 2.94 z m 0,5.56995 v -2.94995 h 0.98001 v 2.94995 z m 0,5.57001 v -2.94995 h 0.98001 v 2.94995 z m 0,5.57001 v -2.62 h 0.98001 v 2.62 z m 0,5.89001 v -2.94 h 0.98001 v 2.94 z m 0,5.57001 V 696.13 h 0.98001 v 2.94001 z m 0,5.57 v -2.61999 h 0.98001 v 2.61999 z m 0,5.89997 v -2.94995 h 0.98001 v 2.94995 z m 0,5.57001 v -2.95002 h 0.98001 v 2.95002 z m 0,5.57 v -2.95001 h 0.98001 v 2.95001 z m 0,5.56 V 724.62 h 0.98001 v 2.61999 z m 0,5.90002 V 730.19 h 0.98001 v 2.95001 z m 0,5.57001 v -2.95001 h 0.98001 v 2.95001 z m 0,5.57001 v -2.62006 h 0.98001 v 2.62006 z m 0,5.56995 v -2.63001 h 0.98001 v 2.63001 z m 0,5.89001 v -2.95001 h 0.98001 v 2.95001 z m 6.20999,0.33002 h -2.94 v -0.97998 h 2.94 z m 5.57001,0 h -2.95001 v -0.97998 H 300.22 Z m 5.56,0 h -2.62 v -0.97998 h 2.62 z m 5.56,0 h -2.62 v -0.97998 h 2.62 z m 5.88,0 h -2.94 v -0.97998 h 2.94 z m 5.57001,0 H 319.84 v -0.97998 h 2.95001 z m 5.56,0 h -2.62 v -0.97998 h 2.62 z m 5.88,0 h -2.94 v -0.97998 h 2.94 z m 5.56,0 h -2.94 v -0.97998 h 2.94 z m 5.56998,0 H 342.41 v -0.97998 h 2.94999 z m 5.56002,0 h -2.62002 v -0.97998 h 2.62002 z m 5.87998,0 h -2.94 v -0.97998 h 2.94 z m 5.56,0 h -2.93998 v -0.97998 h 2.93998 z m 5.57,0 H 365.31 v -0.97998 h 2.61999 z m 5.56,0 H 370.87 v -0.97998 h 2.61999 z m 5.88001,0 h -2.94001 v -0.97998 H 379.37 Z m 5.55999,0 h -2.94 v -0.97998 h 2.94 z m 5.57001,0 h -2.62 v -0.97998 h 2.62 z m 5.88,0 h -2.94 v -0.97998 h 2.94 z m 5.56,0 H 399 v -0.97998 h 2.94 z m 5.56,0 h -2.94 v -0.97998 h 2.94 z m 5.57001,0 h -2.62 v -0.97998 h 2.62 z m 5.88,0 h -2.94 v -0.97998 h 2.94 z m 5.56,0 h -2.94 v -0.97998 h 2.94 z m 5.56,0 h -2.61002 v -0.97998 h 2.61002 z m 5.57,0 h -2.62002 v -0.97998 h 2.62002 z m 5.87998,0 h -2.94 v -0.97998 h 2.94 z m 5.56,0 h -2.93998 v -0.97998 h 2.93998 z m 5.56002,0 H 450.03 v -0.97998 h 2.61001 z m 5.88999,0 h -2.94 v -0.97998 h 2.94 z m 5.56,0 h -2.94001 v -0.97998 H 464.09 Z m 5.55999,0 h -2.94 v -0.97998 h 2.94 z m 5.56,0 h -2.60998 v -0.97998 h 2.60998 z m 5.89002,0 H 478.16 v -0.97998 h 2.94001 z m 5.55999,0 h -2.94 v -0.97998 h 2.94 z m 5.56,0 h -2.61001 v -0.97998 H 492.22 Z m 5.88999,0 h -2.93998 v -0.97998 h 2.93998 z m 5.56002,0 h -2.94 v -0.97998 h 2.94 z m 5.56,0 h -2.94 v -0.97998 h 2.94 z m 5.55997,0 h -2.60999 v -0.97998 h 2.60999 z m 5.89001,0 h -2.94 v -0.97998 h 2.94 z m 4.25,-2.28998 v 2.28998 h -1.63 v -0.97998 h 0.98004 v 0.64996 h -0.33002 v -1.95996 z m 0,-5.57001 v 2.62 h -0.97998 v -2.62 z m 0,-5.90002 v 2.95001 h -0.97998 V 742.31 Z m 0,-5.57001 V 739.69 h -0.97998 v -2.95001 z m 0,-5.57001 v 2.62 h -0.97998 v -2.62 z m 0,-5.55999 v 2.61999 h -0.97998 v -2.61999 z m 0,-5.89997 v 2.94995 h -0.97998 v -2.94995 z m 0,-5.57001 v 2.95002 h -0.97998 v -2.95002 z m 0,-5.57 V 711.19 h -0.97998 v -2.61999 z m 0,-5.89002 V 705.62 h -0.97998 v -2.94001 z m 0,-5.57 V 700.06 h -0.97998 v -2.95001 z m 0,-5.57001 v 2.95001 h -0.97998 v -2.95001 z m 0,-5.57001 v 2.62006 h -0.97998 v -2.62006 z m 0,-5.89996 v 2.95001 h -0.97998 v -2.95001 z m 0,-5.56 v 2.94 h -0.97998 v -2.94 z m 0,-5.57001 v 2.62 h -0.97998 v -2.62 z m 0,-5.57001 v 2.62 h -0.97998 v -2.62 z m 0,-5.90002 v 2.95001 h -0.97998 v -2.95001 z m 0,-5.56995 v 2.94996 h -0.97998 v -2.94996 z m 0,-5.55999 v 2.61999 h -0.97998 v -2.61999 z m 0,-5.90003 v 2.95001 h -0.97998 V 640.44 Z m 0,-5.57001 v 2.95002 h -0.97998 v -2.95002 z m 0,-5.57 V 632.25 h -0.97998 v -2.95001 z m 0,-5.57001 v 2.63 h -0.97998 v -2.63 z m 0,-5.88995 v 2.94995 h -0.97998 v -2.94995 z m 0,-5.57001 v 2.94995 h -0.97998 v -2.94995 z m 0,-5.57001 v 2.62 h -0.97998 v -2.62 z m -4.25,-2.29004 h 2.62 V 605.06 h -2.62 z m -5.89001,0 h 2.95001 V 605.06 h -2.95001 z m -5.55997,0 h 2.94998 V 605.06 h -2.94998 z m -5.56,0 h 2.62 V 605.06 h -2.62 z m -5.56002,0 h 2.62002 V 605.06 h -2.62002 z m -5.88999,0 h 2.95001 V 605.06 H 492.22 Z m -5.56,0 h 2.94999 V 605.06 H 486.66 Z m -5.55999,0 H 483.72 V 605.06 h -2.61999 z m -5.89002,0 H 478.16 V 605.06 h -2.95001 z m -5.56,0 h 2.95002 V 605.06 h -2.95002 z m -5.55999,0 h 2.61999 V 605.06 H 464.09 Z m -5.56,0 h 2.61999 V 605.06 H 458.53 Z m -5.88999,0 H 455.59 V 605.06 h -2.94999 z m -5.56002,0 H 450.03 V 605.06 h -2.95001 z m -5.56,0 h 2.62002 V 605.06 h -2.62002 z m -5.87998,0 h 2.93998 V 605.06 h -2.93998 z m -5.57,0 h 2.94998 V 605.06 h -2.94998 z m -5.56,0 h 2.94998 V 605.06 h -2.94998 z m -5.56,0 h 2.62 V 605.06 h -2.62 z m -5.88,0 h 2.94 V 605.06 h -2.94 z m -5.57001,0 h 2.95001 V 605.06 H 407.5 Z m -5.56,0 h 2.62 V 605.06 h -2.62 z m -5.56,0 H 399 V 605.06 h -2.62 z m -5.88,0 h 2.94 V 605.06 h -2.94 z m -5.57001,0 H 387.88 V 605.06 h -2.95001 z m -5.55999,0 h 2.61999 V 605.06 H 379.37 Z m -5.88001,0 h 2.94 V 605.06 h -2.94 z m -5.56,0 H 370.87 V 605.06 h -2.94001 z m -5.57,0 H 365.31 V 605.06 h -2.95001 z m -5.56,0 h 2.62002 V 605.06 h -2.62002 z m -5.87998,0 h 2.93998 V 605.06 h -2.93998 z m -5.56002,0 h 2.94 V 605.06 h -2.94 z m -5.56998,0 H 342.41 V 605.06 h -2.61999 z m -5.56,0 h 2.62 V 605.06 h -2.62 z m -5.88,0 h 2.94 V 605.06 h -2.94 z m -5.56,0 h 2.94 V 605.06 h -2.94 z m -5.57001,0 h 2.62 V 605.06 h -2.62 z m -5.88,0 h 2.94 V 605.06 h -2.94 z m -5.56,0 h 2.94 V 605.06 h -2.94 z m -5.56,0 h 2.94 V 605.06 h -2.94 z m -5.57001,0 h 2.62 V 605.06 h -2.62 z"
         style="fill:#147eba;fill-opacity:1;fill-rule:nonzero;stroke:none"
         id="path8451" /></g><text
       xml:space="preserve"
       transform="scale(0.9993121,1.0006884)"
       style="font-style:normal;font-variant:normal;font-weight:normal;font-stretch:normal;font-size:2.19403px;font-family:Arial;-inkscape-font-specification:'Arial, Normal';font-variant-ligatures:normal;font-variant-caps:normal;font-variant-numeric:normal;font-variant-east-asian:normal;writing-mode:lr-tb;fill:#147eba;fill-opacity:1;fill-rule:nonzero;stroke:none;stroke-width:0.00634325"
       id="text8457"
       x="78.69902"
       y="94.749825"><tspan
         x="78.69902 80.133224 81.193283 82.294922 82.772987 83.188698 84.290337 85.43354 85.849251 86.285751 86.743034 87.345818 88.364311 88.987877 90.255798 91.399002 92.542206 93.643845 94.246628"
         y="94.749825"
         sodipodi:role="line"
         id="tspan8455"
         style="font-style:normal;font-variant:normal;font-weight:normal;font-stretch:normal;font-size:2.19403px;font-family:Arial;-inkscape-font-specification:'Arial, Normal';font-variant-ligatures:normal;font-variant-caps:normal;font-variant-numeric:normal;font-variant-east-asian:normal;stroke-width:0.00634325">Availability Zone a</tspan></text><g
       id="g8461"
       clip-path="url(#clipPath8465)"
       transform="matrix(0.26458333,0,0,0.26458333,-19.739763,-68.802471)"><g
         id="g8467"><path
           d="M 410.78,623.72998 H 514.46997 V 746.23999 H 410.78 Z"
           style="fill:#e6f2f8;fill-opacity:1;fill-rule:nonzero;stroke:none"
           id="path8469" /></g><g
         id="g8471"
         transform="translate(422.54999,636.17999)"><path
           d="m 0,0 c 0,0 0,0 0,0 0.33,0 0.66,0.33 0.98,0.33 0,0.33 0.33,0.65 0.33,0.98 0,0.33 -0.33,0.66 -0.33,0.98 C 0.66,2.29 0.33,2.62 0,2.62 -0.33,2.62 -0.65,2.29 -0.98,1.97 -1.31,1.64 -1.31,0.98 -0.98,0.66 -0.98,0.33 -0.33,0 0,0 Z m 0,-0.65 c -0.98,0 -1.63,0.98 -1.96,1.63 0,0.99 0.65,1.97 1.63,2.3 0,2.62 0,2.62 0,2.62 0.66,0 0.66,0 0.66,0 0,-2.62 0,-2.62 0,-2.62 C 1.31,2.95 1.96,2.29 1.96,1.31 1.96,0.33 0.98,-0.65 0,-0.65 Z m -5.89,-1.97 c 11.78,0 11.78,0 11.78,0 0,9.83 0,9.83 0,9.83 -11.78,0 -11.78,0 -11.78,0 z M 0,-8.84 c 0.98,0 1.96,0.33 2.62,0.98 0.32,0.66 0.98,1.31 0.98,2.29 0,2.3 0,2.3 0,2.3 -6.87,0 -6.87,0 -6.87,0 0,-2.3 0,-2.3 0,-2.3 0,-0.98 0.33,-1.96 0.98,-2.29 0.66,-0.65 1.31,-0.98 2.29,-0.98 z M 0,-9.5 c -0.98,0 -1.96,0.33 -2.62,0.99 -0.98,0.65 -1.3,1.63 -1.3,2.62 0,2.62 0,2.62 0,2.62 -2.29,0 -2.29,0 -2.29,0 0,0 0,0 -0.33,0 0,0 0,0.32 0,0.32 0,10.49 0,10.49 0,10.49 0,0.32 0.33,0.32 0.33,0.32 12.43,0 12.43,0 12.43,0 0.32,0 0.32,0 0.32,-0.32 0,-10.49 0,-10.49 0,-10.49 0,0 0,-0.32 0,-0.32 0,0 -0.32,0 -0.32,0 -1.97,0 -1.97,0 -1.97,0 0,-2.3 0,-2.3 0,-2.3 C 4.25,-6.55 3.6,-7.53 2.94,-8.51 2.29,-9.17 0.98,-9.5 0,-9.5 Z m -11.77,-2.95 c 23.55,0 23.55,0 23.55,0 0,23.59 0,23.59 0,23.59 -23.55,0 -23.55,0 -23.55,0 z"
           style="fill:#147eba;fill-opacity:1;fill-rule:nonzero;stroke:none"
           id="path8473" /></g></g><text
       xml:space="preserve"
       transform="scale(0.9993121,1.0006884)"
       style="font-style:normal;font-variant:normal;font-weight:normal;font-stretch:normal;font-size:2.19403px;font-family:Arial;-inkscape-font-specification:'Arial, Normal';font-variant-ligatures:normal;font-variant-caps:normal;font-variant-numeric:normal;font-variant-east-asian:normal;writing-mode:lr-tb;fill:#147eba;fill-opacity:1;fill-rule:nonzero;stroke:none;stroke-width:0.00634325"
       id="text8479"
       x="96.872444"
       y="100.50188"><tspan
         x="96.872444 98.265076 98.951004 99.366714 100.42678 101.56998 102.17277 103.2744 103.89797 104.91646 106.05967 107.1613 108.30451 109.44772 110.0505 110.63249"
         y="100.50188"
         sodipodi:role="line"
         id="tspan8477"
         style="font-style:normal;font-variant:normal;font-weight:normal;font-stretch:normal;font-size:2.19403px;font-family:Arial;-inkscape-font-specification:'Arial, Normal';font-variant-ligatures:normal;font-variant-caps:normal;font-variant-numeric:normal;font-variant-east-asian:normal;stroke-width:0.00634325">Private subnet 1</tspan></text><text
       xml:space="preserve"
       transform="scale(0.9993121,1.0006884)"
       style="font-style:normal;font-variant:normal;font-weight:normal;font-stretch:normal;font-size:2.19403px;font-family:Arial;-inkscape-font-specification:'Arial, Normal';font-variant-ligatures:normal;font-variant-caps:normal;font-variant-numeric:normal;font-variant-east-asian:normal;writing-mode:lr-tb;fill:#147eba;fill-opacity:1;fill-rule:nonzero;stroke:none;stroke-width:0.00634325"
       id="text8485"
       x="96.872444"
       y="103.97102"><tspan
         x="96.872444 98.015648 99.117287 99.761642 100.86327 101.48684 102.58848 103.19126 104.33447 104.91646 106.05967"
         y="103.97102"
         sodipodi:role="line"
         id="tspan8483"
         style="font-style:normal;font-variant:normal;font-weight:normal;font-stretch:normal;font-size:2.19403px;font-family:Arial;-inkscape-font-specification:'Arial, Normal';font-variant-ligatures:normal;font-variant-caps:normal;font-variant-numeric:normal;font-variant-east-asian:normal;stroke-width:0.00634325">10.0.1.0/24</tspan></text><g
       id="g8489"
       clip-path="url(#clipPath8493)"
       transform="matrix(0.26458333,0,0,0.26458333,87.99327,81.060168)"><path
         d="m 0,0 c 9.48,0 17.33,7.86 17.33,17.360001 0,9.83 -7.85,17.36 -17.33,17.36 -9.82,0 -17.34,-7.53 -17.34,-17.36 C -17.34,7.86 -9.82,0 0,0 Z m 0,-1.31 c -10.47,0 -18.969999,8.19 -18.969999,18.670001 0,10.479999 8.499999,19 18.969999,19 10.14,0 18.639999,-8.520001 18.639999,-19 C 18.639999,6.88 10.14,-1.31 0,-1.31 Z m 0,9.17 c 3.6,0 6.21,0.99 8.17,2.62 0,16.710001 0,16.710001 0,16.710001 -1.63,0 -1.63,0 -1.63,0 C 6.54,11.79 6.54,11.79 6.54,11.79 c 0,0 0,-0.32 -0.33,-0.32 C 4.58,10.16 2.29,9.5 0,9.5 c -2.29,0 -4.58,0.98 -6.54,1.97 -0.33,0 -0.33,0.32 -0.33,0.65 0,15.070001 0,15.070001 0,15.070001 -1.64,0 -1.64,0 -1.64,0 C -8.51,10.81 -8.51,10.81 -8.51,10.81 -7.85,10.48 -6.87,9.5 -5.24,9.17 -3.93,8.52 -1.97,7.86 0,7.86 Z M 0,6.55 c -1.97,0 -4.26,0.33 -5.89,1.31 -1.64,0.66 -2.94,1.31 -3.93,2.3 0,0 0,0.32 0,0.32 0,17.69 0,17.69 0,17.69 0,0 0,0.33 0,0.33 0.33,0.33 0.33,0.33 0.66,0.33 2.94,0 2.94,0 2.94,0 0.33,0 0.33,0 0.66,-0.33 0,0 0,-0.33 0,-0.33 0,-15.72 0,-15.72 0,-15.72 1.63,-0.66 3.92,-1.31 5.56,-1.31 1.96,0 3.6,0.65 5.23,1.31 0,15.72 0,15.72 0,15.72 0,0.33 0.33,0.66 0.66,0.66 2.94,0 2.94,0 2.94,0 0.33,0 0.65,0 0.65,-0.33 0,0 0.33,-0.33 0.33,-0.33 0,-18.01 0,-18.01 0,-18.01 C 9.81,9.83 9.48,9.83 9.48,9.5 7.19,7.86 3.92,6.55 0,6.55 Z"
         style="fill:#5a30b5;fill-opacity:1;fill-rule:nonzero;stroke:none"
         id="path8495" /></g><text
       xml:space="preserve"
       transform="scale(0.9993121,1.0006884)"
       style="font-style:normal;font-variant:normal;font-weight:normal;font-stretch:normal;font-size:2.19403px;font-family:Arial;-inkscape-font-specification:'Arial, Normal';font-variant-ligatures:normal;font-variant-caps:normal;font-variant-numeric:normal;font-variant-east-asian:normal;writing-mode:lr-tb;fill:#000000;fill-opacity:1;fill-rule:nonzero;stroke:none;stroke-width:0.00634325"
       id="text8501"
       x="84.248726"
       y="77.193604"><tspan
         x="84.248726 84.893074 85.994713 86.618279 87.719917 88.447411 89.549042 90.692253"
         y="77.193604"
         sodipodi:role="line"
         id="tspan8499"
         style="font-style:normal;font-variant:normal;font-weight:normal;font-stretch:normal;font-size:2.19403px;font-family:Arial;-inkscape-font-specification:'Arial, Normal';font-variant-ligatures:normal;font-variant-caps:normal;font-variant-numeric:normal;font-variant-east-asian:normal;stroke-width:0.00634325">Internet</tspan></text><text
       xml:space="preserve"
       transform="scale(0.9993121,1.0006884)"
       style="font-style:normal;font-variant:normal;font-weight:normal;font-stretch:normal;font-size:2.19403px;font-family:Arial;-inkscape-font-specification:'Arial, Normal';font-variant-ligatures:normal;font-variant-caps:normal;font-variant-numeric:normal;font-variant-east-asian:normal;writing-mode:lr-tb;fill:#000000;fill-opacity:1;fill-rule:nonzero;stroke:none;stroke-width:0.00634325"
       id="text8507"
       x="83.654999"
       y="79.689041"><tspan
         x="83.654999 85.297066 86.398697 87.043053 88.144684 89.620461 90.722099"
         y="79.689041"
         sodipodi:role="line"
         id="tspan8505"
         style="font-style:normal;font-variant:normal;font-weight:normal;font-stretch:normal;font-size:2.19403px;font-family:Arial;-inkscape-font-specification:'Arial, Normal';font-variant-ligatures:normal;font-variant-caps:normal;font-variant-numeric:normal;font-variant-east-asian:normal;stroke-width:0.00634325">Gateway</tspan></text><g
       id="g8511"
       clip-path="url(#clipPath8515)"
       transform="matrix(0.26458333,0,0,0.26458333,-19.739763,-68.802471)"><path
         d="m 288.44,768.19 v -2.61999 h 3.26999 v 0.64996 h -2.94 v -0.31995 h 0.65002 V 768.19 Z m 0,5.57001 V 770.81 h 0.98001 v 2.95001 z m 0,5.57001 V 776.38 h 0.98001 v 2.95002 z m 0,5.55999 v -2.61999 h 0.98001 v 2.61999 z m 0,5.89997 v -2.94995 h 0.98001 v 2.94995 z m 0,5.57 v -2.95001 h 0.98001 v 2.95001 z m 0,5.57001 V 799.31 h 0.98001 v 2.61999 z m 0,5.89002 V 804.88 h 0.98001 v 2.94001 z m 0,5.57 V 810.44 h 0.98001 v 2.95001 z m 0,5.57001 v -2.95001 h 0.98001 v 2.95001 z m 0,5.57001 v -2.62006 h 0.98001 v 2.62006 z m 0,5.89996 v -2.95001 h 0.98001 v 2.95001 z m 0,5.56 v -2.94 h 0.98001 v 2.94 z m 0,5.57001 v -2.62 h 0.98001 v 2.62 z m 0,5.57 v -2.61999 h 0.98001 V 847.13 Z m 0,5.90003 v -2.95001 h 0.98001 v 2.95001 z m 0,5.56995 v -2.94996 h 0.98001 v 2.94996 z m 0,5.55999 v -2.61999 h 0.98001 v 2.61999 z m 0,5.90003 v -2.95001 h 0.98001 V 870.06 Z m 0,5.57 v -2.95001 h 0.98001 V 875.63 Z m 0,5.57001 V 878.25 h 0.98001 v 2.95001 z m 0,5.57001 v -2.63001 h 0.98001 v 2.63001 z m 0,5.88995 v -2.94995 h 0.98001 v 2.94995 z m 0,5.57001 v -2.94995 h 0.98001 v 2.94995 z m 0,5.57001 v -2.62 h 0.98001 v 2.62 z m 0,5.57 V 906.75 h 0.98001 v 2.61999 z m 0,5.89002 v -2.94 h 0.98001 v 2.94 z m 5.23001,1.31 H 291.06 v -0.97998 h 2.61001 z m 5.56,0 H 296.62 v -0.97998 h 2.61001 z m 5.88999,0 h -2.94001 v -0.97998 H 305.12 Z m 5.55999,0 h -2.94 v -0.97998 h 2.94 z m 5.56,0 H 313.63 v -0.97998 h 2.60999 z m 5.89001,0 h -2.94 v -0.97998 h 2.94 z m 5.56,0 h -2.94 v -0.97998 h 2.94 z m 5.56,0 h -2.94 v -0.97998 h 2.94 z m 5.56,0 h -2.60999 v -0.97998 H 338.81 Z m 5.89001,0 h -2.94 v -0.97998 h 2.94 z m 5.56,0 h -2.94 v -0.97998 h 2.94 z m 5.56,0 h -2.61002 v -0.97998 h 2.61002 z m 5.55999,0 h -2.61001 v -0.97998 H 361.38 Z m 5.88999,0 h -2.94 v -0.97998 h 2.94 z m 5.56,0 h -2.93998 v -0.97998 h 2.93998 z m 5.56002,0 H 375.78 v -0.97998 h 2.61001 z m 5.88999,0 h -2.94 v -0.97998 h 2.94 z m 5.56,0 h -2.94001 v -0.97998 H 389.84 Z m 5.55999,0 h -2.94 v -0.97998 h 2.94 z m 5.56,0 h -2.60998 v -0.97998 h 2.60998 z m 5.89002,0 H 403.91 v -0.97998 h 2.94001 z m 5.55999,0 h -2.94 v -0.97998 h 2.94 z m 5.56,0 h -2.61999 v -0.97998 H 417.97 Z m 5.56,0 h -2.60999 v -0.97998 H 423.53 Z m 5.89001,0 h -2.94 v -0.97998 h 2.94 z m 5.56,0 h -2.94 v -0.97998 h 2.94 z m 5.56,0 h -2.62 v -0.97998 h 2.62 z m 5.88998,0 h -2.94 v -0.97998 h 2.94 z m 5.56,0 h -2.94 v -0.97998 h 2.94 z m 5.56,0 h -2.94 v -0.97998 h 2.94 z m 5.56,0 h -2.62 v -0.97998 h 2.62 z m 5.89001,0 h -2.94 v -0.97998 H 469 Z m 5.56,0 h -2.94 v -0.97998 h 2.94 z m 5.56,0 h -2.62 v -0.97998 h 2.62 z m 5.89001,0 H 483.06 v -0.97998 h 2.95001 z m 5.56,0 H 488.63 v -0.97998 h 2.94001 z m 5.55999,0 h -2.94 v -0.97998 h 2.94 z m 5.56,0 h -2.61999 v -0.97998 H 502.69 Z m 5.88999,0 H 505.63 v -0.97998 h 2.94999 z m 5.56002,0 h -2.94 v -0.97998 h 2.94 z m 5.56,0 h -2.61999 v -0.97998 h 2.61999 z m 5.22998,-1.63001 v 1.63001 h -2.28998 v -0.97998 h 1.64002 v 0.32995 h -0.33002 V 914.94 Z m 0,-5.57001 v 2.62 h -0.97998 v -2.62 z m 0,-5.90002 v 2.95001 h -0.97998 v -2.95001 z m 0,-5.56995 v 2.94996 h -0.97998 v -2.94996 z m 0,-5.57 v 2.61999 h -0.97998 v -2.61999 z m 0,-5.89002 v 2.95001 h -0.97998 V 886.44 Z m 0,-5.57001 v 2.95002 h -0.97998 v -2.95002 z m 0,-5.57 V 878.25 h -0.97998 v -2.95001 z m 0,-5.57001 v 2.62 h -0.97998 v -2.62 z m 0,-5.88995 v 2.94 h -0.97998 v -2.94 z m 0,-5.57001 v 2.94995 h -0.97998 v -2.94995 z m 0,-5.57001 v 2.62 h -0.97998 v -2.62 z m 0,-5.57001 v 2.62 h -0.97998 v -2.62 z m 0,-5.90002 v 2.95001 h -0.97998 v -2.95001 z m 0,-5.56 v 2.94001 h -0.97998 v -2.94001 z m 0,-5.57 v 2.61999 h -0.97998 v -2.61999 z m 0,-5.89997 v 2.95001 h -0.97998 v -2.95001 z m 0,-5.57001 v 2.95002 h -0.97998 V 818.63 Z m 0,-5.57 v 2.95001 h -0.97998 V 813.06 Z m 0,-5.56 v 2.62 h -0.97998 v -2.62 z m 0,-5.90002 v 2.95001 h -0.97998 v -2.95001 z m 0,-5.56995 v 2.94995 h -0.97998 v -2.94995 z m 0,-5.57001 v 2.62 h -0.97998 v -2.62 z m 0,-5.57001 v 2.62 h -0.97998 v -2.62 z m 0,-5.89001 v 2.95001 h -0.97998 V 779 Z m 0,-5.57001 V 776.38 h -0.97998 v -2.95001 z m 0,-5.57001 v 2.62 h -0.97998 v -2.62 z m -4.25,-2.28997 h 2.62 v 0.64996 h -2.62 z m -5.89001,0 h 2.95001 v 0.64996 h -2.95001 z m -5.55997,0 h 2.94998 v 0.64996 h -2.94998 z m -5.56,0 h 2.62 v 0.64996 h -2.62 z m -5.56002,0 h 2.62002 v 0.64996 h -2.62002 z m -5.88999,0 h 2.95001 v 0.64996 H 492.22 Z m -5.56,0 h 2.94999 v 0.64996 H 486.66 Z m -5.55999,0 H 483.72 v 0.64996 h -2.61999 z m -5.89002,0 H 478.16 v 0.64996 h -2.95001 z m -5.56,0 h 2.95002 v 0.64996 h -2.95002 z m -5.55999,0 h 2.61999 v 0.64996 H 464.09 Z m -5.56,0 h 2.61999 v 0.64996 H 458.53 Z m -5.88999,0 H 455.59 v 0.64996 h -2.94999 z m -5.56002,0 H 450.03 v 0.64996 h -2.95001 z m -5.56,0 h 2.62002 v 0.64996 h -2.62002 z m -5.87998,0 h 2.93998 v 0.64996 h -2.93998 z m -5.57,0 h 2.94998 v 0.64996 h -2.94998 z m -5.56,0 h 2.94998 v 0.64996 h -2.94998 z m -5.56,0 h 2.62 v 0.64996 h -2.62 z m -5.88,0 h 2.94 v 0.64996 h -2.94 z m -5.57001,0 h 2.95001 v 0.64996 H 407.5 Z m -5.56,0 h 2.62 v 0.64996 h -2.62 z m -5.56,0 H 399 v 0.64996 h -2.62 z m -5.88,0 h 2.94 v 0.64996 h -2.94 z m -5.57001,0 H 387.88 v 0.64996 h -2.95001 z m -5.55999,0 h 2.61999 v 0.64996 H 379.37 Z m -5.88001,0 h 2.94 v 0.64996 h -2.94 z m -5.56,0 H 370.87 v 0.64996 h -2.94001 z m -5.57,0 H 365.31 v 0.64996 h -2.95001 z m -5.56,0 h 2.62002 v 0.64996 h -2.62002 z m -5.87998,0 h 2.93998 v 0.64996 h -2.93998 z m -5.56002,0 h 2.94 v 0.64996 h -2.94 z m -5.56998,0 H 342.41 v 0.64996 h -2.61999 z m -5.56,0 h 2.62 v 0.64996 h -2.62 z m -5.88,0 h 2.94 v 0.64996 h -2.94 z m -5.56,0 h 2.94 v 0.64996 h -2.94 z m -5.57001,0 h 2.62 v 0.64996 h -2.62 z m -5.88,0 h 2.94 v 0.64996 h -2.94 z m -5.56,0 h 2.94 v 0.64996 h -2.94 z m -5.56,0 h 2.94 v 0.64996 h -2.94 z m -5.57001,0 h 2.62 v 0.64996 h -2.62 z"
         style="fill:#147eba;fill-opacity:1;fill-rule:nonzero;stroke:none"
         id="path8517" /></g><text
       xml:space="preserve"
       transform="scale(0.9993121,1.0006884)"
       style="font-style:normal;font-variant:normal;font-weight:normal;font-stretch:normal;font-size:2.19403px;font-family:Arial;-inkscape-font-specification:'Arial, Normal';font-variant-ligatures:normal;font-variant-caps:normal;font-variant-numeric:normal;font-variant-east-asian:normal;writing-mode:lr-tb;fill:#147eba;fill-opacity:1;fill-rule:nonzero;stroke:none;stroke-width:0.00634325"
       id="text8523"
       x="78.69902"
       y="137.34859"><tspan
         x="78.69902 80.133224 81.193283 82.294922 82.772987 83.188698 84.290337 85.43354 85.849251 86.285751 86.743034 87.345818 88.364311 88.987877 90.255798 91.399002 92.542206 93.643845 94.246628"
         y="137.34859"
         sodipodi:role="line"
         id="tspan8521"
         style="font-style:normal;font-variant:normal;font-weight:normal;font-stretch:normal;font-size:2.19403px;font-family:Arial;-inkscape-font-specification:'Arial, Normal';font-variant-ligatures:normal;font-variant-caps:normal;font-variant-numeric:normal;font-variant-east-asian:normal;stroke-width:0.00634325">Availability Zone b</tspan></text><g
       id="g8527"
       clip-path="url(#clipPath8531)"
       transform="matrix(0.26458333,0,0,0.26458333,-19.739763,-68.802471)"><g
         id="g8533"><path
           d="M 410.78,783.90997 H 514.46997 V 906.41998 H 410.78 Z"
           style="fill:#e6f2f8;fill-opacity:1;fill-rule:nonzero;stroke:none"
           id="path8535" /></g><g
         id="g8537"
         transform="translate(422.54999,796.69)"><path
           d="m 0,0 c 0,0 0,0 0,0 0.33,0 0.66,0 0.98,0.32 0,0.33 0.33,0.66 0.33,0.66 0,0.33 -0.33,0.65 -0.33,0.98 C 0.66,2.29 0.33,2.29 0,2.29 c -0.33,0 -0.65,0 -0.98,-0.66 -0.33,-0.32 -0.33,-0.65 0,-0.98 C -0.98,0.32 -0.33,0 0,0 Z m 0,-0.66 c -0.98,0 -1.63,0.66 -1.96,1.64 0,0.98 0.65,1.96 1.63,1.96 0,2.62 0,2.62 0,2.62 0.66,0 0.66,0 0.66,0 0,-2.62 0,-2.62 0,-2.62 0.98,0 1.63,-0.98 1.63,-1.96 C 1.96,0 0.98,-0.66 0,-0.66 Z m -5.89,-2.29 c 11.78,0 11.78,0 11.78,0 0,10.15 0,10.15 0,10.15 -11.78,0 -11.78,0 -11.78,0 z M 0,-9.18 c 0.98,0 1.96,0.33 2.62,0.99 0.32,0.65 0.98,1.64 0.98,2.29 0,2.29 0,2.29 0,2.29 -6.87,0 -6.87,0 -6.87,0 0,-2.29 0,-2.29 0,-2.29 0,-0.98 0.33,-1.64 0.98,-2.29 0.66,-0.66 1.31,-0.99 2.29,-0.99 z m 0,-0.65 c -0.98,0 -1.96,0.65 -2.62,1.31 -0.98,0.65 -1.3,1.64 -1.3,2.62 0,2.29 0,2.29 0,2.29 -2.29,0 -2.29,0 -2.29,0 0,0 0,0 -0.33,0.33 0,0 0,0 0,0 0,10.81 0,10.81 0,10.81 0,0 0.33,0.33 0.33,0.33 12.43,0 12.43,0 12.43,0 0.32,0 0.32,-0.33 0.32,-0.33 0,-10.81 0,-10.81 0,-10.81 0,0 0,0 0,0 0,-0.33 -0.32,-0.33 -0.32,-0.33 -1.97,0 -1.97,0 -1.97,0 0,-2.29 0,-2.29 0,-2.29 C 4.25,-6.88 3.6,-7.87 2.94,-8.52 2.29,-9.18 0.98,-9.83 0,-9.83 Z m -11.77,-2.95 c 23.55,0 23.55,0 23.55,0 0,23.59 0,23.59 0,23.59 -23.55,0 -23.55,0 -23.55,0 z"
           style="fill:#147eba;fill-opacity:1;fill-rule:nonzero;stroke:none"
           id="path8539" /></g></g><text
       xml:space="preserve"
       transform="scale(0.9993121,1.0006884)"
       style="font-style:normal;font-variant:normal;font-weight:normal;font-stretch:normal;font-size:2.19403px;font-family:Arial;-inkscape-font-specification:'Arial, Normal';font-variant-ligatures:normal;font-variant-caps:normal;font-variant-numeric:normal;font-variant-east-asian:normal;writing-mode:lr-tb;fill:#147eba;fill-opacity:1;fill-rule:nonzero;stroke:none;stroke-width:0.00634325"
       id="text8545"
       x="96.872444"
       y="142.89133"><tspan
         x="96.872444 98.265076 98.951004 99.366714 100.42678 101.56998 102.17277 103.2744 103.89797 104.91646 106.05967 107.1613 108.30451 109.44772 110.0505 110.63249"
         y="142.89133"
         sodipodi:role="line"
         id="tspan8543"
         style="font-style:normal;font-variant:normal;font-weight:normal;font-stretch:normal;font-size:2.19403px;font-family:Arial;-inkscape-font-specification:'Arial, Normal';font-variant-ligatures:normal;font-variant-caps:normal;font-variant-numeric:normal;font-variant-east-asian:normal;stroke-width:0.00634325">Private subnet 2</tspan></text><text
       xml:space="preserve"
       transform="scale(0.9993121,1.0006884)"
       style="font-style:normal;font-variant:normal;font-weight:normal;font-stretch:normal;font-size:2.19403px;font-family:Arial;-inkscape-font-specification:'Arial, Normal';font-variant-ligatures:normal;font-variant-caps:normal;font-variant-numeric:normal;font-variant-east-asian:normal;writing-mode:lr-tb;fill:#147eba;fill-opacity:1;fill-rule:nonzero;stroke:none;stroke-width:0.00634325"
       id="text8551"
       x="96.872444"
       y="146.36044"><tspan
         x="96.872444 98.015648 99.117287 99.761642 100.86327 101.48684 102.58848 103.19126 104.33447 104.91646 106.05967"
         y="146.36044"
         sodipodi:role="line"
         id="tspan8549"
         style="font-style:normal;font-variant:normal;font-weight:normal;font-stretch:normal;font-size:2.19403px;font-family:Arial;-inkscape-font-specification:'Arial, Normal';font-variant-ligatures:normal;font-variant-caps:normal;font-variant-numeric:normal;font-variant-east-asian:normal;stroke-width:0.00634325">10.0.3.0/24</tspan></text><g
       id="g8555"
       clip-path="url(#clipPath8559)"
       transform="matrix(0.26458333,0,0,0.26458333,-19.739763,-68.802471)"><g
         id="g8561"><path
           d="M 298.25,623.72998 H 401.94 V 746.23999 H 298.25 Z"
           style="fill:#e9f3e6;fill-opacity:1;fill-rule:nonzero;stroke:none"
           id="path8563" /></g><g
         id="g8565"
         transform="translate(310.03,636.17999)"><path
           d="m 0,0 c 0,0 0,0 0,0 0.33,0 0.65,0.33 0.98,0.33 0,0.33 0.33,0.65 0.33,0.98 0,0.33 -0.33,0.66 -0.33,0.98 C 0.65,2.29 0.33,2.62 0,2.62 -0.33,2.62 -0.98,2.29 -0.98,1.97 -1.31,1.64 -1.31,0.98 -0.98,0.66 -0.98,0.33 -0.66,0 0,0 Z m 0,-0.65 c -0.98,0 -1.64,0.98 -1.96,1.63 0,0.99 0.65,1.97 1.63,2.3 0,2.62 0,2.62 0,2.62 0.66,0 0.66,0 0.66,0 0,-2.62 0,-2.62 0,-2.62 C 1.31,2.95 1.96,2.29 1.96,1.31 1.96,0.33 0.98,-0.65 0,-0.65 Z m -5.89,-1.97 c 11.78,0 11.78,0 11.78,0 0,9.83 0,9.83 0,9.83 -11.78,0 -11.78,0 -11.78,0 z M 0,-8.84 c 0.98,0 1.63,0.33 2.29,0.98 0.65,0.66 0.98,1.31 0.98,2.29 0,2.3 0,2.3 0,2.3 -6.54,0 -6.54,0 -6.54,0 0,-2.3 0,-2.3 0,-2.3 0,-0.98 0.32,-1.96 0.98,-2.29 0.65,-0.65 1.31,-0.98 2.29,-0.98 z M 0,-9.5 c -0.98,0 -1.96,0.33 -2.95,0.99 -0.65,0.65 -0.98,1.63 -0.98,2.62 0,2.62 0,2.62 0,2.62 -2.29,0 -2.29,0 -2.29,0 0,0 0,0 -0.32,0 0,0 0,0.32 0,0.32 0,10.49 0,10.49 0,10.49 0,0.32 0.32,0.32 0.32,0.32 12.43,0 12.43,0 12.43,0 0.33,0 0.33,0 0.33,-0.32 0,-10.49 0,-10.49 0,-10.49 0,0 0,-0.32 0,-0.32 0,0 -0.33,0 -0.33,0 -1.96,0 -1.96,0 -1.96,0 0,-2.3 0,-2.3 0,-2.3 C 4.25,-6.55 3.6,-7.53 2.94,-8.51 2.29,-9.17 0.98,-9.5 0,-9.5 Z m -11.78,-2.95 c 23.55,0 23.55,0 23.55,0 0,23.59 0,23.59 0,23.59 -23.55,0 -23.55,0 -23.55,0 z"
           style="fill:#248814;fill-opacity:1;fill-rule:nonzero;stroke:none"
           id="path8567" /></g></g><text
       xml:space="preserve"
       transform="scale(0.9993121,1.0006884)"
       style="font-style:normal;font-variant:normal;font-weight:normal;font-stretch:normal;font-size:2.19403px;font-family:Arial;-inkscape-font-specification:'Arial, Normal';font-variant-ligatures:normal;font-variant-caps:normal;font-variant-numeric:normal;font-variant-east-asian:normal;writing-mode:lr-tb;fill:#248814;fill-opacity:1;fill-rule:nonzero;stroke:none;stroke-width:0.00634325"
       id="text8573"
       x="67.218361"
       y="100.50188"><tspan
         x="67.218361 68.569427 69.712631 70.855835 71.292336 71.708046 72.768112 73.370895 74.368599 75.511803 76.655014 77.756645 78.920639 79.50264 80.105415"
         y="100.50188"
         sodipodi:role="line"
         id="tspan8571"
         style="font-style:normal;font-variant:normal;font-weight:normal;font-stretch:normal;font-size:2.19403px;font-family:Arial;-inkscape-font-specification:'Arial, Normal';font-variant-ligatures:normal;font-variant-caps:normal;font-variant-numeric:normal;font-variant-east-asian:normal;stroke-width:0.00634325">Public subnet 1</tspan></text><text
       xml:space="preserve"
       transform="scale(0.9993121,1.0006884)"
       style="font-style:normal;font-variant:normal;font-weight:normal;font-stretch:normal;font-size:2.19403px;font-family:Arial;-inkscape-font-specification:'Arial, Normal';font-variant-ligatures:normal;font-variant-caps:normal;font-variant-numeric:normal;font-variant-east-asian:normal;writing-mode:lr-tb;fill:#248814;fill-opacity:1;fill-rule:nonzero;stroke:none;stroke-width:0.00634325"
       id="text8579"
       x="67.218361"
       y="103.97102"><tspan
         x="67.218361 68.32 69.463203 70.065987 71.20919 71.791191 72.934395 73.537178 74.680382 75.262383 76.364014"
         y="103.97102"
         sodipodi:role="line"
         id="tspan8577"
         style="font-style:normal;font-variant:normal;font-weight:normal;font-stretch:normal;font-size:2.19403px;font-family:Arial;-inkscape-font-specification:'Arial, Normal';font-variant-ligatures:normal;font-variant-caps:normal;font-variant-numeric:normal;font-variant-east-asian:normal;stroke-width:0.00634325">10.0.0.0/24</tspan></text><g
       id="g8583"
       clip-path="url(#clipPath8587)"
       transform="matrix(0.26458333,0,0,0.26458333,72.673903,111.39465)"><path
         d="m 0,0 c -10.14,0 -17.99,8.19 -17.99,18.01 0,9.83 7.85,18.019999 17.99,18.019999 C 9.81,36.029999 17.66,27.84 17.66,18.01 17.66,8.19 9.81,0 0,0 Z m 0,1.31 c 9.16,0 16.360001,7.53 16.360001,16.7 C 16.360001,27.190001 9.16,34.389999 0,34.389999 c -9.16,0 -16.68,-7.199998 -16.68,-16.379999 0,-9.17 7.52,-16.7 16.68,-16.7 z m -8.83,23.579999 c 1.96,1.310002 1.96,1.310002 1.96,1.310002 C -8.83,27.84 -8.83,27.84 -8.83,27.84 Z M -9.49,22.6 c -0.32,0 -0.65,0.33 -0.65,0.65 0,5.9 0,5.9 0,5.9 0,0.33 0,0.33 0.33,0.659999 0.32,0 0.65,0 0.65,0 3.6,-2.949998 3.6,-2.949998 3.6,-2.949998 0.33,-0.33 0.33,-0.33 0.33,-0.66 0,-0.33 0,-0.33 -0.33,-0.650002 C -9.16,22.93 -9.16,22.93 -9.16,22.93 -9.16,22.6 -9.49,22.6 -9.49,22.6 Z m 0.66,-5.899999 C -6.87,18.01 -6.87,18.01 -6.87,18.01 c -1.96,1.31 -1.96,1.31 -1.96,1.31 z m 19.3,-0.650002 C 12.43,18.01 12.43,18.01 12.43,18.01 c -1.96,1.97 -1.96,1.97 -1.96,1.97 z M -9.49,14.41 c -0.32,0 -0.65,0.33 -0.65,0.66 0,5.889999 0,5.889999 0,5.889999 0,0.330002 0,0.330002 0.33,0.660002 0.32,0 0.65,0 0.65,-0.33 C -5.56,18.67 -5.56,18.67 -5.56,18.67 c 0.33,-0.33 0.33,-0.33 0.33,-0.66 0,-0.319999 0,-0.319999 -0.33,-0.649999 C -9.16,14.74 -9.16,14.74 -9.16,14.74 c 0,-0.33 -0.33,-0.33 -0.33,-0.33 z m 5.24,-5.57 c 0,1.31 0,1.31 0,1.31 5.56,0 5.56,0 5.56,0 0,7.210001 0,7.210001 0,7.210001 -5.56,0 -5.56,0 -5.56,0 0,1.309999 0,1.309999 0,1.309999 5.56,0 5.56,0 5.56,0 0,7.200001 0,7.200001 0,7.200001 -5.56,0 -5.56,0 -5.56,0 0,1.32 0,1.32 0,1.32 6.21,0 6.21,0 6.21,0 0.33,0 0.66,-0.33 0.66,-0.66 0,-7.860001 0,-7.860001 0,-7.860001 6.54,0 6.54,0 6.54,0 0,2.950001 0,2.950001 0,2.950001 0,0.32 0.33,0.649999 0.33,0.649999 0.32,0 0.65,0 0.98,-0.329999 C 14.07,18.34 14.07,18.34 14.07,18.34 c 0,0 0,-0.649999 0,-0.979999 C 10.47,13.76 10.47,13.76 10.47,13.76 c -0.33,0 -0.66,0 -0.98,0 0,0 -0.33,0.32 -0.33,0.65 0,2.950001 0,2.950001 0,2.950001 -6.54,0 -6.54,0 -6.54,0 C 2.62,9.5 2.62,9.5 2.62,9.5 2.62,9.17 2.29,8.84 1.96,8.84 Z M -8.83,8.19 c 1.96,1.63 1.96,1.63 1.96,1.63 -1.96,1.31 -1.96,1.31 -1.96,1.31 z M -9.49,6.22 c -0.32,0 -0.65,0.33 -0.65,0.66 0,5.89 0,5.89 0,5.89 0,0 0,0.33 0.33,0.33 0.32,0.33 0.65,0.33 0.65,0 3.6,-2.95 3.6,-2.95 3.6,-2.95 0.33,0 0.33,-0.33 0.33,-0.33 0,-0.32 0,-0.32 -0.33,-0.65 -3.6,-2.95 -3.6,-2.95 -3.6,-2.95 0,0 -0.33,0 -0.33,0 z"
         style="fill:#5a30b5;fill-opacity:1;fill-rule:nonzero;stroke:none"
         id="path8589" /></g><text
       xml:space="preserve"
       transform="scale(0.9993121,1.0006884)"
       style="font-style:normal;font-variant:normal;font-weight:normal;font-stretch:normal;font-size:2.19403px;font-family:Arial;-inkscape-font-specification:'Arial, Normal';font-variant-ligatures:normal;font-variant-caps:normal;font-variant-numeric:normal;font-variant-east-asian:normal;writing-mode:lr-tb;fill:#000000;fill-opacity:1;fill-rule:nonzero;stroke:none;stroke-width:0.00634325"
       id="text8595"
       x="65.904678"
       y="124.44641"><tspan
         x="65.904678 67.380455 68.877014 70.186501 70.768501 72.431343 73.532982 74.156548 75.258186 76.754745 77.897949"
         y="124.44641"
         sodipodi:role="line"
         id="tspan8593"
         style="font-style:normal;font-variant:normal;font-weight:normal;font-stretch:normal;font-size:2.19403px;font-family:Arial;-inkscape-font-specification:'Arial, Normal';font-variant-ligatures:normal;font-variant-caps:normal;font-variant-numeric:normal;font-variant-east-asian:normal;stroke-width:0.00634325">NAT Gateway</tspan></text><g
       id="g8599"
       clip-path="url(#clipPath8603)"
       transform="matrix(0.26458333,0,0,0.26458333,-19.739763,-68.802471)"><g
         id="g8605"><path
           d="M 298.25,783.90997 H 401.94 V 906.41998 H 298.25 Z"
           style="fill:#e9f3e6;fill-opacity:1;fill-rule:nonzero;stroke:none"
           id="path8607" /></g><g
         id="g8609"
         transform="translate(310.03,796.69)"><path
           d="m 0,0 c 0,0 0,0 0,0 0.33,0 0.65,0 0.98,0.32 0,0.33 0.33,0.66 0.33,0.66 0,0.33 -0.33,0.65 -0.33,0.98 C 0.65,2.29 0.33,2.29 0,2.29 c -0.33,0 -0.98,0 -0.98,-0.66 -0.33,-0.32 -0.33,-0.65 0,-0.98 C -0.98,0.32 -0.66,0 0,0 Z m 0,-0.66 c -0.98,0 -1.64,0.66 -1.96,1.64 0,0.98 0.65,1.96 1.63,1.96 0,2.62 0,2.62 0,2.62 0.66,0 0.66,0 0.66,0 0,-2.62 0,-2.62 0,-2.62 0.98,0 1.63,-0.98 1.63,-1.96 C 1.96,0 0.98,-0.66 0,-0.66 Z m -5.89,-2.29 c 11.78,0 11.78,0 11.78,0 0,10.15 0,10.15 0,10.15 -11.78,0 -11.78,0 -11.78,0 z M 0,-9.18 c 0.98,0 1.63,0.33 2.29,0.99 0.65,0.65 0.98,1.64 0.98,2.29 0,2.29 0,2.29 0,2.29 -6.54,0 -6.54,0 -6.54,0 0,-2.29 0,-2.29 0,-2.29 0,-0.98 0.32,-1.64 0.98,-2.29 0.65,-0.66 1.31,-0.99 2.29,-0.99 z m 0,-0.65 c -0.98,0 -1.96,0.65 -2.95,1.31 -0.65,0.65 -0.98,1.64 -0.98,2.62 0,2.29 0,2.29 0,2.29 -2.29,0 -2.29,0 -2.29,0 0,0 0,0 -0.32,0.33 0,0 0,0 0,0 0,10.81 0,10.81 0,10.81 0,0 0.32,0.33 0.32,0.33 12.43,0 12.43,0 12.43,0 0.33,0 0.33,-0.33 0.33,-0.33 0,-10.81 0,-10.81 0,-10.81 0,0 0,0 0,0 0,-0.33 -0.33,-0.33 -0.33,-0.33 -1.96,0 -1.96,0 -1.96,0 0,-2.29 0,-2.29 0,-2.29 C 4.25,-6.88 3.6,-7.87 2.94,-8.52 2.29,-9.18 0.98,-9.83 0,-9.83 Z m -11.78,-2.95 c 23.55,0 23.55,0 23.55,0 0,23.59 0,23.59 0,23.59 -23.55,0 -23.55,0 -23.55,0 z"
           style="fill:#248814;fill-opacity:1;fill-rule:nonzero;stroke:none"
           id="path8611" /></g></g><text
       xml:space="preserve"
       transform="scale(0.9993121,1.0006884)"
       style="font-style:normal;font-variant:normal;font-weight:normal;font-stretch:normal;font-size:2.19403px;font-family:Arial;-inkscape-font-specification:'Arial, Normal';font-variant-ligatures:normal;font-variant-caps:normal;font-variant-numeric:normal;font-variant-east-asian:normal;writing-mode:lr-tb;fill:#248814;fill-opacity:1;fill-rule:nonzero;stroke:none;stroke-width:0.00634325"
       id="text8617"
       x="67.218361"
       y="142.89133"><tspan
         x="67.218361 68.569427 69.712631 70.855835 71.292336 71.708046 72.768112 73.370895 74.368599 75.511803 76.655014 77.756645 78.920639 79.50264 80.105415"
         y="142.89133"
         sodipodi:role="line"
         id="tspan8615"
         style="font-style:normal;font-variant:normal;font-weight:normal;font-stretch:normal;font-size:2.19403px;font-family:Arial;-inkscape-font-specification:'Arial, Normal';font-variant-ligatures:normal;font-variant-caps:normal;font-variant-numeric:normal;font-variant-east-asian:normal;stroke-width:0.00634325">Public subnet 2</tspan></text><text
       xml:space="preserve"
       transform="scale(0.9993121,1.0006884)"
       style="font-style:normal;font-variant:normal;font-weight:normal;font-stretch:normal;font-size:2.19403px;font-family:Arial;-inkscape-font-specification:'Arial, Normal';font-variant-ligatures:normal;font-variant-caps:normal;font-variant-numeric:normal;font-variant-east-asian:normal;writing-mode:lr-tb;fill:#248814;fill-opacity:1;fill-rule:nonzero;stroke:none;stroke-width:0.00634325"
       id="text8623"
       x="67.218361"
       y="146.36044"><tspan
         x="67.218361 68.32 69.463203 70.065987 71.20919 71.791191 72.934395 73.537178 74.680382 75.262383 76.364014"
         y="146.36044"
         sodipodi:role="line"
         id="tspan8621"
         style="font-style:normal;font-variant:normal;font-weight:normal;font-stretch:normal;font-size:2.19403px;font-family:Arial;-inkscape-font-specification:'Arial, Normal';font-variant-ligatures:normal;font-variant-caps:normal;font-variant-numeric:normal;font-variant-east-asian:normal;stroke-width:0.00634325">10.0.2.0/24</tspan></text><g
       id="g8627"
       clip-path="url(#clipPath8631)"
       transform="matrix(0.26458333,0,0,0.26458333,72.673903,153.86028)"><path
         d="m 0,0 c -10.14,0 -17.99,8.19 -17.99,18.02 0,9.82 7.85,18.009999 17.99,18.009999 C 9.81,36.029999 17.66,27.84 17.66,18.02 17.66,8.19 9.81,0 0,0 Z m 0,1.31 c 9.16,0 16.360001,7.54 16.360001,16.71 C 16.360001,27.190001 9.16,34.400002 0,34.400002 -9.16,34.400002 -16.68,27.190001 -16.68,18.02 -16.68,8.85 -9.16,1.31 0,1.31 Z M -8.83,24.9 c 1.96,1.309999 1.96,1.309999 1.96,1.309999 C -8.83,27.52 -8.83,27.52 -8.83,27.52 Z m -0.66,-2.3 c -0.32,0 -0.65,0.33 -0.65,0.66 0,5.89 0,5.89 0,5.89 0,0.33 0,0.33 0.33,0.659999 0.32,0 0.65,0 0.65,-0.329999 3.6,-2.619999 3.6,-2.619999 3.6,-2.619999 0.33,-0.33 0.33,-0.33 0.33,-0.650002 0,-0.33 0,-0.33 -0.33,-0.66 C -9.16,22.93 -9.16,22.93 -9.16,22.93 -9.16,22.6 -9.49,22.6 -9.49,22.6 Z m 0.66,-6.220001 C -6.87,18.02 -6.87,18.02 -6.87,18.02 c -1.96,1.31 -1.96,1.31 -1.96,1.31 z m 19.3,-0.33 C 12.43,18.02 12.43,18.02 12.43,18.02 c -1.96,1.96 -1.96,1.96 -1.96,1.96 z M -9.49,14.41 c -0.32,0 -0.65,0.33 -0.65,0.66 0,5.899999 0,5.899999 0,5.899999 0,0 0,0.320002 0.33,0.650002 0.32,0 0.65,0 0.65,-0.33 C -5.56,18.67 -5.56,18.67 -5.56,18.67 c 0.33,-0.32 0.33,-0.65 0.33,-0.65 0,-0.329999 0,-0.329999 -0.33,-0.659999 C -9.16,14.41 -9.16,14.41 -9.16,14.41 c 0,0 -0.33,0 -0.33,0 z m 5.24,-5.56 c 0,1.31 0,1.31 0,1.31 5.56,0 5.56,0 5.56,0 0,7.200001 0,7.200001 0,7.200001 -5.56,0 -5.56,0 -5.56,0 0,1.309999 0,1.309999 0,1.309999 5.56,0 5.56,0 5.56,0 0,7.209999 0,7.209999 0,7.209999 -5.56,0 -5.56,0 -5.56,0 0,1.310002 0,1.310002 0,1.310002 6.21,0 6.21,0 6.21,0 0.33,0 0.66,-0.33 0.66,-0.66 0,-7.860001 0,-7.860001 0,-7.860001 6.54,0 6.54,0 6.54,0 0,2.950001 0,2.950001 0,2.950001 0,0.33 0.33,0.66 0.33,0.66 0.32,0 0.65,0 0.98,-0.33 C 14.07,18.35 14.07,18.35 14.07,18.35 c 0,0 0,-0.659999 0,-0.989999 C 10.47,13.76 10.47,13.76 10.47,13.76 c -0.33,0 -0.66,0 -0.98,0 0,0 -0.33,0.33 -0.33,0.65 0,2.950001 0,2.950001 0,2.950001 -6.54,0 -6.54,0 -6.54,0 C 2.62,9.5 2.62,9.5 2.62,9.5 2.62,8.85 2.29,8.85 1.96,8.85 Z M -8.83,8.19 c 1.96,1.64 1.96,1.64 1.96,1.64 -1.96,1.31 -1.96,1.31 -1.96,1.31 z M -9.49,6.23 c -0.32,0 -0.65,0.32 -0.65,0.65 0,5.57 0,5.57 0,5.57 0,0.33 0,0.65 0.33,0.65 0.32,0.33 0.65,0.33 0.65,0 3.6,-2.94 3.6,-2.94 3.6,-2.94 0.33,0 0.33,-0.33 0.33,-0.33 0,-0.33 0,-0.66 -0.33,-0.66 -3.6,-2.94 -3.6,-2.94 -3.6,-2.94 0,0 -0.33,0 -0.33,0 z"
         style="fill:#5a30b5;fill-opacity:1;fill-rule:nonzero;stroke:none"
         id="path8633" /></g><text
       xml:space="preserve"
       transform="scale(0.9993121,1.0006884)"
       style="font-style:normal;font-variant:normal;font-weight:normal;font-stretch:normal;font-size:2.19403px;font-family:Arial;-inkscape-font-specification:'Arial, Normal';font-variant-ligatures:normal;font-variant-caps:normal;font-variant-numeric:normal;font-variant-east-asian:normal;writing-mode:lr-tb;fill:#000000;fill-opacity:1;fill-rule:nonzero;stroke:none;stroke-width:0.00634325"
       id="text8639"
       x="66.159676"
       y="166.3271"><tspan
         x="66.159676 67.635452 69.132011 70.441505 71.023499 72.68634 73.787979 74.411545 75.513184 77.009743 78.111382"
         y="166.3271"
         sodipodi:role="line"
         id="tspan8637"
         style="font-style:normal;font-variant:normal;font-weight:normal;font-stretch:normal;font-size:2.19403px;font-family:Arial;-inkscape-font-specification:'Arial, Normal';font-variant-ligatures:normal;font-variant-caps:normal;font-variant-numeric:normal;font-variant-east-asian:normal;stroke-width:0.00634325">NAT Gateway</tspan></text><g
       id="g8643"
       clip-path="url(#clipPath8647)"
       transform="matrix(0.26458333,0,0,0.26458333,-19.739763,-68.802471)"><path
         d="M 419.28,661.40002 H 504 v 75.33997 h -84.72 z"
         style="fill:none;stroke:#dd3522;stroke-width:0.981;stroke-linecap:butt;stroke-linejoin:miter;stroke-miterlimit:4;stroke-dasharray:none;stroke-opacity:1"
         id="path8649" /></g><text
       xml:space="preserve"
       transform="scale(0.99929136,1.0007091)"
       style="font-style:normal;font-variant:normal;font-weight:normal;font-stretch:normal;font-size:2.19403px;font-family:Arial;-inkscape-font-specification:'Arial, Normal';font-variant-ligatures:normal;font-variant-caps:normal;font-variant-numeric:normal;font-variant-east-asian:normal;writing-mode:lr-tb;fill:#dd3522;fill-opacity:1;fill-rule:nonzero;stroke:none;stroke-width:0.00951481"
       id="text8655"
       x="92.72084"
       y="110.48728"><tspan
         x="92.72084 94.809776 96.524574 98.114655 99.829453 100.85833 101.54425 102.41724 103.97614 104.84914 106.56393 107.62399 109.33878 111.05358"
         y="110.48728"
         sodipodi:role="line"
         id="tspan8653"
         style="font-style:normal;font-variant:normal;font-weight:normal;font-stretch:normal;font-size:2.19403px;font-family:Arial;-inkscape-font-specification:'Arial, Normal';font-variant-ligatures:normal;font-variant-caps:normal;font-variant-numeric:normal;font-variant-east-asian:normal;stroke-width:0.00951481">Security group</tspan></text><g
       id="g8659"
       clip-path="url(#clipPath8663)"
       transform="matrix(0.26458333,0,0,0.26458333,-19.739763,-68.802471)"><g
         id="g8665"><path
           d="m 467.04001,721.02002 c 1.95999,0.97998 3.91998,1.63995 5.88,1.31 2.28998,0.32995 4.25998,-0.33002 6.22,-1.31 0,2.61999 0,2.61999 0,2.61999 0,0.65998 -2.29,1.96998 -6.22,1.96998 -3.59002,0 -5.88,-1.31 -5.88,-1.96998 z m 0,-5.23999 c 1.95999,0.97998 3.91998,1.31 5.88,1.31 2.28998,0 4.25998,-0.33002 6.22,-1.31 0,3.26996 0,3.26996 0,3.26996 0,0.66003 -2.29,1.97003 -6.22,1.97003 -3.59002,0 -5.88,-1.31 -5.88,-1.97003 z m 0,-5.24005 c 1.95999,0.98004 3.91998,1.31 5.88,1.31 2.28998,0 4.25998,-0.32996 6.22,-1.31 0,3.27002 0,3.27002 0,3.27002 0,0.65997 -2.29,1.97003 -6.22,1.97003 0,0 0,0 0,0 -3.59002,0 -5.88,-1.31006 -5.88,-1.97003 z m 5.88,-4.25995 c 3.93,0 6.22,1.31 6.22,1.96997 0,0.65002 -2.29,1.96002 -6.22,1.96002 -3.59002,0 -5.88,-1.31 -5.88,-1.96002 0,-0.65997 2.28998,-1.96997 5.88,-1.96997 z m 0,-1.31006 c -3.59002,0 -7.52002,0.98004 -7.52002,3.28003 0,15.39001 0,15.39001 0,15.39001 0,2.28998 3.93,3.59998 7.52002,3.59998 3.93,0 7.53,-1.31 7.53,-3.59998 0,-15.39001 0,-15.39001 0,-15.39001 0,-2.29999 -3.6,-3.28003 -7.53,-3.28003 z m -18.64001,0 c 0.32999,0 0.64999,0 0.98001,0.65003 0.32999,0.33001 0.32999,0.98999 0.32999,1.64001 0,0 0,0 0,0 0,0.65997 0,1.31 -0.32999,1.96997 -0.33002,0.33002 -0.65002,0.33002 -0.98001,0.33002 -0.65,0 -0.65,0 -0.65,0 0,-4.59003 0,-4.59003 0,-4.59003 z m -5.88999,0 c 0.65998,0 0.65998,0 0.65998,0 0.32001,0 0.32001,0 0.65002,0.33002 0,0 0,0.32001 0,0.65002 0,0.33002 0,0.65998 0,0.97998 -0.33001,0 -0.33001,0.33002 -0.65002,0.33002 -0.65998,0 -0.65998,0 -0.65998,0 z m -1.31002,-0.97998 c 0,6.54999 0,6.54999 0,6.54999 1.31002,0 1.31002,0 1.31002,0 0,-2.28998 0,-2.28998 0,-2.28998 0.65998,0 0.65998,0 0.65998,0 0.98001,2.28998 0.98001,2.28998 0.98001,2.28998 1.63,0.33001 1.63,0.33001 1.63,0.33001 -1.63,-2.95001 -1.63,-2.95001 -1.63,-2.95001 0.32001,0 0.64999,-0.32995 0.98001,-0.65997 0,-0.33002 0.32999,-0.65002 0,-1.31 0.32999,-0.33001 0,-0.98004 -0.33002,-1.64001 -0.32998,-0.32001 -0.97998,-0.32001 -1.63,-0.32001 z m 7.53,0 c 0,0 -0.32999,0 -0.32999,0 -1.95999,0 -1.95999,0 -1.95999,0 0,6.54999 0,6.54999 0,6.54999 1.95999,0 1.95999,0 1.95999,0 0.98001,0 1.64001,0 1.95999,-0.65998 0.66,-0.97998 0.66,-1.63 0.66,-2.61999 0,-0.97998 0,-1.64001 -0.66,-2.62 -0.31998,-0.33001 -0.97998,-0.65002 -1.63,-0.65002 z m 5.23001,-0.33002 c -0.32999,0 -0.65,0 -0.98001,0.33002 -0.32999,0 -0.65,0.32001 -0.97999,0.65002 0,0.32996 -0.33001,0.65998 -0.33001,0.97999 0,0.33001 0.33001,0.98999 0.33001,1.30999 0.32999,0.33002 0.65,0.66004 1.31,0.66004 0.32001,0.32995 0.32001,0.32995 0.32001,0.32995 0.32999,0 0.66,0.33002 0.66,0.33002 0.31998,0.32001 0.31998,0.97998 0,1.31 -0.33001,0 -0.66,0.32 -0.66,0.32 -0.32001,0 -0.65002,-0.32 -0.98001,-0.32 -0.32001,0 -0.32001,0 -0.65,0 0,0.97998 0,0.97998 0,0.97998 0,0 0.32999,0 0.65,0.33001 0.32999,0 0.66,0 0.98001,0 0.66,0 0.97998,-0.33001 1.63998,-0.65997 0.33002,-0.33002 0.65,-0.98004 0.65,-1.31 0,-0.33001 0,-0.65002 -0.31998,-0.98004 0,0 -0.33002,-0.32995 -0.33002,-0.65997 -0.32998,0 -0.66,-0.33002 -0.97998,-0.33002 -0.33001,-0.32 -0.33001,-0.32 -0.33001,-0.32 -0.32999,-0.32996 -0.65,-0.32996 -0.65,-0.65998 0,0 0,0 0,-0.33001 0,-0.32001 0,-0.32001 0,-0.65003 0.32001,0 0.32001,0 0.65,0 0.64999,0 0.98001,0 1.64001,0.33002 0,-1.31 0,-1.31 0,-1.31 -0.66,0 -1.31,-0.33002 -1.64001,-0.33002 z m 1.64001,-4.90997 c 0,0 0,0 0,0 0,0 0.31998,0 0.31998,0 0,0.97998 0,0.97998 0,0.97998 0,0.33002 -0.31998,0.33002 -0.65,0.33002 0,0 0,0 -0.32998,-0.33002 0,0 0,0 0,-0.32996 0,0 0,-0.33001 0.32998,-0.65002 0,0 0,0 0.33002,0 z m 8.5,-1.96997 c 0.32999,0 0.64999,0 0.64999,0.32996 0,0.33001 0.32999,0.98004 0,1.30999 0.32999,0.33002 0,0.65003 0,1.31 0,0 -0.32,0.33002 -0.64999,0.33002 0,0 -0.33002,-0.33002 -0.33002,-0.33002 -0.32,-0.65997 -0.32,-0.97998 -0.32,-1.31 0,-0.32995 0,-0.97998 0.32,-1.30999 0,-0.32996 0.33002,-0.32996 0.33002,-0.32996 z M 464.09,695.79999 c 0,0.98004 0,0.98004 0,0.98004 1.97,0 1.97,0 1.97,0 -1.97,3.27997 -1.97,3.27997 -1.97,3.27997 0,0.97998 0,0.97998 0,0.97998 3.26999,-0.32996 3.26999,-0.32996 3.26999,-0.32996 0,-0.98004 0,-0.98004 0,-0.98004 -1.96,0 -1.96,0 -1.96,0 1.96,-2.94995 1.96,-2.94995 1.96,-2.94995 0,-0.98004 0,-0.98004 0,-0.98004 z m -9.16001,0 c -0.32,0 -0.97998,0 -1.29999,0.65002 -0.33001,-0.65002 -0.33001,-0.65002 -0.33001,-0.65002 -0.97998,0 -0.97998,0 -0.97998,0 0,5.23999 0,5.23999 0,5.23999 1.30999,0 1.30999,0 1.30999,0 0,-3.92999 0,-3.92999 0,-3.92999 0.32001,-0.32996 0.32001,-0.32996 0.65,-0.32996 0.32999,0 0.32999,0 0.32999,0.32996 0.32,0 0.32,0.33001 0.32,0.33001 0,3.27002 0,3.27002 0,3.27002 1.31,0 1.31,0 1.31,0 0,-3.60003 0,-3.60003 0,-3.60003 0,0 0,0 0,0 0,-0.32996 0.33002,-0.32996 0.66,-0.32996 0,0 0.32001,0 0.32001,0.32996 0,0 0,0.33001 0,0.33001 0,3.59998 0,3.59998 0,3.59998 1.31,-0.32996 1.31,-0.32996 1.31,-0.32996 0,-3.60003 0,-3.60003 0,-3.60003 0.32999,-0.32996 0,-0.65998 0,-0.97999 -0.32001,-0.33001 -0.65,-0.33001 -0.98001,-0.33001 -0.65,0 -0.97998,0.33001 -1.62998,0.65002 0,-0.65002 -0.33001,-0.65002 -0.99002,-0.65002 z m 20.94001,0 c 0,0 0,0 0,0 -0.66001,0 -1.31,0 -1.63999,0.65002 0,-0.65002 0,-0.65002 0,-0.65002 -1.31,0 -1.31,0 -1.31,0 0,5.23999 0,5.23999 0,5.23999 1.63999,0 1.63999,0 1.63999,0 0,-3.92999 0,-3.92999 0,-3.92999 0,-0.32996 0.33001,-0.32996 0.64999,-0.32996 0,0 0.33002,0 0.33002,0.32996 0,0 0,0.33001 0,0.33001 0,3.59998 0,3.59998 0,3.59998 1.31,0 1.31,0 1.31,0 0,-3.92999 0,-3.92999 0,-3.92999 0,-0.32996 0,-0.65998 -0.33002,-0.97999 0,-0.33001 -0.31998,-0.33001 -0.64999,-0.33001 z m -14.07001,0 c 0,0 -0.31998,0 -0.31998,0 -0.33002,0 -0.66,0 -0.99002,0 0,0 -0.31998,0.33001 -0.64999,0.33001 0,0.97999 0,0.97999 0,0.97999 0.64999,-0.32996 0.98001,-0.32996 1.64001,-0.32996 0,0 0.31998,0 0.31998,0 0,0.32996 0,0.65997 0,0.65997 0,0.65003 0,0.65003 0,0.65003 0,0 -0.31998,0 -0.65,0 -0.32998,-0.33002 -0.66,0 -0.97998,0.32995 -0.33001,0.33002 -0.66,0.65003 -0.66,0.98004 0,0.65998 0.32999,0.97998 0.32999,1.31 0.33001,0.32996 0.64999,0.32996 0.98001,0.32996 0.32998,0 0.66,0 0.66,-0.32996 0.31998,0 0.31998,0 0.64999,-0.33002 0,0.65998 0,0.65998 0,0.65998 0.97999,0 0.97999,0 0.97999,0 0,-3.59998 0,-3.59998 0,-3.59998 0,-0.65997 0,-0.98999 -0.32999,-1.31 -0.32001,-0.33001 -0.65,-0.33001 -0.98001,-0.33001 z m 8.51001,0 c -0.66001,0 -1.31,0 -1.63999,0.65002 -0.32,0.65998 -0.65002,1.31 -0.65002,1.96997 0,0.65003 0.33002,1.31 0.65002,1.96002 0.32999,0.33002 0.97998,0.65998 1.31,0.65998 0.64999,0 1.31,-0.32996 1.63999,-0.65998 0.32,-0.65002 0.64999,-1.30999 0.64999,-1.96002 0,-0.65997 -0.32999,-1.30999 -0.64999,-1.96997 -0.32999,-0.32001 -0.99,-0.65002 -1.31,-0.65002 z m -21.26001,-0.33002 c 0.65002,2.95001 0.65002,2.95001 0.65002,2.95001 -1.31,0 -1.31,0 -1.31,0 z m -0.65998,-1.31 c -1.96002,6.88001 -1.96002,6.88001 -1.96002,6.88001 1.31,0 1.31,0 1.31,0 0.65002,-1.63996 0.65002,-1.63996 0.65002,-1.63996 1.31,0 1.31,0 1.31,0 0.65,1.63996 0.65,1.63996 0.65,1.63996 1.30999,0 1.30999,0 1.30999,0 -1.95999,-6.88001 -1.95999,-6.88001 -1.95999,-6.88001 z m -0.65002,-4.58996 c -1.31,0 -2.61999,0.65997 -3.59998,1.64001 -0.65002,0.65997 -1.31002,1.96997 -1.31002,3.27997 0,27.84003 0,27.84003 0,27.84003 0,1.30999 0.66,2.61999 1.31002,3.59997 0.97999,0.98999 2.28998,1.31 3.59998,1.31 17.66,0 17.66,0 17.66,0 0,-1.31 0,-1.31 0,-1.31 -17.66,0 -17.66,0 -17.66,0 -1.95999,0 -3.26999,-1.63 -3.26999,-3.59997 0,-27.84003 0,-27.84003 0,-27.84003 0,-1.96997 1.31,-3.27997 3.26999,-3.27997 27.80002,0 27.80002,0 27.80002,0 1.95999,0 3.6,1.31 3.6,3.27997 0,11.13001 0,11.13001 0,11.13001 1.31,0 1.31,0 1.31,0 0,-11.13001 0,-11.13001 0,-11.13001 0,-1.31 -0.33001,-2.62 -1.31,-3.27997 -0.98001,-0.98004 -2.29,-1.64001 -3.6,-1.64001 z"
           style="fill:#3334b9;fill-opacity:1;fill-rule:nonzero;stroke:none"
           id="path8667" /></g><g
         id="g8669"><path
           d="m 420.26001,821.58002 h 84.72 V 897.25 h -84.72 z"
           style="fill:none;stroke:#dd3522;stroke-width:0.981;stroke-linecap:butt;stroke-linejoin:miter;stroke-miterlimit:4;stroke-dasharray:none;stroke-opacity:1"
           id="path8671" /></g></g><text
       xml:space="preserve"
       transform="scale(0.99929136,1.0007091)"
       style="font-style:normal;font-variant:normal;font-weight:normal;font-stretch:normal;font-size:2.19403px;font-family:Arial;-inkscape-font-specification:'Arial, Normal';font-variant-ligatures:normal;font-variant-caps:normal;font-variant-numeric:normal;font-variant-east-asian:normal;writing-mode:lr-tb;fill:#dd3522;fill-opacity:1;fill-rule:nonzero;stroke:none;stroke-width:0.00951481"
       id="text8677"
       x="92.974884"
       y="152.87482"><tspan
         x="92.974884 95.06382 96.778618 98.368706 100.05232 101.11238 101.79829 102.67129 104.23019 105.10318 106.81798 107.84686 109.59283 111.30762"
         y="152.87482"
         sodipodi:role="line"
         id="tspan8675"
         style="font-style:normal;font-variant:normal;font-weight:normal;font-stretch:normal;font-size:2.19403px;font-family:Arial;-inkscape-font-specification:'Arial, Normal';font-variant-ligatures:normal;font-variant-caps:normal;font-variant-numeric:normal;font-variant-east-asian:normal;stroke-width:0.00951481">Security group</tspan></text><g
       id="g8681"
       clip-path="url(#clipPath8685)"
       transform="matrix(0.26458333,0,0,0.26458333,-19.739763,-68.802471)"><g
         id="g8687"><path
           d="m 468.01999,881.52002 c 1.96002,0.98999 3.92001,1.31 5.89001,1.31 2.29001,0 4.25,-0.32001 6.21,-1.31 0,2.61999 0,2.61999 0,2.61999 0,0.65998 -2.29001,1.96998 -6.21,1.96998 -3.92999,0 -5.89001,-1.31 -5.89001,-1.96998 z m 0,-5.23999 c 1.96002,0.98999 3.92001,1.31 5.89001,1.31 2.29001,0 4.25,-0.32001 6.21,-1.31 0,2.94995 0,2.94995 0,2.94995 0,0.66003 -2.29001,1.97003 -6.21,1.97003 -3.92999,0 -5.89001,-1.31 -5.89001,-1.97003 z m 0,-5.57001 c 1.96002,0.98999 3.92001,1.63996 5.89001,1.32001 2.29001,0.31995 4.25,-0.33002 6.21,-1.32001 0,3.27997 0,3.27997 0,3.27997 0,0.66003 -2.29001,1.97003 -6.21,1.97003 0,0 0,0 0,0 -3.92999,0 -5.89001,-1.31 -5.89001,-1.97003 z m 5.89001,-3.92999 c 3.91999,0 6.21,1.31 6.21,1.96997 0,0.65002 -2.29001,1.96002 -6.21,1.96002 -3.92999,0 -5.89001,-1.31 -5.89001,-1.96002 0,-0.65997 1.96002,-1.96997 5.89001,-1.96997 z m 0,-1.63001 c -3.6,0 -7.53,1.31 -7.53,3.59998 0,15.39001 0,15.39001 0,15.39001 0,2.29999 3.93,3.27997 7.53,3.27997 3.91999,0 7.51999,-0.97998 7.51999,-3.27997 0,-15.39001 0,-15.39001 0,-15.39001 0,-2.28998 -3.6,-3.59998 -7.51999,-3.59998 z m -18.64999,0 c 0.32999,0 0.66,0.31995 0.97998,0.64997 0,0.66003 0.33002,0.98004 0.33002,1.64001 0,0.33002 0,0.33002 0,0.33002 0,0.64996 -0.33002,0.97998 -0.33002,1.63 -0.31998,0.32996 -0.64999,0.65998 -0.97998,0.65998 -0.65002,0 -0.65002,0 -0.65002,0 0,-4.90998 0,-4.90998 0,-4.90998 z m -5.89001,0 c 0.66,0 0.66,0 0.66,0 0.32001,0 0.32001,0.31995 0.64999,0.31995 0,0.33002 0,0.66003 0,0.99005 0,0.32001 0,0.32001 0,0.64997 -0.32998,0.33001 -0.32998,0.33001 -0.64999,0.33001 -0.66,0 -0.66,0 -0.66,0 z m -1.31,-0.99005 c 0,6.88001 0,6.88001 0,6.88001 1.31,0 1.31,0 1.31,0 0,-2.62 0,-2.62 0,-2.62 0.66,0 0.66,0 0.66,0 0.98001,2.62 0.98001,2.62 0.98001,2.62 1.31,0 1.31,0 1.31,0 -1.31,-2.62 -1.31,-2.62 -1.31,-2.62 0.32999,-0.32995 0.64999,-0.64996 0.97998,-0.97998 0,-0.33001 0,-0.65997 0,-0.97998 0,-0.66003 0,-1.31 -0.32999,-1.64001 -0.32,-0.33002 -0.98001,-0.66004 -1.63,-0.66004 z m 7.53,0 c -0.32999,0 -0.32999,0 -0.32999,0 -1.96002,0 -1.96002,0 -1.96002,0 0,6.88001 0,6.88001 0,6.88001 1.96002,0 1.96002,0 1.96002,0 0.66,0 1.63998,-0.32996 1.95999,-0.97998 0.32999,-0.65998 0.66,-1.64002 0.66,-2.62 0,-0.65997 -0.33001,-1.64001 -0.66,-2.28998 -0.32001,-0.66003 -0.98001,-0.99005 -1.63,-0.99005 z m 5.23001,0 c -0.33002,0 -0.98001,0 -1.31,0 -0.32001,0.33002 -0.32001,0.66004 -0.65002,0.99005 0,0.31995 -0.32999,0.64997 -0.32999,0.97998 0,0.33002 0.32999,0.65003 0.32999,0.97999 0.33001,0.33001 0.65002,0.66003 0.98001,0.98004 0.64999,0.32995 0.64999,0.32995 0.64999,0.32995 0.33002,0 0.33002,0 0.66,0.33002 0.33002,0.33002 0.33002,0.65002 0,0.97998 -0.32998,0.33002 -0.66,0.33002 -0.97998,0.33002 0,0 -0.33001,0 -0.66,0 -0.32001,0 -0.65002,-0.33002 -0.65002,-0.33002 0,0.98004 0,0.98004 0,0.98004 0,0.32996 0.33001,0.32996 0.65002,0.32996 0.32999,0 0.66,0 0.97998,0 0.33002,0.33001 0.99002,0 1.64001,-0.32996 0.32999,-0.32001 0.65,-0.98004 0.65,-1.63 0,-0.33002 -0.32001,-0.33002 -0.32001,-0.66004 0,-0.32995 -0.32999,-0.64996 -0.32999,-0.64996 -0.33001,-0.33002 -0.64999,-0.33002 -0.98001,-0.66003 -0.32998,-0.32996 -0.32998,-0.32996 -0.32998,-0.32996 -0.33002,0 -0.65,0 -0.65,-0.32001 0,0 -0.33001,-0.33002 -0.33001,-0.66003 0,0 0.33001,-0.33002 0.33001,-0.33002 0.31998,-0.31995 0.31998,-0.31995 0.65,-0.31995 0.66,0 0.97998,0 1.30999,0.31995 0,-0.97998 0,-0.97998 0,-0.97998 -0.33001,-0.33002 -0.98001,-0.33002 -1.30999,-0.33002 z m 1.63998,-5.23999 c 0,0 0,0 0,0 0,0 0.32001,0 0.32001,0.33002 0,0.97998 0,0.97998 0,0.97998 0,0 -0.32001,0 -0.65,0 0,0.33002 0,0 -0.33001,0 0,0 0,-0.32001 0,-0.32001 0,-0.32995 0,-0.65997 0,-0.65997 0.33001,0 0.33001,-0.33002 0.66,-0.33002 z m 8.5,-1.95996 c 0.33002,0 0.66001,0.32001 0.66001,0.64997 0,0.33001 0,0.66003 0,0.98999 0,0.65002 0,0.98004 0,1.30999 0,0.32001 -0.32999,0.32001 -0.66001,0.32001 0,0 -0.32999,0 -0.32999,-0.32001 -0.32,-0.32995 -0.32,-0.65997 -0.32,-1.30999 0,-0.32996 0,-0.65998 0.32,-0.98999 0,-0.32996 0,-0.64997 0.32999,-0.64997 z m -5.88998,-0.66003 c 0,0.98004 0,0.98004 0,0.98004 1.97,0 1.97,0 1.97,0 -2.29001,2.94995 -2.29001,2.94995 -2.29001,2.94995 0,0.98999 0,0.98999 0,0.98999 3.60001,0 3.60001,0 3.60001,0 0,-0.98999 0,-0.98999 0,-0.98999 -1.97001,0 -1.97001,0 -1.97001,0 1.97001,-2.94995 1.97001,-2.94995 1.97001,-2.94995 0,-0.98004 0,-0.98004 0,-0.98004 z m -9.15,-0.33002 c -0.33001,0 -0.99002,0.33002 -1.31002,0.66003 -0.32999,-0.33001 -0.32999,-0.33001 -0.32999,-0.33001 -0.98001,0 -0.98001,0 -0.98001,0 0,4.91998 0,4.91998 0,4.91998 1.31,0 1.31,0 1.31,0 0,-3.93994 0,-3.93994 0,-3.93994 0.32,0 0.32,-0.32001 0.65002,-0.32001 0.32999,0 0.32999,0.32001 0.32999,0.32001 0,0.32996 0.33001,0.32996 0.33001,0.65997 0,3.27997 0,3.27997 0,3.27997 1.29999,0 1.29999,0 1.29999,0 0,-3.93994 0,-3.93994 0,-3.93994 0,0 0,0 0,0 0,0 0.32999,-0.32001 0.66,-0.32001 0,0 0,0.32001 0.32999,0.32001 0,0.32996 0,0.32996 0,0.65997 0,3.27997 0,3.27997 0,3.27997 1.30002,0 1.30002,0 1.30002,0 0,-3.60998 0,-3.60998 0,-3.60998 0,-0.32996 0,-0.97999 -0.32001,-1.31 0,0 -0.33001,-0.33002 -0.66,-0.33002 -0.65,0 -0.98001,0.33002 -1.63001,0.66003 0,-0.33001 -0.32998,-0.66003 -0.97998,-0.66003 z m 20.93,0 c 0,0 0,0 0,0 -0.65,0 -1.31,0.33002 -1.64002,0.66003 0,-0.33001 0,-0.33001 0,-0.33001 -1.29999,0 -1.29999,0 -1.29999,0 0,4.91998 0,4.91998 0,4.91998 1.29999,0 1.29999,0 1.29999,0 0,-3.93994 0,-3.93994 0,-3.93994 0.33002,0 0.66001,-0.32001 0.66001,-0.32001 0.33001,0 0.33001,0.32001 0.64999,0.32001 0,0.32996 0,0.32996 0,0.65997 0,3.27997 0,3.27997 0,3.27997 1.31,0 1.31,0 1.31,0 0,-3.60998 0,-3.60998 0,-3.60998 0,-0.32996 0,-0.97999 -0.32999,-1.31 0,0 -0.32001,-0.33002 -0.64999,-0.33002 z m -14.07001,0 c -0.32001,0 -0.32001,0 -0.32001,0 -0.32999,0 -0.66,0 -0.97998,0.33002 -0.33002,0 -0.33002,0 -0.66,0.33001 0,0.65003 0,0.65003 0,0.65003 0.32998,0 0.97998,-0.32001 1.30999,-0.32001 0.32999,0 0.65,0 0.65,0.32001 0,0.32996 0,0.32996 0,0.65997 0,0.33002 0,0.33002 0,0.33002 0,0 -0.32001,0 -0.65,0 -0.33001,0 -0.98001,0 -1.30999,0.32996 0,0.32 -0.33002,0.65002 -0.33002,1.30999 0,0.32001 0,0.65003 0.33002,0.98004 0.32998,0.32996 0.66,0.32996 0.97998,0.32996 0.33001,0 0.33001,0 0.66,0 0.32001,0 0.32001,-0.32996 0.65,-0.32996 0,0.32996 0,0.32996 0,0.32996 0.98001,0 0.98001,0 0.98001,0 0,-3.60998 0,-3.60998 0,-3.60998 0,-0.32996 0,-0.64997 -0.32001,-1.31 -0.32999,0 -0.66,-0.33002 -0.98999,-0.33002 z m 8.17999,0 c -0.32999,0 -0.97998,0.33002 -1.31,0.66003 C 469,857.28003 469,857.94 469,858.59998 c 0,0.65002 0,1.63 0.64999,1.96002 0.33002,0.65997 0.66001,0.65997 1.31,0.65997 0.66001,0 1.31,0 1.64002,-0.65997 0.32,-0.33002 0.64999,-1.31 0.32,-1.96002 0.32999,-0.65998 0,-1.31995 -0.32,-1.96998 -0.33002,-0.33001 -0.98001,-0.66003 -1.64002,-0.66003 z M 450.03,855.65002 c 0.64999,2.94996 0.64999,2.94996 0.64999,2.94996 -1.30999,0 -1.30999,0 -1.30999,0 z m -0.66,-1.30999 c -1.96,6.87994 -1.96,6.87994 -1.96,6.87994 1.31,0 1.31,0 1.31,0 0.32999,-1.63995 0.32999,-1.63995 0.32999,-1.63995 1.63,0 1.63,0 1.63,0 0.33002,1.63995 0.33002,1.63995 0.33002,1.63995 1.63,0 1.63,0 1.63,0 -1.96002,-6.87994 -1.96002,-6.87994 -1.96002,-6.87994 z m -0.65,-4.26001 c -1.31,0 -2.61999,0.32995 -3.6,1.30999 -0.65,0.97998 -1.31,2.28998 -1.31,3.26996 0,28.17005 0,28.17005 0,28.17005 0,1.30999 0.66,2.63 1.31,3.27997 0.98001,0.98004 2.29,1.64001 3.6,1.64001 17.66,0 17.66,0 17.66,0 0,-1.64001 0,-1.64001 0,-1.64001 -17.66,0 -17.66,0 -17.66,0 -1.95999,0 -3.26999,-1.31 -3.26999,-3.27997 0,-28.17005 0,-28.17005 0,-28.17005 0,-1.62994 1.31,-3.26996 3.26999,-3.26996 27.79999,0 27.79999,0 27.79999,0 1.97,0 3.60001,1.64002 3.60001,3.26996 0,11.14002 0,11.14002 0,11.14002 1.30999,0 1.30999,0 1.30999,0 0,-11.14002 0,-11.14002 0,-11.14002 0,-0.97998 -0.32998,-2.28998 -1.30999,-3.26996 -0.97999,-0.98004 -2.29001,-1.30999 -3.60001,-1.30999 z"
           style="fill:#3334b9;fill-opacity:1;fill-rule:nonzero;stroke:none"
           id="path8689" /></g><g
         id="g8691"><path
           d="M 463.76999,727.57001 V 844.17999"
           style="fill:none;stroke:#000000;stroke-width:0.654;stroke-linecap:butt;stroke-linejoin:miter;stroke-miterlimit:4;stroke-dasharray:none;stroke-opacity:1"
           id="path8693" /></g><g
         id="g8695"><path
           d="m 461.79999,842.86999 1.97,7.21003 1.96002,-7.21003 z"
           style="fill:#000000;fill-opacity:1;fill-rule:nonzero;stroke:none"
           id="path8697" /></g></g><text
       xml:space="preserve"
       transform="scale(0.9993121,1.0006884)"
       style="font-style:normal;font-variant:normal;font-weight:normal;font-stretch:normal;font-size:2.19403px;font-family:Arial;-inkscape-font-specification:'Arial, Normal';font-variant-ligatures:normal;font-variant-caps:normal;font-variant-numeric:normal;font-variant-east-asian:normal;writing-mode:lr-tb;fill:#000000;fill-opacity:1;fill-rule:nonzero;stroke:none;stroke-width:0.00634325"
       id="text8703"
       x="91.365227"
       y="133.07576"><tspan
         x="91.365227 92.716286 93.776352 94.877991 95.938049 97.081261 97.767181 98.86882 100.01202 100.42773 101.4878 102.09058 102.75572 103.89893 105.04213 105.47863 105.89434 106.95441 108.05604 108.65882 109.1161 110.21774"
         y="133.07576"
         sodipodi:role="line"
         id="tspan8701"
         style="font-style:normal;font-variant:normal;font-weight:normal;font-stretch:normal;font-size:2.19403px;font-family:Arial;-inkscape-font-specification:'Arial, Normal';font-variant-ligatures:normal;font-variant-caps:normal;font-variant-numeric:normal;font-variant-east-asian:normal;stroke-width:0.00634325">Synchronic replication</tspan></text></g></svg>
