<?xml version="1.0" encoding="UTF-8" standalone="no"?>
<!-- Created with Inkscape (http://www.inkscape.org/) -->

<svg
   width="74.918617mm"
   height="82.164642mm"
   viewBox="0 0 74.918617 82.164642"
   version="1.1"
   id="svg5"
   xml:space="preserve"
   xmlns:inkscape="http://www.inkscape.org/namespaces/inkscape"
   xmlns:sodipodi="http://sodipodi.sourceforge.net/DTD/sodipodi-0.dtd"
   xmlns="http://www.w3.org/2000/svg"
   xmlns:svg="http://www.w3.org/2000/svg"><sodipodi:namedview
     id="namedview7"
     pagecolor="#ffffff"
     bordercolor="#000000"
     borderopacity="0.25"
     inkscape:showpageshadow="2"
     inkscape:pageopacity="0.0"
     inkscape:pagecheckerboard="0"
     inkscape:deskcolor="#d1d1d1"
     inkscape:document-units="mm"
     showgrid="false" /><defs
     id="defs2"><clipPath
       clipPathUnits="userSpaceOnUse"
       id="clipPath6510"><path
         d="M 97.760002,666.08002 H 381.60001 V 976.64001 H 97.760002 Z"
         clip-rule="evenodd"
         id="path6508" /></clipPath><clipPath
       clipPathUnits="userSpaceOnUse"
       id="clipPath6520"><path
         d="M 97.760002,666.08002 V 976.64001 H 381.60001 V 666.08002 Z"
         clip-rule="evenodd"
         id="path6518" /></clipPath><clipPath
       clipPathUnits="userSpaceOnUse"
       id="clipPath6536"><path
         d="M 97.760002,666.08002 V 976.64001 H 381.60001 V 666.08002 Z"
         clip-rule="evenodd"
         id="path6534" /></clipPath><clipPath
       clipPathUnits="userSpaceOnUse"
       id="clipPath6558"><path
         d="M 97.760002,666.08002 V 976.64001 H 381.60001 V 666.08002 Z"
         clip-rule="evenodd"
         id="path6556" /></clipPath><clipPath
       clipPathUnits="userSpaceOnUse"
       id="clipPath6584"><path
         d="M 97.760002,666.08002 V 976.64001 H 381.60001 V 666.08002 Z"
         clip-rule="evenodd"
         id="path6582" /></clipPath><clipPath
       clipPathUnits="userSpaceOnUse"
       id="clipPath6600"><path
         d="M 97.760002,666.08002 V 976.64001 H 381.60001 V 666.08002 Z"
         clip-rule="evenodd"
         id="path6598" /></clipPath><clipPath
       clipPathUnits="userSpaceOnUse"
       id="clipPath6628"><path
         d="M -36.93,-160.59 V 149.97 H 246.91 V -160.59 Z"
         clip-rule="evenodd"
         id="path6626" /></clipPath><clipPath
       clipPathUnits="userSpaceOnUse"
       id="clipPath6650"><path
         d="M 97.760002,666.08002 V 976.64001 H 381.60001 V 666.08002 Z"
         clip-rule="evenodd"
         id="path6648" /></clipPath><clipPath
       clipPathUnits="userSpaceOnUse"
       id="clipPath6666"><path
         d="M 97.760002,666.08002 V 976.64001 H 381.60001 V 666.08002 Z"
         clip-rule="evenodd"
         id="path6664" /></clipPath><clipPath
       clipPathUnits="userSpaceOnUse"
       id="clipPath6694"><path
         d="M 97.760002,666.08002 V 976.64001 H 381.60001 V 666.08002 Z"
         clip-rule="evenodd"
         id="path6692" /></clipPath><clipPath
       clipPathUnits="userSpaceOnUse"
       id="clipPath6722"><path
         d="M -111.65,-120.85 V 189.71001 H 172.19 V -120.85 Z"
         clip-rule="evenodd"
         id="path6720" /></clipPath><clipPath
       clipPathUnits="userSpaceOnUse"
       id="clipPath6738"><path
         d="M 97.760002,666.08002 V 976.64001 H 381.60001 V 666.08002 Z"
         clip-rule="evenodd"
         id="path6736" /></clipPath><clipPath
       clipPathUnits="userSpaceOnUse"
       id="clipPath6766"><path
         d="M -112.2,-230.67 V 79.889999 H 171.64 V -230.67 Z"
         clip-rule="evenodd"
         id="path6764" /></clipPath></defs><g
     inkscape:label="Layer 1"
     inkscape:groupmode="layer"
     id="layer1"
     transform="translate(-56.218107,-82.401548)"><g
       id="g6506"
       clip-path="url(#clipPath6510)"
       transform="matrix(0.26458333,0,0,0.26458333,30.247535,-93.832117)"><path
         d="M 98.57,666.35998 H 380.89999 V 976.21002 H 98.57 Z"
         style="fill:none;stroke:#232f3e;stroke-width:0.827;stroke-linecap:butt;stroke-linejoin:miter;stroke-miterlimit:10;stroke-dasharray:none;stroke-opacity:1"
         id="path6512" /></g><g
       id="g6516"
       clip-path="url(#clipPath6520)"
       transform="matrix(0.26458333,0,0,0.26458333,30.247535,-93.832117)"><path
         d="m 98.57,666.35998 c 19.86,0 19.86,0 19.86,0 0,19.87 0,19.87 0,19.87 -19.86,0 -19.86,0 -19.86,0 z M 100.78,678.5 c -0.28,0 -0.28,0 -0.28,0.28003 2.21,1.92999 4.97,3.02997 8,3.02997 2.21,0 4.41,-0.82001 6.34,-2.20001 0.28,0 0,-0.27997 -0.27,-0.27997 -1.93,0.82995 -3.86,1.10998 -5.79,1.10998 -2.76,0 -5.52,-0.56 -8,-1.94 0,0 0,0 0,0 z m 14.61,-0.27002 c -0.55,0 -1.38,0 -1.93,0.27002 0,0.28003 0,0.28003 0,0.28003 0.55,0 1.93,-0.28003 2.21,0.27997 0.27,0.27002 -0.28,1.38 -0.55,1.92999 0,0 0.27,0.27002 0.27,0 0.83,-0.83002 1.11,-2.48999 1.11,-2.76001 -0.28,0 -0.56,0 -1.11,0 z m -12.4,-3.31 c 0,0 0,0 0.27,0 0.28,0 0.28,0 0.28,0 0.27,0 0.55,0 0.55,0 0,0.27002 0,0.27002 0,0.27002 0,0.27997 0,0.27997 0,0.54999 0,0 0,0.28003 -0.28,0.28003 0,0 -0.27,0.27997 -0.27,0.27997 -0.28,0 -0.55,0 -0.55,0 -0.28,0.27002 -0.56,0 -0.56,0 -0.27,-0.27997 -0.27,-0.27997 -0.27,-0.56 0,-0.27002 0,-0.54999 0.27,-0.54999 0.28,-0.27002 0.28,-0.27002 0.56,-0.27002 z m 8.27,-2.76001 c 0,0 0,0.27002 -0.28,0.27002 0,0 0,0 0,0 -0.83,3.59003 -0.83,3.59003 -0.83,3.59003 -0.82,-3.59003 -0.82,-3.59003 -0.82,-3.59003 0,0 0,0 -0.28,0 0,0 0,0 0,0 -0.55,0 -0.55,0 -0.55,0 0,0 -0.28,0 -0.28,0 0,0 0,0 0,0 -0.82,3.59003 -0.82,3.59003 -0.82,3.59003 -0.83,-3.59003 -0.83,-3.59003 -0.83,-3.59003 0,0 -0.28,0 -0.28,0 0,0 0,-0.27002 0,0 -0.55,0 -0.55,0 -0.55,0 -0.27,0 -0.27,0 -0.27,0 0,0 0,0.28003 0,0.28003 1.38,4.13996 1.38,4.13996 1.38,4.13996 0,0 0,0 0,0 0,0 0.27,0.27002 0.27,0.27002 0.55,-0.27002 0.55,-0.27002 0.55,-0.27002 0,0 0,0 0,0 0.28,0 0.28,0 0.28,0 0.83,-3.58997 0.83,-3.58997 0.83,-3.58997 0.82,3.58997 0.82,3.58997 0.82,3.58997 0,0 0,0 0,0 0,0 0.28,0 0.28,0 0.55,0 0.55,0 0.55,0 0,0 0,0 0,0 0,0 0.28,0 0.28,0 1.1,-4.13996 1.1,-4.13996 1.1,-4.13996 0,0 0,-0.28003 0,-0.28003 0,0 0,0 0,0 0,0 0,0 0,0 0,0 0,-0.27002 0,-0.27002 -0.55,0 -0.55,0 -0.55,0 0,0 0,0 0,0 z m 3.03,0 c 0,0 0,0 -0.28,0 -0.27,0 -0.27,0 -0.55,0 -0.27,0.27002 -0.55,0.27002 -0.55,0.27002 -0.27,0.28003 -0.27,0.28003 -0.55,0.56 0,0.27002 0,0.27002 0,0.54999 0,0.27002 0,0.55005 0.28,0.83001 0.27,0.27002 0.55,0.27002 0.82,0.54999 0.83,0.27002 0.83,0.27002 0.83,0.27002 0,0 0.28,0 0.55,0.27997 0,0 0,0 0,0.27002 0,0.28003 0,0.28003 -0.27,0.56 -0.28,0 -0.56,0 -0.83,0 0,0 -0.28,0 -0.55,0 -0.28,0 -0.28,0 -0.55,-0.27997 0,0 0,0 0,0 -0.28,0 -0.28,0 -0.28,0 0,0 0,0 0,0.27997 0,0.27002 0,0.27002 0,0.27002 0,0 0,0 0,0 0,0.27997 0,0.27997 0,0.27997 0.28,0 0.55,0.27002 0.83,0.27002 0.27,0 0.55,0 0.82,0 0,0 0,0 0,0 0.28,0 0.28,0 0.56,0 0.27,-0.27002 0.55,-0.27002 0.55,-0.54999 0.27,0 0.27,-0.27002 0.55,-0.27002 0,-0.27997 0,-0.56 0,-0.56 0,-0.27002 0,-0.54999 -0.28,-0.82001 0,-0.27997 -0.27,-0.54999 -0.82,-0.54999 -0.56,-0.27996 -0.56,-0.27996 -0.56,-0.27996 -0.27,0 -0.55,0 -0.55,-0.28003 -0.27,0 -0.27,-0.27002 -0.27,-0.27002 0,-0.27997 0,-0.54999 0.27,-0.54999 0.28,0 0.55,-0.27997 0.83,-0.27997 0.28,0 0.55,0.27997 0.83,0.27997 0.27,0 0.27,0 0.27,0 0,0 0,0 0,0 0,-0.27997 0,-0.27997 0,-0.27997 0,0 0,0 0,-0.28003 0,0 0,0 0,0 -0.27,0 -0.27,0 -0.27,0 -0.28,-0.27002 -0.28,-0.27002 -0.28,-0.27002 -0.27,0 -0.27,0 -0.27,0 -0.28,0 -0.28,0 -0.28,0 z m -11.03,0 c 0,0 0,0 0,0 -0.27,0 -0.55,0 -0.83,0 -0.27,0.27002 -0.55,0.27002 -0.82,0.27002 0,0 0,0 0,0.28003 0,0 0,0 0,0 0,0.27997 0,0.27997 0,0.27997 0,0.27002 0,0.27002 0,0.27002 0,0 0,0 0,0 0.27,0 0.27,0 0.27,0 0.28,-0.27002 0.28,-0.27002 0.55,-0.27002 0.28,0 0.56,0 0.56,0 0.27,0 0.55,0 0.82,0.27002 0.28,0 0.28,0.54999 0.28,0.83002 0,0.27996 0,0.27996 0,0.27996 -0.28,0 -0.28,0 -0.55,0 -0.28,0 -0.28,-0.27996 -0.55,-0.27996 -0.56,0 -0.83,0.27996 -1.38,0.54998 -0.28,0.27997 -0.55,0.54999 -0.28,1.09998 -0.27,0.28003 0,0.83002 0.28,1.10999 0.27,0.27002 0.55,0.27002 1.1,0.27002 0.55,0 1.1,-0.27002 1.38,-0.82001 0.27,0.27002 0.27,0.27002 0.27,0.27002 0,0.27997 0,0.27997 0.28,0.27997 0,0 0,0.27002 0,0.27002 0,0 0.28,0 0.28,-0.27002 0.27,0 0.27,0 0.27,0 0,0 0,-0.27997 0,-0.27997 0,0 0,0 0,0 0,-0.27002 0,-0.27002 0,-0.54999 -0.27,0 -0.27,-0.28003 -0.27,-0.28003 0,-1.92999 0,-1.92999 0,-1.92999 0.27,-0.27002 0,-0.82001 -0.28,-1.09998 -0.28,-0.28003 -0.83,-0.55005 -1.38,-0.55005 z"
         style="fill:#232f3e;fill-opacity:1;fill-rule:nonzero;stroke:none"
         id="path6522" /></g><text
       xml:space="preserve"
       transform="scale(0.99963709,1.000363)"
       style="font-style:normal;font-variant:normal;font-weight:normal;font-stretch:normal;font-size:1.80287px;font-family:Arial;-inkscape-font-specification:'Arial, Normal';font-variant-ligatures:normal;font-variant-caps:normal;font-variant-numeric:normal;font-variant-east-asian:normal;writing-mode:lr-tb;fill:#232f3e;fill-opacity:1;fill-rule:nonzero;stroke:none;stroke-width:0.00801714"
       id="text6528"
       x="62.951767"
       y="86.138611"><tspan
         x="62.951767 64.554276 67.023705 68.783836 69.519409 71.410889 72.015114 73.459991 74.931145"
         y="86.138611"
         sodipodi:role="line"
         id="tspan6526"
         style="font-style:normal;font-variant:normal;font-weight:normal;font-stretch:normal;font-size:1.80287px;font-family:Arial;-inkscape-font-specification:'Arial, Normal';font-variant-ligatures:normal;font-variant-caps:normal;font-variant-numeric:normal;font-variant-east-asian:normal;stroke-width:0.00801714">AWS Cloud</tspan></text><g
       id="g6532"
       clip-path="url(#clipPath6536)"
       transform="matrix(0.26458333,0,0,0.26458333,30.247535,-93.832117)"><g
         id="g6538"><path
           d="M 110.98,690.36999 H 372.89999 V 968.20001 H 110.98 Z"
           style="fill:none;stroke:#147eba;stroke-width:0.827;stroke-linecap:butt;stroke-linejoin:miter;stroke-miterlimit:10;stroke-dasharray:none;stroke-opacity:1"
           id="path6540" /></g><g
         id="g6542"
         transform="translate(110.98,710.22998)"><path
           d="m 0,0 c 0,-19.860001 0,-19.860001 0,-19.860001 19.85,0 19.85,0 19.85,0 C 19.85,0 19.85,0 19.85,0 Z m 6.62,-14.34 c 7.72,0 7.72,0 7.72,0 -1.66,1.93 -1.66,1.93 -1.66,1.93 1.66,1.93 1.66,1.93 1.66,1.93 -7.72,0 -7.72,0 -7.72,0 z m -0.28,-2.209999 c 0,0 0.28,0 0.28,0.269998 0,0 -0.28,0.280001 -0.28,0.280001 -0.27,0 -0.27,-0.280001 -0.27,-0.280001 0,-0.269998 0,-0.269998 0.27,-0.269998 z M 6.34,-17.1 c -0.55,0 -0.82,0.27 -0.82,0.819999 C 5.52,-16 5.79,-15.72 6.07,-15.45 c 0,12.14 0,12.14 0,12.14 -1.38,0 -1.38,0 -1.38,0 0,0.55 0,0.55 0,0.55 3.31,0 3.31,0 3.31,0 0,-0.55 0,-0.55 0,-0.55 -1.38,0 -1.38,0 -1.38,0 0,-6.62 0,-6.62 0,-6.62 9.1,0 9.1,0 9.1,0 -2.21,-2.48 -2.21,-2.48 -2.21,-2.48 2.21,-2.49 2.21,-2.49 2.21,-2.49 -9.1,0 -9.1,0 -9.1,0 0,-0.55 0,-0.55 0,-0.55 C 6.89,-15.72 7.17,-16 7.17,-16.280001 7.17,-16.83 6.62,-17.1 6.34,-17.1 Z"
           style="fill:#147eba;fill-opacity:1;fill-rule:nonzero;stroke:none"
           id="path6544" /></g></g><text
       xml:space="preserve"
       transform="scale(0.99962867,1.0003715)"
       style="font-style:normal;font-variant:normal;font-weight:normal;font-stretch:normal;font-size:1.80287px;font-family:Arial;-inkscape-font-specification:'Arial, Normal';font-variant-ligatures:normal;font-variant-caps:normal;font-variant-numeric:normal;font-variant-east-asian:normal;writing-mode:lr-tb;fill:#147eba;fill-opacity:1;fill-rule:nonzero;stroke:none;stroke-width:0.00534471"
       id="text6550"
       x="66.339447"
       y="92.443588"><tspan
         x="66.339447 67.565392 68.493614 69.474373 69.807129 70.787888 71.71611 72.223999 73.204758 73.747681 74.728439 75.656654 76.637421 77.478065 78.458832 79.387047 79.894943 80.490402 81.418617 82.381866 82.977325 84.203278 85.14901 86.024689 86.532578 87.128036 88.056259"
         y="92.443588"
         sodipodi:role="line"
         id="tspan6548"
         style="font-style:normal;font-variant:normal;font-weight:normal;font-stretch:normal;font-size:1.80287px;font-family:Arial;-inkscape-font-specification:'Arial, Normal';font-variant-ligatures:normal;font-variant-caps:normal;font-variant-numeric:normal;font-variant-east-asian:normal;stroke-width:0.00534471">Region proposed (eu-west-2)</tspan></text><g
       id="g6554"
       clip-path="url(#clipPath6558)"
       transform="matrix(0.26458333,0,0,0.26458333,30.247535,-93.832117)"><g
         id="g6560"><path
           d="m 134.69,714.09998 h 230.22 v 246.38 H 134.69 Z"
           style="fill:none;stroke:#248814;stroke-width:0.827;stroke-linecap:butt;stroke-linejoin:miter;stroke-miterlimit:10;stroke-dasharray:none;stroke-opacity:1"
           id="path6562" /></g><g
         id="g6564"
         transform="translate(134.69,733.96002)"><path
           d="m 0,0 c 0,-19.860001 0,-19.860001 0,-19.860001 19.85,0 19.85,0 19.85,0 C 19.85,0 19.85,0 19.85,0 Z m 8.27,-9.1 c 2.76,0 2.76,0 2.76,0 0,1.38 0,1.38 0,1.38 -2.76,0 -2.76,0 -2.76,0 z m 1.38,-1.66 c 0,0 0.28,0 0.28,0.28 0.27,0 0.27,0.27 0.27,0.27 0,0.55 0,0.55 0,0.55 -1.1,0 -1.1,0 -1.1,0 0,-0.55 0,-0.55 0,-0.55 0,0 0,-0.27 0.28,-0.27 0,-0.28 0.27,-0.28 0.27,-0.28 z m 0,-0.55 c -0.27,0 -0.55,0.27 -0.83,0.27 -0.27,0.28 -0.27,0.56 -0.27,0.83 0,0.55 0,0.55 0,0.55 -0.55,0 -0.55,0 -0.55,0 0,0 -0.28,0 -0.28,0.28 0,1.93 0,1.93 0,1.93 0,0.28 0,0.28 0,0.28 0.28,0 0.28,0 0.28,0 3.31,0 3.31,0 3.31,0 0,0 0,0 0,0 0.27,0 0.27,0 0.27,-0.28 0,-1.93 0,-1.93 0,-1.93 0,-0.28 -0.27,-0.28 -0.27,-0.28 -0.56,0 -0.56,0 -0.56,0 0,-0.55 0,-0.55 0,-0.55 0,-0.27 0,-0.55 -0.27,-0.83 -0.28,-0.27 -0.55,-0.27 -0.83,-0.27 z m -1.38,-2.76 c 0.28,0 0.55,0 0.83,0.28 1.38,0.27 2.21,1.1 2.48,2.2 0,0.28 0.28,0.28 0.28,0.28 0,0 0.27,0 0.27,0 0.28,-0.28 0.55,-0.55 0.55,-0.55 0.28,0 0.56,0 1.11,0 0.27,0.27 0.55,1.1 0.55,1.38 0,0.27 0,0.27 0,0.27 0,0 0.27,0.28 0.27,0.28 0.83,0 1.38,0.55 1.66,1.1 0.270001,0.28 0.270001,0.83 0.270001,1.38 0,0.28 -0.270001,0.83 -0.550001,0.83 0,0.28 0,0.28 0,0.28 -0.27,0.55 -0.82,0.55 -1.65,0.55 -8.82,0 -8.82,0 -8.82,0 -0.56,0 -1.38,-0.28 -1.66,-0.83 C 3.59,-7.17 3.31,-8 3.59,-8.83 c 0.27,-0.55 0.55,-1.1 1.37,-1.1 0.28,0 0.28,-0.28 0.28,-0.55 0,-0.83 0.28,-1.66 0.83,-2.49 0.55,-0.55 1.38,-1.1 2.2,-1.1 z m 0,-0.55 c 0,0 0,0 0,0 -1.1,0 -1.93,0.55 -2.48,1.38 -0.27,0 -0.27,0 -0.27,0 -0.56,0.83 -0.83,1.65 -0.83,2.76 -0.83,0.27 -1.38,0.82 -1.66,1.65 0,0 0,0 0,0 -0.27,0.83 0,1.93 0.28,2.49 0,0 0,0 0,0.27 0.55,0.55 1.38,0.83 2.21,0.83 8.82,0 8.82,0 8.82,0 0.83,0 1.65,-0.28 2.200001,-0.83 C 16.82,-6.34 17.1,-6.9 17.1,-7.45 c 0,-0.55 0,-1.1 -0.28,-1.65 0,0 0,0 0,0 -0.279999,-0.83 -1.1,-1.38 -1.93,-1.38 0,-0.83 -0.28,-1.38 -0.83,-1.66 0,0 0,0 0,0 -0.55,-0.55 -1.1,-0.55 -1.38,-0.27 -0.27,0 -0.55,0.27 -0.55,0.27 -0.55,-1.1 -1.38,-1.93 -2.75,-2.21 0,0 0,0 0,0 -0.28,-0.27 -0.56,-0.27 -1.11,-0.27 z"
           style="fill:#248814;fill-opacity:1;fill-rule:nonzero;stroke:none"
           id="path6566" /></g><g
         id="g6568"><path
           d="m 160.06,719.34003 h 77.75 v 11.02996 h -77.75 z"
           style="fill:#ffffff;fill-opacity:1;fill-rule:nonzero;stroke:none"
           id="path6570" /></g></g><text
       xml:space="preserve"
       transform="scale(0.99962867,1.0003715)"
       style="font-style:normal;font-variant:normal;font-weight:normal;font-stretch:normal;font-size:1.80287px;font-family:Arial;-inkscape-font-specification:'Arial, Normal';font-variant-ligatures:normal;font-variant-caps:normal;font-variant-numeric:normal;font-variant-east-asian:normal;writing-mode:lr-tb;fill:#009900;fill-opacity:1;fill-rule:nonzero;stroke:none;stroke-width:0.00534471"
       id="text6576"
       x="72.649628"
       y="98.748199"><tspan
         x="72.649628 73.78801 74.383469 74.768768 75.696983 76.20488 76.712769 77.220665 78.32402 78.831909 80.022835 81.161217 82.387169 82.895058 83.875816 84.804039 85.311928 86.292686 86.800583 87.728798 88.236694 89.199944 89.707832 90.653564"
         y="98.748199"
         sodipodi:role="line"
         id="tspan6574"
         style="font-style:normal;font-variant:normal;font-weight:normal;font-stretch:normal;font-size:1.80287px;font-family:Arial;-inkscape-font-specification:'Arial, Normal';font-variant-ligatures:normal;font-variant-caps:normal;font-variant-numeric:normal;font-variant-east-asian:normal;stroke-width:0.00534471">Print IT VPC 10.0.0.0/16</tspan></text><g
       id="g6580"
       clip-path="url(#clipPath6584)"
       transform="matrix(0.26458333,0,0,0.26458333,30.247535,-93.832117)"><path
         d="m 158.13,739.75 v -0.82001 h 2.75 V 739.75 h -2.48001 v -0.54999 H 158.95 V 739.75 Z m 0,4.70001 v -2.21002 h 0.82 v 2.21002 z m 0,4.95996 v -2.47998 h 0.82 v 2.47998 z m 0,4.69001 V 751.62 h 0.82 v 2.47998 z m 0,4.69 v -2.19995 h 0.82 v 2.19995 z m 0,4.69 v -2.19995 h 0.82 v 2.19995 z m 0,4.97003 v -2.48004 h 0.82 v 2.48004 z m 0,4.69 v -2.48004 h 0.82 v 2.48004 z m 0,4.69001 V 775.62 h 0.82 v 2.21002 z m 0,4.96997 V 780.31 h 0.82 v 2.48999 z m 0,4.69 V 785 h 0.82 v 2.48999 z m 0,4.69 V 789.69 h 0.82 v 2.48999 z m 0,4.69 v -2.21002 h 0.82 v 2.21002 z m 0,4.96003 v -2.48004 h 0.82 v 2.48004 z m 0,4.69 v -2.48004 h 0.82 v 2.48004 z m 0,4.69 v -2.20001 h 0.82 v 2.20001 z m 0,4.69 v -2.20001 h 0.82 v 2.20001 z m 0,4.96997 v -2.47998 h 0.82 v 2.47998 z m 0,4.69001 v -2.47998 h 0.82 V 825.56 Z m 0,4.69 v -2.21002 h 0.82 V 830.25 Z m 0,4.96997 v -2.47998 h 0.82 v 2.47998 z m 0,4.69 v -2.47998 h 0.82 v 2.47998 z m 3.86,1.65003 h -2.48001 v -0.82001 H 161.99 Z m 4.68,0 h -2.48 v -0.82001 h 2.48 z m 4.69,0 h -2.2 v -0.82001 h 2.2 z m 4.96001,0 H 173.84 v -0.82001 h 2.48001 z m 4.68998,0 H 178.53 v -0.82001 h 2.47999 z m 4.69001,0 h -2.48 v -0.82001 h 2.48 z m 4.68,0 h -2.20001 v -0.82001 H 190.38 Z m 4.97001,0 h -2.48002 v -0.82001 h 2.48002 z m 4.67999,0 h -2.48 v -0.82001 h 2.48 z m 4.69,0 h -2.2 v -0.82001 h 2.2 z m 4.69,0 h -2.21 v -0.82001 h 2.21 z m 4.95999,0 H 211.89 v -0.82001 h 2.47999 z m 4.69001,0 h -2.48 v -0.82001 h 2.48 z m 4.68,0 h -2.20001 v -0.82001 H 223.74 Z m 4.97001,0 H 226.23 v -0.82001 h 2.48001 z m 4.67999,0 h -2.48 v -0.82001 h 2.48 z m 4.69,0 h -2.47999 v -0.82001 H 238.08 Z m 4.69,0 h -2.21 v -0.82001 h 2.21 z m 4.96,0 h -2.48 v -0.82001 h 2.48 z m 4.69,0 h -2.48 v -0.82001 h 2.48 z m 4.68001,0 h -2.20002 v -0.82001 h 2.20002 z m 4.69,0 H 259.59 v -0.82001 h 2.20001 z m 4.95999,0 h -2.48001 v -0.82001 H 266.75 Z m 4.69,0 h -2.48001 v -0.82001 H 271.44 Z m 4.69,0 h -2.20999 v -0.82001 H 276.13 Z m 4.96,0 h -2.48001 v -0.82001 H 281.09 Z m 4.69,0 h -2.48001 v -0.82001 H 285.78 Z m 4.67999,0 h -2.47998 v -0.82001 h 2.47998 z m 4.69,0 h -2.19998 v -0.82001 h 2.19998 z m 4.96,0 H 297.63 v -0.82001 h 2.47999 z m 4.69,0 h -2.47998 v -0.82001 h 2.47998 z m 4.69,0 H 307.28 v -0.82001 h 2.20999 z m 4.96002,0 H 311.97 v -0.82001 h 2.48001 z m 4.69,0 H 316.66 v -0.82001 h 2.48001 z m 4.68998,0 H 321.34 v -0.82001 h 2.48999 z m 4.68002,0 H 326.31 v -0.82001 h 2.20001 z m 4.95999,0 h -2.48001 v -0.82001 H 333.47 Z m 4.69,0 h -2.48001 v -0.82001 H 338.16 Z m 4.69001,0 h -2.21 v -0.82001 h 2.21 z m 4.69,0 h -2.21002 v -0.82001 h 2.21002 z m 4.95999,0 h -2.48001 v -0.82001 H 352.5 Z m 4.95999,-0.54999 V 841.56 h -2.75998 v -0.82001 H 356.91 v 0.54999 h -0.28 v -0.27997 z m 0,-4.69 v 2.21002 H 356.63 v -2.21002 z m 0,-4.96003 v 2.48005 H 356.63 v -2.48005 z m 0,-4.69 v 2.48004 H 356.63 v -2.48004 z m 0,-4.70001 v 2.21002 H 356.63 v -2.21002 z m 0,-4.95996 v 2.47998 H 356.63 v -2.47998 z m 0,-4.69 v 2.47998 H 356.63 v -2.47998 z m 0,-4.69001 v 2.47999 H 356.63 V 807.63 Z m 0,-4.69 v 2.20001 H 356.63 V 802.94 Z m 0,-4.97003 v 2.48004 H 356.63 v -2.48004 z m 0,-4.68994 v 2.47998 H 356.63 v -2.47998 z m 0,-4.69 v 2.20996 H 356.63 v -2.20996 z m 0,-4.69001 v 2.20997 H 356.63 v -2.20997 z m 0,-4.97003 v 2.48999 H 356.63 v -2.48999 z m 0,-4.69 v 2.48999 H 356.63 v -2.48999 z m 0,-4.69 v 2.21002 H 356.63 v -2.21002 z m 0,-4.95996 v 2.47998 H 356.63 v -2.47998 z m 0,-4.69001 V 762.38 H 356.63 v -2.47998 z m 0,-4.69 V 757.69 H 356.63 v -2.47998 z m 0,-4.69 v 2.19995 H 356.63 v -2.19995 z m 0,-4.97003 v 2.48004 H 356.63 v -2.48004 z m 0,-4.69001 v 2.48005 H 356.63 v -2.48005 z M 353.88,738.92999 h 2.19999 V 739.75 H 353.88 Z m -4.97,0 h 2.48999 V 739.75 H 348.91 Z m -4.67999,0 h 2.47998 V 739.75 h -2.47998 z m -4.69,0 H 341.75 V 739.75 h -2.20999 z m -4.69,0 H 337.06 V 739.75 h -2.20999 z m -4.96,0 H 332.37 V 739.75 h -2.47999 z m -4.69,0 H 327.69 V 739.75 h -2.48999 z m -4.68002,0 H 322.72 V 739.75 h -2.20001 z m -4.97,0 h 2.49002 V 739.75 h -2.49002 z m -4.67999,0 h 2.48001 V 739.75 H 310.87 Z m -4.69001,0 h 2.21002 V 739.75 h -2.21002 z m -4.69,0 h 2.21002 V 739.75 h -2.21002 z m -4.95999,0 h 2.48001 V 739.75 H 296.53 Z m -4.69,0 h 2.48001 V 739.75 H 291.84 Z m -4.68,0 h 2.19999 V 739.75 H 287.16 Z m -4.97,0 h 2.48999 V 739.75 H 282.19 Z m -4.67999,0 h 2.47998 V 739.75 h -2.47998 z m -4.69,0 h 2.47998 V 739.75 h -2.47998 z m -4.69001,0 h 2.21 V 739.75 h -2.21 z m -4.95999,0 h 2.47998 V 739.75 h -2.47998 z m -4.69,0 h 2.47998 V 739.75 h -2.47998 z m -4.68001,0 H 256 V 739.75 h -2.2 z m -4.69,0 h 2.2 V 739.75 h -2.2 z m -4.96001,0 H 246.63 V 739.75 h -2.48001 z m -4.68998,0 H 241.94 V 739.75 h -2.47999 z m -4.69001,0 h 2.21 V 739.75 h -2.21 z m -4.96,0 h 2.47999 V 739.75 H 229.81 Z m -4.69001,0 h 2.48002 V 739.75 h -2.48002 z m -4.67999,0 h 2.48 V 739.75 h -2.48 z m -4.69,0 h 2.2 V 739.75 h -2.2 z m -4.96001,0 H 213.27 V 739.75 h -2.48001 z m -4.68998,0 H 208.58 V 739.75 h -2.47999 z m -4.69001,0 h 2.20999 V 739.75 H 201.41 Z m -4.68,0 h 2.19999 V 739.75 H 196.73 Z m -4.97001,0 H 194.24 V 739.75 h -2.48001 z m -4.67999,0 h 2.48 V 739.75 h -2.48 z m -4.69,0 h 2.2 V 739.75 h -2.2 z m -4.96001,0 H 179.91 V 739.75 h -2.48001 z m -4.68999,0 h 2.48 V 739.75 h -2.48 z m -4.69,0 h 2.48 V 739.75 h -2.48 z m -4.68001,0 h 2.20002 V 739.75 h -2.20002 z"
         style="fill:#147eba;fill-opacity:1;fill-rule:nonzero;stroke:none"
         id="path6586" /></g><text
       xml:space="preserve"
       transform="scale(0.99962867,1.0003715)"
       style="font-style:normal;font-variant:normal;font-weight:normal;font-stretch:normal;font-size:1.80287px;font-family:Arial;-inkscape-font-specification:'Arial, Normal';font-variant-ligatures:normal;font-variant-caps:normal;font-variant-numeric:normal;font-variant-east-asian:normal;writing-mode:lr-tb;fill:#147eba;fill-opacity:1;fill-rule:nonzero;stroke:none;stroke-width:0.00534471"
       id="text6592"
       x="90.689857"
       y="104.80057"><tspan
         x="90.689857 91.915802 92.808998 93.789757 94.122513 94.507812 95.436028 96.399277 96.74955 97.13485 97.467606 97.975494 98.86869 99.376579 100.47993 101.40816 102.3714 103.31713 103.82503"
         y="104.80057"
         sodipodi:role="line"
         id="tspan6590"
         style="font-style:normal;font-variant:normal;font-weight:normal;font-stretch:normal;font-size:1.80287px;font-family:Arial;-inkscape-font-specification:'Arial, Normal';font-variant-ligatures:normal;font-variant-caps:normal;font-variant-numeric:normal;font-variant-east-asian:normal;stroke-width:0.00534471">Availability Zone a</tspan></text><g
       id="g6596"
       clip-path="url(#clipPath6600)"
       transform="matrix(0.26458333,0,0,0.26458333,30.247535,-93.832117)"><g
         id="g6602"><path
           d="m 261.23999,753.83002 h 87.40002 v 79.45996 h -87.40002 z"
           style="fill:#e6f2f8;fill-opacity:1;fill-rule:nonzero;stroke:none"
           id="path6604" /></g><g
         id="g6606"
         transform="translate(271.17001,764.59003)"><path
           d="M 0,0 C 0,0 0,0 0,0 0.27,0 0.55,0 0.82,0.27 0.82,0.55 1.1,0.55 1.1,0.82 1.1,1.1 0.82,1.38 0.82,1.65 0.55,1.93 0.27,1.93 0,1.93 c -0.28,0 -0.56,0 -0.83,-0.55 C -1.11,1.1 -1.11,0.82 -0.83,0.55 -0.83,0 -0.28,0 0,0 Z m 0,-0.56 c -0.83,0 -1.38,0.56 -1.66,1.38 0,0.83 0.55,1.38 1.38,1.66 0,2.21 0,2.21 0,2.21 0.55,0 0.55,0 0.55,0 0,-2.21 0,-2.21 0,-2.21 C 1.1,2.2 1.65,1.65 1.65,0.82 1.65,0 0.82,-0.56 0,-0.56 Z m -4.97,-1.93 c 9.93,0 9.93,0 9.93,0 0,8.56 0,8.56 0,8.56 -9.93,0 -9.93,0 -9.93,0 z M 0,-7.73 c 0.82,0 1.65,0.28 2.2,0.83 0.28,0.55 0.83,1.1 0.83,1.93 0,1.93 0,1.93 0,1.93 -5.79,0 -5.79,0 -5.79,0 0,-1.93 0,-1.93 0,-1.93 0,-0.83 0.27,-1.38 0.83,-1.93 0.55,-0.55 1.1,-0.83 1.93,-0.83 z m 0,-0.55 c -0.83,0 -1.66,0.28 -2.21,1.1 -0.83,0.55 -1.1,1.38 -1.1,2.21 0,1.93 0,1.93 0,1.93 -1.93,0 -1.93,0 -1.93,0 0,0 0,0 -0.28,0 0,0.28 0,0.28 0,0.28 0,9.1 0,9.1 0,9.1 0,0 0.28,0.28 0.28,0.28 10.47,0 10.47,0 10.47,0 0.28,0 0.28,-0.28 0.28,-0.28 0,-9.1 0,-9.1 0,-9.1 0,0 0,0 0,0 0,-0.28 -0.28,-0.28 -0.28,-0.28 -1.65,0 -1.65,0 -1.65,0 0,-1.93 0,-1.93 0,-1.93 0,-0.83 -0.55,-1.66 -1.1,-2.21 C 1.93,-7.73 0.82,-8.28 0,-8.28 Z m -9.93,-2.48 c 19.85,0 19.85,0 19.85,0 0,19.86 0,19.86 0,19.86 -19.85,0 -19.85,0 -19.85,0 z"
           style="fill:#147eba;fill-opacity:1;fill-rule:nonzero;stroke:none"
           id="path6608" /></g></g><text
       xml:space="preserve"
       transform="scale(0.99962867,1.0003715)"
       style="font-style:normal;font-variant:normal;font-weight:normal;font-stretch:normal;font-size:1.80287px;font-family:Arial;-inkscape-font-specification:'Arial, Normal';font-variant-ligatures:normal;font-variant-caps:normal;font-variant-numeric:normal;font-variant-east-asian:normal;writing-mode:lr-tb;fill:#147eba;fill-opacity:1;fill-rule:nonzero;stroke:none;stroke-width:0.00534471"
       id="text6614"
       x="106.0201"
       y="109.24363"><tspan
         x="106.0201 107.21102 107.80648 108.13924 109.03243 109.96065 110.46854 111.4493 111.95719 112.83287 113.7786 114.70683 115.67007 116.6158 117.1237 117.63159"
         y="109.24363"
         sodipodi:role="line"
         id="tspan6612"
         style="font-style:normal;font-variant:normal;font-weight:normal;font-stretch:normal;font-size:1.80287px;font-family:Arial;-inkscape-font-specification:'Arial, Normal';font-variant-ligatures:normal;font-variant-caps:normal;font-variant-numeric:normal;font-variant-east-asian:normal;stroke-width:0.00534471">Private subnet 1</tspan></text><text
       xml:space="preserve"
       transform="scale(0.99962867,1.0003715)"
       style="font-style:normal;font-variant:normal;font-weight:normal;font-stretch:normal;font-size:1.80287px;font-family:Arial;-inkscape-font-specification:'Arial, Normal';font-variant-ligatures:normal;font-variant-caps:normal;font-variant-numeric:normal;font-variant-east-asian:normal;writing-mode:lr-tb;fill:#147eba;fill-opacity:1;fill-rule:nonzero;stroke:none;stroke-width:0.00534471"
       id="text6620"
       x="106.0201"
       y="112.20619"><tspan
         x="106.0201 107.00085 107.92908 108.43697 109.40022 109.90811 110.85384 111.36173 112.32498 112.83287 113.7786"
         y="112.20619"
         sodipodi:role="line"
         id="tspan6618"
         style="font-style:normal;font-variant:normal;font-weight:normal;font-stretch:normal;font-size:1.80287px;font-family:Arial;-inkscape-font-specification:'Arial, Normal';font-variant-ligatures:normal;font-variant-caps:normal;font-variant-numeric:normal;font-variant-east-asian:normal;stroke-width:0.00534471">10.0.1.0/24</tspan></text><g
       id="g6624"
       clip-path="url(#clipPath6628)"
       transform="matrix(0.26458333,0,0,0.26458333,65.884264,124.89097)"><path
         d="M 0,0 C 8,0 14.61,6.34 14.61,14.62 14.61,22.620001 8,29.24 0,29.24 -7.99,29.24 -14.61,22.620001 -14.61,14.62 -14.61,6.34 -7.99,0 0,0 Z m 0,-1.38 c -8.82,0 -15.99,7.17 -15.99,16 0,8.830001 7.17,15.72 15.99,15.72 8.82,0 15.99,-6.889999 15.99,-15.72 0,-8.83 -7.17,-16 -15.99,-16 z m 0.28,8 c 2.75,0 4.96,0.82 6.61,2.2 0,14.08 0,14.08 0,14.08 -1.1,0 -1.1,0 -1.1,0 0,-12.97 0,-12.97 0,-12.97 C 5.79,9.65 5.52,9.38 5.24,9.38 3.86,8.55 2.21,8 0,8 c -1.93,0 -3.86,0.55 -5.51,1.65 0,0 -0.28,0.28 -0.28,0.28 0,12.97 0,12.97 0,12.97 -1.1,0 -1.1,0 -1.1,0 0,-13.8 0,-13.8 0,-13.8 C -6.61,8.55 -5.51,8 -4.41,7.44 -3.03,6.89 -1.38,6.62 0.28,6.62 Z m 0,-1.38 c -1.93,0 -3.59,0.55 -5.24,1.1 -1.38,0.55 -2.48,1.38 -3.03,1.93 -0.28,0.28 -0.28,0.28 -0.28,0.55 0,14.630001 0,14.630001 0,14.630001 0,0.269998 0,0.269998 0.28,0.549999 0,0 0.27,0 0.27,0 2.48,0 2.48,0 2.48,0 0.28,0 0.56,0 0.56,0 0,-0.280001 0.27,-0.280001 0.27,-0.549999 C -4.41,10.48 -4.41,10.48 -4.41,10.48 -3.31,9.65 -1.38,9.1 0,9.1 c 1.66,0 3.31,0.55 4.41,1.1 0,13.250001 0,13.250001 0,13.250001 C 4.41,23.719999 4.69,24 4.96,24 7.72,24 7.72,24 7.72,24 7.72,24 8,24 8,24 8.27,23.719999 8.27,23.719999 8.27,23.450001 8.27,8.55 8.27,8.55 8.27,8.55 8.27,8.27 8.27,8 8,8 6.07,6.34 3.31,5.24 0.28,5.24 Z"
         style="fill:#5a30b5;fill-opacity:1;fill-rule:nonzero;stroke:none"
         id="path6630" /></g><text
       xml:space="preserve"
       transform="scale(0.99962867,1.0003715)"
       style="font-style:normal;font-variant:normal;font-weight:normal;font-stretch:normal;font-size:1.80287px;font-family:Arial;-inkscape-font-specification:'Arial, Normal';font-variant-ligatures:normal;font-variant-caps:normal;font-variant-numeric:normal;font-variant-east-asian:normal;writing-mode:lr-tb;fill:#000000;fill-opacity:1;fill-rule:nonzero;stroke:none;stroke-width:0.00534471"
       id="text6636"
       x="62.782856"
       y="121.21953"><tspan
         x="62.782856 63.325775 64.271507 64.779404 65.707619 66.303078 67.266327 68.194542"
         y="121.21953"
         sodipodi:role="line"
         id="tspan6634"
         style="font-style:normal;font-variant:normal;font-weight:normal;font-stretch:normal;font-size:1.80287px;font-family:Arial;-inkscape-font-specification:'Arial, Normal';font-variant-ligatures:normal;font-variant-caps:normal;font-variant-numeric:normal;font-variant-east-asian:normal;stroke-width:0.00534471">Internet</tspan></text><text
       xml:space="preserve"
       transform="scale(0.99962867,1.0003715)"
       style="font-style:normal;font-variant:normal;font-weight:normal;font-stretch:normal;font-size:1.80287px;font-family:Arial;-inkscape-font-specification:'Arial, Normal';font-variant-ligatures:normal;font-variant-caps:normal;font-variant-numeric:normal;font-variant-east-asian:normal;writing-mode:lr-tb;fill:#000000;fill-opacity:1;fill-rule:nonzero;stroke:none;stroke-width:0.00534471"
       id="text6642"
       x="62.27404"
       y="123.33604"><tspan
         x="62.27404 63.675125 64.60334 65.111237 66.091995 67.317947 68.246162"
         y="123.33604"
         sodipodi:role="line"
         id="tspan6640"
         style="font-style:normal;font-variant:normal;font-weight:normal;font-stretch:normal;font-size:1.80287px;font-family:Arial;-inkscape-font-specification:'Arial, Normal';font-variant-ligatures:normal;font-variant-caps:normal;font-variant-numeric:normal;font-variant-east-asian:normal;stroke-width:0.00534471">Gateway</tspan></text><g
       id="g6646"
       clip-path="url(#clipPath6650)"
       transform="matrix(0.26458333,0,0,0.26458333,30.247535,-93.832117)"><path
         d="m 158.13,850.39001 v -0.82 h 2.75 V 850.12 h -2.48001 v -0.27997 H 158.95 v 0.54998 z m 0,4.69001 v -2.48004 h 0.82 v 2.48004 z m 0,4.69 v -2.20001 h 0.82 v 2.20001 z m 0,4.96997 v -2.47998 h 0.82 v 2.47998 z m 0,4.69 v -2.47998 h 0.82 v 2.47998 z m 0,4.69001 v -2.47999 h 0.82 V 874.12 Z m 0,4.69 v -2.21002 h 0.82 V 878.81 Z m 0,4.97003 v -2.49005 h 0.82 v 2.49005 z m 0,4.68994 v -2.48999 h 0.82 v 2.48999 z m 0,4.69 v -2.20996 h 0.82 v 2.20996 z m 0,4.69001 v -2.20997 h 0.82 v 2.20997 z m 0,4.96002 v -2.47998 h 0.82 V 902.81 Z m 0,4.70001 v -2.48999 h 0.82 v 2.48999 z m 0,4.69 v -2.21002 h 0.82 v 2.21002 z m 0,4.95996 v -2.47998 h 0.82 v 2.47998 z m 0,4.69001 v -2.47999 h 0.82 v 2.47999 z m 0,4.69 V 924.06 h 0.82 v 2.47998 z m 0,4.69 v -2.19995 h 0.82 v 2.19995 z m 0,4.97003 v -2.48004 h 0.82 v 2.48004 z m 0,4.69 v -2.48004 h 0.82 v 2.48004 z m 0,4.69001 v -2.21003 h 0.82 v 2.21003 z m 0,4.69 V 948.06 h 0.82 v 2.21002 z m 3.86,1.92999 h -2.48001 v -0.83002 H 161.99 Z m 4.68,0 h -2.48 v -0.83002 h 2.48 z m 4.69,0 h -2.2 v -0.83002 h 2.2 z m 4.96001,0 H 173.84 v -0.83002 h 2.48001 z m 4.68998,0 H 178.53 v -0.83002 h 2.47999 z m 4.69001,0 h -2.48 v -0.83002 h 2.48 z m 4.68,0 h -2.20001 v -0.83002 H 190.38 Z m 4.97001,0 h -2.48002 v -0.83002 h 2.48002 z m 4.67999,0 h -2.48 v -0.83002 h 2.48 z m 4.69,0 h -2.2 v -0.83002 h 2.2 z m 4.69,0 h -2.21 v -0.83002 h 2.21 z m 4.95999,0 H 211.89 v -0.83002 h 2.47999 z m 4.69001,0 h -2.48 v -0.83002 h 2.48 z m 4.68,0 h -2.20001 v -0.83002 H 223.74 Z m 4.97001,0 H 226.23 v -0.83002 h 2.48001 z m 4.67999,0 h -2.48 v -0.83002 h 2.48 z m 4.69,0 h -2.47999 v -0.83002 H 238.08 Z m 4.69,0 h -2.21 v -0.83002 h 2.21 z m 4.96,0 h -2.48 v -0.83002 h 2.48 z m 4.69,0 h -2.48 v -0.83002 h 2.48 z m 4.68001,0 h -2.20002 v -0.83002 h 2.20002 z m 4.69,0 H 259.59 v -0.83002 h 2.20001 z m 4.95999,0 h -2.48001 v -0.83002 H 266.75 Z m 4.69,0 h -2.48001 v -0.83002 H 271.44 Z m 4.69,0 h -2.20999 v -0.83002 H 276.13 Z m 4.96,0 h -2.48001 v -0.83002 H 281.09 Z m 4.69,0 h -2.48001 v -0.83002 H 285.78 Z m 4.67999,0 h -2.47998 v -0.83002 h 2.47998 z m 4.69,0 h -2.19998 v -0.83002 h 2.19998 z m 4.96,0 H 297.63 v -0.83002 h 2.47999 z m 4.69,0 h -2.47998 v -0.83002 h 2.47998 z m 4.69,0 H 307.28 v -0.83002 h 2.20999 z m 4.96002,0 H 311.97 v -0.83002 h 2.48001 z m 4.69,0 H 316.66 v -0.83002 h 2.48001 z m 4.68998,0 H 321.34 v -0.83002 h 2.48999 z m 4.68002,0 H 326.31 v -0.83002 h 2.20001 z m 4.95999,0 h -2.48001 v -0.83002 H 333.47 Z m 4.69,0 h -2.48001 v -0.83002 H 338.16 Z m 4.69001,0 h -2.21 v -0.83002 h 2.21 z m 4.69,0 h -2.21002 v -0.83002 h 2.21002 z m 4.95999,0 h -2.48001 v -0.83002 H 352.5 Z m 4.95999,-0.83002 v 0.83002 h -2.75998 v -0.83002 H 356.91 v 0.28003 h -0.28 v -0.28003 z m 0,-4.69 v 2.48999 H 356.63 v -2.48999 z m 0,-4.69 v 2.48999 H 356.63 v -2.48999 z m 0,-4.69 v 2.21002 H 356.63 v -2.21002 z m 0,-4.95996 v 2.47998 H 356.63 v -2.47998 z m 0,-4.69001 V 930.13 H 356.63 v -2.47998 z m 0,-4.69 v 2.19995 H 356.63 v -2.19995 z m 0,-4.69 v 2.19995 H 356.63 v -2.19995 z m 0,-4.97003 v 2.48004 H 356.63 v -2.48004 z m 0,-4.69 v 2.48004 H 356.63 v -2.48004 z m 0,-4.69001 V 906.13 H 356.63 v -2.21002 z m 0,-4.96997 V 901.44 H 356.63 v -2.48999 z m 0,-4.69 V 896.75 H 356.63 v -2.48999 z m 0,-4.69 v 2.47998 H 356.63 v -2.47998 z m 0,-4.69001 v 2.21003 H 356.63 V 884.88 Z m 0,-4.97003 v 2.49005 H 356.63 v -2.49005 z m 0,-4.69 v 2.49005 H 356.63 v -2.49005 z m 0,-4.68994 v 2.20996 H 356.63 v -2.20996 z m 0,-4.69 v 2.20996 H 356.63 v -2.20996 z m 0,-4.96003 v 2.47998 H 356.63 V 860.88 Z m 0,-4.69 v 2.47998 H 356.63 V 856.19 Z m 0,-4.69 v 2.20001 H 356.63 V 851.5 Z M 353.88,849.57001 h 2.19999 V 850.12 H 353.88 Z m -4.97,0 h 2.48999 V 850.12 H 348.91 Z m -4.67999,0 h 2.47998 V 850.12 h -2.47998 z m -4.69,0 H 341.75 V 850.12 h -2.20999 z m -4.69,0 H 337.06 V 850.12 h -2.20999 z m -4.96,0 H 332.37 V 850.12 h -2.47999 z m -4.69,0 H 327.69 V 850.12 h -2.48999 z m -4.68002,0 H 322.72 V 850.12 h -2.20001 z m -4.97,0 h 2.49002 V 850.12 h -2.49002 z m -4.67999,0 h 2.48001 V 850.12 H 310.87 Z m -4.69001,0 h 2.21002 V 850.12 h -2.21002 z m -4.69,0 h 2.21002 V 850.12 h -2.21002 z m -4.95999,0 h 2.48001 V 850.12 H 296.53 Z m -4.69,0 h 2.48001 V 850.12 H 291.84 Z m -4.68,0 h 2.19999 V 850.12 H 287.16 Z m -4.97,0 h 2.48999 V 850.12 H 282.19 Z m -4.67999,0 h 2.47998 V 850.12 h -2.47998 z m -4.69,0 h 2.47998 V 850.12 h -2.47998 z m -4.69001,0 h 2.21 V 850.12 h -2.21 z m -4.95999,0 h 2.47998 V 850.12 h -2.47998 z m -4.69,0 h 2.47998 V 850.12 h -2.47998 z m -4.68001,0 H 256 V 850.12 h -2.2 z m -4.69,0 h 2.2 V 850.12 h -2.2 z m -4.96001,0 H 246.63 V 850.12 h -2.48001 z m -4.68998,0 H 241.94 V 850.12 h -2.47999 z m -4.69001,0 h 2.21 V 850.12 h -2.21 z m -4.96,0 h 2.47999 V 850.12 H 229.81 Z m -4.69001,0 h 2.48002 V 850.12 h -2.48002 z m -4.67999,0 h 2.48 V 850.12 h -2.48 z m -4.69,0 h 2.2 V 850.12 h -2.2 z m -4.96001,0 H 213.27 V 850.12 h -2.48001 z m -4.68998,0 H 208.58 V 850.12 h -2.47999 z m -4.69001,0 h 2.20999 V 850.12 H 201.41 Z m -4.68,0 h 2.19999 V 850.12 H 196.73 Z m -4.97001,0 H 194.24 V 850.12 h -2.48001 z m -4.67999,0 h 2.48 V 850.12 h -2.48 z m -4.69,0 h 2.2 V 850.12 h -2.2 z m -4.96001,0 H 179.91 V 850.12 h -2.48001 z m -4.68999,0 h 2.48 V 850.12 h -2.48 z m -4.69,0 h 2.48 V 850.12 h -2.48 z m -4.68001,0 h 2.20002 V 850.12 h -2.20002 z"
         style="fill:#147eba;fill-opacity:1;fill-rule:nonzero;stroke:none"
         id="path6652" /></g><text
       xml:space="preserve"
       transform="scale(0.99962867,1.0003715)"
       style="font-style:normal;font-variant:normal;font-weight:normal;font-stretch:normal;font-size:1.80287px;font-family:Arial;-inkscape-font-specification:'Arial, Normal';font-variant-ligatures:normal;font-variant-caps:normal;font-variant-numeric:normal;font-variant-east-asian:normal;writing-mode:lr-tb;fill:#147eba;fill-opacity:1;fill-rule:nonzero;stroke:none;stroke-width:0.00534471"
       id="text6658"
       x="90.689857"
       y="133.9998"><tspan
         x="90.689857 91.915802 92.808998 93.789757 94.122513 94.507812 95.436028 96.399277 96.74955 97.13485 97.467606 97.975494 98.86869 99.376579 100.47993 101.40816 102.3714 103.31713 103.82503"
         y="133.9998"
         sodipodi:role="line"
         id="tspan6656"
         style="font-style:normal;font-variant:normal;font-weight:normal;font-stretch:normal;font-size:1.80287px;font-family:Arial;-inkscape-font-specification:'Arial, Normal';font-variant-ligatures:normal;font-variant-caps:normal;font-variant-numeric:normal;font-variant-east-asian:normal;stroke-width:0.00534471">Availability Zone b</tspan></text><g
       id="g6662"
       clip-path="url(#clipPath6666)"
       transform="matrix(0.26458333,0,0,0.26458333,30.247535,-93.832117)"><g
         id="g6668"><path
           d="m 261.23999,865.02002 h 87.40002 v 78.89996 h -87.40002 z"
           style="fill:#e6f2f8;fill-opacity:1;fill-rule:nonzero;stroke:none"
           id="path6670" /></g><g
         id="g6672"
         transform="translate(271.17001,875.78003)"><path
           d="M 0,0 C 0,0 0,0 0,0 0.27,0 0.55,0 0.82,0.27 0.82,0.55 1.1,0.82 1.1,0.82 1.1,1.1 0.82,1.38 0.82,1.65 0.55,1.93 0.27,1.93 0,1.93 c -0.28,0 -0.56,0 -0.83,-0.55 C -1.11,1.1 -1.11,0.82 -0.83,0.55 -0.83,0.27 -0.28,0 0,0 Z m 0,-0.56 c -0.83,0 -1.38,0.56 -1.66,1.38 0,0.83 0.55,1.66 1.38,1.66 0,2.21 0,2.21 0,2.21 0.55,0 0.55,0 0.55,0 0,-2.21 0,-2.21 0,-2.21 C 1.1,2.48 1.65,1.65 1.65,0.82 1.65,0 0.82,-0.56 0,-0.56 Z m -4.97,-1.93 c 9.93,0 9.93,0 9.93,0 0,8.56 0,8.56 0,8.56 -9.93,0 -9.93,0 -9.93,0 z M 0,-7.73 c 0.82,0 1.65,0.28 2.2,0.83 0.28,0.55 0.83,1.38 0.83,1.93 0,1.93 0,1.93 0,1.93 -5.79,0 -5.79,0 -5.79,0 0,-1.93 0,-1.93 0,-1.93 0,-0.83 0.27,-1.38 0.83,-1.93 0.55,-0.55 1.1,-0.83 1.93,-0.83 z m 0,-0.55 c -0.83,0 -1.66,0.55 -2.21,1.1 -0.83,0.55 -1.1,1.38 -1.1,2.21 0,1.93 0,1.93 0,1.93 -1.93,0 -1.93,0 -1.93,0 0,0 0,0 -0.28,0.28 0,0 0,0 0,0 0,9.1 0,9.1 0,9.1 0,0 0.28,0.28 0.28,0.28 10.47,0 10.47,0 10.47,0 0.28,0 0.28,-0.28 0.28,-0.28 0,-9.1 0,-9.1 0,-9.1 0,0 0,0 0,0 0,-0.28 -0.28,-0.28 -0.28,-0.28 -1.65,0 -1.65,0 -1.65,0 0,-1.93 0,-1.93 0,-1.93 0,-0.83 -0.55,-1.66 -1.1,-2.21 C 1.93,-7.73 0.82,-8.28 0,-8.28 Z m -9.93,-2.48 c 19.85,0 19.85,0 19.85,0 0,19.86 0,19.86 0,19.86 -19.85,0 -19.85,0 -19.85,0 z"
           style="fill:#147eba;fill-opacity:1;fill-rule:nonzero;stroke:none"
           id="path6674" /></g></g><text
       xml:space="preserve"
       transform="scale(0.99962867,1.0003715)"
       style="font-style:normal;font-variant:normal;font-weight:normal;font-stretch:normal;font-size:1.80287px;font-family:Arial;-inkscape-font-specification:'Arial, Normal';font-variant-ligatures:normal;font-variant-caps:normal;font-variant-numeric:normal;font-variant-east-asian:normal;writing-mode:lr-tb;fill:#147eba;fill-opacity:1;fill-rule:nonzero;stroke:none;stroke-width:0.00534471"
       id="text6680"
       x="106.0201"
       y="138.65399"><tspan
         x="106.0201 107.21102 107.80648 108.13924 109.03243 109.96065 110.46854 111.4493 111.95719 112.83287 113.7786 114.70683 115.67007 116.6158 117.1237 117.63159"
         y="138.65399"
         sodipodi:role="line"
         id="tspan6678"
         style="font-style:normal;font-variant:normal;font-weight:normal;font-stretch:normal;font-size:1.80287px;font-family:Arial;-inkscape-font-specification:'Arial, Normal';font-variant-ligatures:normal;font-variant-caps:normal;font-variant-numeric:normal;font-variant-east-asian:normal;stroke-width:0.00534471">Private subnet 2</tspan></text><text
       xml:space="preserve"
       transform="scale(0.99962867,1.0003715)"
       style="font-style:normal;font-variant:normal;font-weight:normal;font-stretch:normal;font-size:1.80287px;font-family:Arial;-inkscape-font-specification:'Arial, Normal';font-variant-ligatures:normal;font-variant-caps:normal;font-variant-numeric:normal;font-variant-east-asian:normal;writing-mode:lr-tb;fill:#147eba;fill-opacity:1;fill-rule:nonzero;stroke:none;stroke-width:0.00534471"
       id="text6686"
       x="106.0201"
       y="141.61658"><tspan
         x="106.0201 107.00085 107.92908 108.43697 109.40022 109.90811 110.85384 111.36173 112.32498 112.83287 113.7786"
         y="141.61658"
         sodipodi:role="line"
         id="tspan6684"
         style="font-style:normal;font-variant:normal;font-weight:normal;font-stretch:normal;font-size:1.80287px;font-family:Arial;-inkscape-font-specification:'Arial, Normal';font-variant-ligatures:normal;font-variant-caps:normal;font-variant-numeric:normal;font-variant-east-asian:normal;stroke-width:0.00534471">10.0.3.0/24</tspan></text><g
       id="g6690"
       clip-path="url(#clipPath6694)"
       transform="matrix(0.26458333,0,0,0.26458333,30.247535,-93.832117)"><g
         id="g6696"><path
           d="M 166.39999,753.83002 H 253.8 v 79.45996 h -87.40001 z"
           style="fill:#e9f3e6;fill-opacity:1;fill-rule:nonzero;stroke:none"
           id="path6698" /></g><g
         id="g6700"
         transform="translate(176.32001,764.59003)"><path
           d="m 0,0 c 0,0 0,0 0,0 0.28,0 0.55,0 0.83,0.27 0,0.28 0.28,0.28 0.28,0.55 C 1.11,1.1 0.83,1.38 0.83,1.65 0.55,1.93 0.28,1.93 0,1.93 c -0.27,0 -0.82,0 -0.82,-0.55 C -1.1,1.1 -1.1,0.82 -0.82,0.55 -0.82,0 -0.55,0 0,0 Z m 0,-0.56 c -0.82,0 -1.38,0.56 -1.65,1.38 0,0.83 0.55,1.38 1.38,1.66 0,2.21 0,2.21 0,2.21 0.55,0 0.55,0 0.55,0 0,-2.21 0,-2.21 0,-2.21 C 1.11,2.2 1.66,1.65 1.66,0.82 1.66,0 0.83,-0.56 0,-0.56 Z m -4.96,-1.93 c 9.93,0 9.93,0 9.93,0 0,8.56 0,8.56 0,8.56 -9.93,0 -9.93,0 -9.93,0 z M 0,-7.73 c 0.83,0 1.38,0.28 1.93,0.83 0.55,0.55 0.83,1.1 0.83,1.93 0,1.93 0,1.93 0,1.93 -5.51,0 -5.51,0 -5.51,0 0,-1.93 0,-1.93 0,-1.93 0,-0.83 0.27,-1.38 0.82,-1.93 0.55,-0.55 1.11,-0.83 1.93,-0.83 z m 0,-0.55 c -0.82,0 -1.65,0.28 -2.48,1.1 -0.55,0.55 -0.83,1.38 -0.83,2.21 0,1.93 0,1.93 0,1.93 -1.93,0 -1.93,0 -1.93,0 0,0 0,0 -0.27,0 0,0.28 0,0.28 0,0.28 0,9.1 0,9.1 0,9.1 0,0 0.27,0.28 0.27,0.28 10.48,0 10.48,0 10.48,0 0.28,0 0.28,-0.28 0.28,-0.28 0,-9.1 0,-9.1 0,-9.1 0,0 0,0 0,0 0,-0.28 -0.28,-0.28 -0.28,-0.28 -1.65,0 -1.65,0 -1.65,0 0,-1.93 0,-1.93 0,-1.93 C 3.59,-5.8 3.04,-6.63 2.48,-7.18 1.93,-7.73 0.83,-8.28 0,-8.28 Z m -9.92,-2.48 c 19.85,0 19.85,0 19.85,0 0,19.86 0,19.86 0,19.86 -19.85,0 -19.85,0 -19.85,0 z"
           style="fill:#248814;fill-opacity:1;fill-rule:nonzero;stroke:none"
           id="path6702" /></g></g><text
       xml:space="preserve"
       transform="scale(0.99962867,1.0003715)"
       style="font-style:normal;font-variant:normal;font-weight:normal;font-stretch:normal;font-size:1.80287px;font-family:Arial;-inkscape-font-specification:'Arial, Normal';font-variant-ligatures:normal;font-variant-caps:normal;font-variant-numeric:normal;font-variant-east-asian:normal;writing-mode:lr-tb;fill:#248814;fill-opacity:1;fill-rule:nonzero;stroke:none;stroke-width:0.00534471"
       id="text6708"
       x="81.034416"
       y="109.24363"><tspan
         x="81.034416 82.225342 83.153557 84.081779 84.467072 84.852371 85.693024 86.20092 87.094109 88.022324 89.00309 89.931305 90.894554 91.402443 91.910339"
         y="109.24363"
         sodipodi:role="line"
         id="tspan6706"
         style="font-style:normal;font-variant:normal;font-weight:normal;font-stretch:normal;font-size:1.80287px;font-family:Arial;-inkscape-font-specification:'Arial, Normal';font-variant-ligatures:normal;font-variant-caps:normal;font-variant-numeric:normal;font-variant-east-asian:normal;stroke-width:0.00534471">Public subnet 1</tspan></text><text
       xml:space="preserve"
       transform="scale(0.99962867,1.0003715)"
       style="font-style:normal;font-variant:normal;font-weight:normal;font-stretch:normal;font-size:1.80287px;font-family:Arial;-inkscape-font-specification:'Arial, Normal';font-variant-ligatures:normal;font-variant-caps:normal;font-variant-numeric:normal;font-variant-east-asian:normal;writing-mode:lr-tb;fill:#248814;fill-opacity:1;fill-rule:nonzero;stroke:none;stroke-width:0.00534471"
       id="text6714"
       x="81.034416"
       y="112.20619"
       inkscape:export-filename="text6714.png"
       inkscape:export-xdpi="96"
       inkscape:export-ydpi="96"><tspan
         x="81.034416 81.962631 82.943398 83.451286 84.379509 84.887398 85.868156 86.376053 87.304268 87.812164 88.792923"
         y="112.20619"
         sodipodi:role="line"
         id="tspan6712"
         style="font-style:normal;font-variant:normal;font-weight:normal;font-stretch:normal;font-size:1.80287px;font-family:Arial;-inkscape-font-specification:'Arial, Normal';font-variant-ligatures:normal;font-variant-caps:normal;font-variant-numeric:normal;font-variant-east-asian:normal;stroke-width:0.00534471">10.0.0.0/24</tspan></text><g
       id="g6718"
       clip-path="url(#clipPath6722)"
       transform="matrix(0.26458333,0,0,0.26458333,85.65393,114.37643)"><path
         d="m 0,0 c -8.55,0 -15.17,6.9 -15.17,15.18 0,8.279999 6.62,14.9 15.17,14.9 8.27,0 14.89,-6.620001 14.89,-14.9 C 14.89,6.9 8.27,0 0,0 Z m 0,1.11 c 7.72,0 13.78,6.34 13.78,14.07 C 13.78,22.9 7.72,28.969999 0,28.969999 -7.72,28.969999 -14.06,22.9 -14.06,15.18 -14.06,7.45 -7.72,1.11 0,1.11 Z M -7.45,20.969999 C -5.79,22.08 -5.79,22.08 -5.79,22.08 c -1.66,1.1 -1.66,1.1 -1.66,1.1 z M -8,19.040001 c -0.27,0 -0.55,0.279999 -0.55,0.549999 0,4.969999 0,4.969999 0,4.969999 0,0 0,0.280001 0.28,0.550002 0.27,0 0.55,0 0.55,-0.270001 3.03,-2.210001 3.03,-2.210001 3.03,-2.210001 C -4.41,22.35 -4.41,22.35 -4.41,22.08 c 0,-0.280001 0,-0.280001 -0.28,-0.549999 C -7.72,19.32 -7.72,19.32 -7.72,19.32 -7.72,19.040001 -8,19.040001 -8,19.040001 Z M -7.45,13.8 c 1.66,1.38 1.66,1.38 1.66,1.38 -1.66,1.100001 -1.66,1.100001 -1.66,1.100001 z M 8.82,13.52 c 1.65,1.66 1.65,1.66 1.65,1.66 -1.65,1.65 -1.65,1.65 -1.65,1.65 z M -8,12.14 c -0.27,0 -0.55,0.28 -0.55,0.56 0,4.96 0,4.96 0,4.96 0,0 0,0.280001 0.28,0.280001 0.27,0.269998 0.55,0.269998 0.55,0 C -4.69,15.46 -4.69,15.46 -4.69,15.46 c 0.28,0 0.28,-0.28 0.28,-0.28 0,-0.28 0,-0.28 -0.28,-0.55 -3.03,-2.49 -3.03,-2.49 -3.03,-2.49 0,0 -0.28,0 -0.28,0 z m 4.41,-4.96 c 0,1.38 0,1.38 0,1.38 4.69,0 4.69,0 4.69,0 0,6.07 0,6.07 0,6.07 -4.69,0 -4.69,0 -4.69,0 0,1.1 0,1.1 0,1.1 4.69,0 4.69,0 4.69,0 0,6.069999 0,6.069999 0,6.069999 -4.69,0 -4.69,0 -4.69,0 0,1.100001 0,1.100001 0,1.100001 5.24,0 5.24,0 5.24,0 0.28,0 0.55,-0.270001 0.55,-0.55 0,-6.62 0,-6.62 0,-6.62 5.52,0 5.52,0 5.52,0 0,2.479999 0,2.479999 0,2.479999 C 7.72,18.49 7.99,18.49 7.99,18.77 c 0.28,0 0.55,0 0.83,-0.28 3.03,-3.03 3.03,-3.03 3.03,-3.03 0,-0.28 0,-0.56 0,-0.83 -3.03,-3.04 -3.03,-3.04 -3.03,-3.04 -0.28,0 -0.55,-0.27 -0.83,0 0,0 -0.27,0.28 -0.27,0.55 0,2.49 0,2.49 0,2.49 -5.52,0 -5.52,0 -5.52,0 0,-6.9 0,-6.9 0,-6.9 C 2.2,7.45 1.93,7.18 1.65,7.18 Z M -7.45,6.9 c 1.66,1.38 1.66,1.38 1.66,1.38 -1.66,1.11 -1.66,1.11 -1.66,1.11 z M -8,5.25 c -0.27,0 -0.55,0.27 -0.55,0.55 0,4.69 0,4.69 0,4.69 0,0.28 0,0.55 0.28,0.55 0.27,0.28 0.55,0.28 0.55,0 3.03,-2.48 3.03,-2.48 3.03,-2.48 0.28,0 0.28,-0.28 0.28,-0.28 0,-0.27 0,-0.55 -0.28,-0.55 -3.03,-2.48 -3.03,-2.48 -3.03,-2.48 0,0 -0.28,0 -0.28,0 z"
         style="fill:#5a30b5;fill-opacity:1;fill-rule:nonzero;stroke:none"
         id="path6724" /></g><text
       xml:space="preserve"
       transform="scale(0.99962867,1.0003715)"
       style="font-style:normal;font-variant:normal;font-weight:normal;font-stretch:normal;font-size:1.80287px;font-family:Arial;-inkscape-font-specification:'Arial, Normal';font-variant-ligatures:normal;font-variant-caps:normal;font-variant-numeric:normal;font-variant-east-asian:normal;writing-mode:lr-tb;fill:#000000;fill-opacity:1;fill-rule:nonzero;stroke:none;stroke-width:0.00534471"
       id="text6730"
       x="79.93383"
       y="125.45148"><tspan
         x="79.93383 81.212326 82.438271 83.541626 84.049522 85.43309 86.378822 86.886719 87.84996 89.075912 90.004128"
         y="125.45148"
         sodipodi:role="line"
         id="tspan6728"
         style="font-style:normal;font-variant:normal;font-weight:normal;font-stretch:normal;font-size:1.80287px;font-family:Arial;-inkscape-font-specification:'Arial, Normal';font-variant-ligatures:normal;font-variant-caps:normal;font-variant-numeric:normal;font-variant-east-asian:normal;stroke-width:0.00534471">NAT Gateway</tspan></text><g
       id="g6734"
       clip-path="url(#clipPath6738)"
       transform="matrix(0.26458333,0,0,0.26458333,30.247535,-93.832117)"><g
         id="g6740"><path
           d="M 166.39999,865.02002 H 253.8 v 79.45996 h -87.40001 z"
           style="fill:#e9f3e6;fill-opacity:1;fill-rule:nonzero;stroke:none"
           id="path6742" /></g><g
         id="g6744"
         transform="translate(176.32001,875.78003)"><path
           d="m 0,0 c 0,0 0,0 0,0 0.28,0 0.55,0 0.83,0.27 0,0.28 0.28,0.55 0.28,0.55 C 1.11,1.1 0.83,1.38 0.83,1.65 0.55,1.93 0.28,1.93 0,1.93 c -0.27,0 -0.82,0 -0.82,-0.55 C -1.1,1.1 -1.1,0.82 -0.82,0.55 -0.82,0.27 -0.55,0 0,0 Z m 0,-0.56 c -0.82,0 -1.38,0.56 -1.65,1.38 0,0.83 0.55,1.66 1.38,1.66 0,2.21 0,2.21 0,2.21 0.55,0 0.55,0 0.55,0 0,-2.21 0,-2.21 0,-2.21 0.83,0 1.38,-0.83 1.38,-1.66 C 1.66,0 0.83,-0.56 0,-0.56 Z m -4.96,-1.93 c 9.93,0 9.93,0 9.93,0 0,8.56 0,8.56 0,8.56 -9.93,0 -9.93,0 -9.93,0 z M 0,-7.73 c 0.83,0 1.38,0.28 1.93,0.83 0.55,0.55 0.83,1.38 0.83,1.93 0,1.93 0,1.93 0,1.93 -5.51,0 -5.51,0 -5.51,0 0,-1.93 0,-1.93 0,-1.93 0,-0.83 0.27,-1.38 0.82,-1.93 0.55,-0.55 1.11,-0.83 1.93,-0.83 z m 0,-0.55 c -0.82,0 -1.65,0.55 -2.48,1.1 -0.55,0.55 -0.83,1.38 -0.83,2.21 0,1.93 0,1.93 0,1.93 -1.93,0 -1.93,0 -1.93,0 0,0 0,0 -0.27,0.28 0,0 0,0 0,0 0,9.1 0,9.1 0,9.1 0,0 0.27,0.28 0.27,0.28 10.48,0 10.48,0 10.48,0 0.28,0 0.28,-0.28 0.28,-0.28 0,-9.1 0,-9.1 0,-9.1 0,0 0,0 0,0 0,-0.28 -0.28,-0.28 -0.28,-0.28 -1.65,0 -1.65,0 -1.65,0 0,-1.93 0,-1.93 0,-1.93 C 3.59,-5.8 3.04,-6.63 2.48,-7.18 1.93,-7.73 0.83,-8.28 0,-8.28 Z m -9.92,-2.48 c 19.85,0 19.85,0 19.85,0 0,19.86 0,19.86 0,19.86 -19.85,0 -19.85,0 -19.85,0 z"
           style="fill:#248814;fill-opacity:1;fill-rule:nonzero;stroke:none"
           id="path6746" /></g></g><text
       xml:space="preserve"
       transform="scale(0.99962867,1.0003715)"
       style="font-style:normal;font-variant:normal;font-weight:normal;font-stretch:normal;font-size:1.80287px;font-family:Arial;-inkscape-font-specification:'Arial, Normal';font-variant-ligatures:normal;font-variant-caps:normal;font-variant-numeric:normal;font-variant-east-asian:normal;writing-mode:lr-tb;fill:#248814;fill-opacity:1;fill-rule:nonzero;stroke:none;stroke-width:0.00534471"
       id="text6752"
       x="81.034416"
       y="138.65399"><tspan
         x="81.034416 82.225342 83.153557 84.081779 84.467072 84.852371 85.693024 86.20092 87.094109 88.022324 89.00309 89.931305 90.894554 91.402443 91.910339"
         y="138.65399"
         sodipodi:role="line"
         id="tspan6750"
         style="font-style:normal;font-variant:normal;font-weight:normal;font-stretch:normal;font-size:1.80287px;font-family:Arial;-inkscape-font-specification:'Arial, Normal';font-variant-ligatures:normal;font-variant-caps:normal;font-variant-numeric:normal;font-variant-east-asian:normal;stroke-width:0.00534471">Public subnet 2</tspan></text><text
       xml:space="preserve"
       transform="scale(0.99962867,1.0003715)"
       style="font-style:normal;font-variant:normal;font-weight:normal;font-stretch:normal;font-size:1.80287px;font-family:Arial;-inkscape-font-specification:'Arial, Normal';font-variant-ligatures:normal;font-variant-caps:normal;font-variant-numeric:normal;font-variant-east-asian:normal;writing-mode:lr-tb;fill:#248814;fill-opacity:1;fill-rule:nonzero;stroke:none;stroke-width:0.00534471"
       id="text6758"
       x="81.034416"
       y="141.61658"><tspan
         x="81.034416 81.962631 82.943398 83.451286 84.379509 84.887398 85.868156 86.376053 87.304268 87.812164 88.792923"
         y="141.61658"
         sodipodi:role="line"
         id="tspan6756"
         style="font-style:normal;font-variant:normal;font-weight:normal;font-stretch:normal;font-size:1.80287px;font-family:Arial;-inkscape-font-specification:'Arial, Normal';font-variant-ligatures:normal;font-variant-caps:normal;font-variant-numeric:normal;font-variant-east-asian:normal;stroke-width:0.00534471">10.0.2.0/24</tspan></text><g
       id="g6762"
       clip-path="url(#clipPath6766)"
       transform="matrix(0.26458333,0,0,0.26458333,85.799454,143.43298)"><path
         d="m 0,0 c -8.27,0 -14.89,6.89 -14.89,15.17 0,8.280001 6.62,15.17 14.89,15.17 8.55,0 15.16,-6.889999 15.16,-15.17 C 15.16,6.89 8.55,0 0,0 Z M 0,1.1 C 7.72,1.1 14.06,7.44 14.06,15.17 14.06,22.9 7.72,28.969999 0,28.969999 -7.44,28.969999 -13.79,22.9 -13.79,15.17 -13.79,7.44 -7.44,1.1 0,1.1 Z M -7.17,20.959999 C -5.51,22.07 -5.51,22.07 -5.51,22.07 c -1.66,1.380001 -1.66,1.380001 -1.66,1.380001 z m -0.55,-1.929998 c -0.28,0 -0.55,0.279998 -0.55,0.549999 0,4.969999 0,4.969999 0,4.969999 0,0.280001 0,0.280001 0.27,0.550001 0.28,0 0.56,0 0.56,0 3.03,-2.479999 3.03,-2.479999 3.03,-2.479999 C -4.14,22.34 -4.14,22.34 -4.14,22.07 c 0,-0.279999 0,-0.279999 -0.27,-0.55 -3.03,-2.210001 -3.03,-2.210001 -3.03,-2.210001 0,-0.279998 -0.28,-0.279998 -0.28,-0.279998 z M -7.17,14.07 c 1.66,1.1 1.66,1.1 1.66,1.1 -1.66,1.1 -1.66,1.1 -1.66,1.1 z M 9.1,13.51 c 1.65,1.66 1.65,1.66 1.65,1.66 C 9.1,16.83 9.1,16.83 9.1,16.83 Z M -7.72,12.13 c -0.28,0 -0.55,0.28 -0.55,0.56 0,4.96 0,4.96 0,4.96 0,0.28 0,0.28 0.27,0.550001 0.28,0 0.56,0 0.56,-0.270001 3.03,-2.21 3.03,-2.21 3.03,-2.21 0.27,-0.27 0.27,-0.27 0.27,-0.55 0,-0.28 0,-0.28 -0.27,-0.55 -3.03,-2.21 -3.03,-2.21 -3.03,-2.21 0,-0.28 -0.28,-0.28 -0.28,-0.28 z m 4.41,-4.69 c 0,1.11 0,1.11 0,1.11 4.69,0 4.69,0 4.69,0 0,6.07 0,6.07 0,6.07 -4.96,0 -4.96,0 -4.96,0 0,1.1 0,1.1 0,1.1 4.96,0 4.96,0 4.96,0 0,6.070001 0,6.070001 0,6.070001 -4.69,0 -4.69,0 -4.69,0 0,1.109999 0,1.109999 0,1.109999 5.24,0 5.24,0 5.24,0 0.27,0 0.55,-0.279999 0.55,-0.56 0,-6.62 0,-6.62 0,-6.62 5.51,0 5.51,0 5.51,0 0,2.480001 0,2.480001 0,2.480001 0,0.279999 0,0.559999 0.28,0.559999 0.28,0 0.55,0 0.83,-0.28 3.03,-3.03 3.03,-3.03 3.03,-3.03 0,0 0,-0.56 0,-0.83 C 9.1,11.58 9.1,11.58 9.1,11.58 c -0.28,0 -0.55,0 -0.83,0 -0.28,0 -0.28,0.28 -0.28,0.55 0,2.49 0,2.49 0,2.49 -5.51,0 -5.51,0 -5.51,0 C 2.48,8 2.48,8 2.48,8 2.48,7.72 2.2,7.44 1.93,7.44 Z M -7.17,6.89 c 1.66,1.38 1.66,1.38 1.66,1.38 -1.66,1.11 -1.66,1.11 -1.66,1.11 z M -7.72,5.24 c -0.28,0 -0.55,0.27 -0.55,0.55 0,4.97 0,4.97 0,4.97 0,0 0,0.27 0.27,0.27 0.28,0.28 0.56,0.28 0.56,0 3.03,-2.48 3.03,-2.48 3.03,-2.48 0.27,0 0.27,-0.28 0.27,-0.28 0,-0.27 0,-0.27 -0.27,-0.55 -3.03,-2.48 -3.03,-2.48 -3.03,-2.48 0,0 -0.28,0 -0.28,0 z"
         style="fill:#5a30b5;fill-opacity:1;fill-rule:nonzero;stroke:none"
         id="path6768" /></g><text
       xml:space="preserve"
       transform="scale(0.99962867,1.0003715)"
       style="font-style:normal;font-variant:normal;font-weight:normal;font-stretch:normal;font-size:1.80287px;font-family:Arial;-inkscape-font-specification:'Arial, Normal';font-variant-ligatures:normal;font-variant-caps:normal;font-variant-numeric:normal;font-variant-east-asian:normal;writing-mode:lr-tb;fill:#000000;fill-opacity:1;fill-rule:nonzero;stroke:none;stroke-width:0.00534471"
       id="text6774"
       x="80.357132"
       y="154.01631"><tspan
         x="80.357132 81.635628 82.861572 83.964928 84.472824 85.856392 86.802124 87.31002 88.238235 89.499214 90.427429"
         y="154.01631"
         sodipodi:role="line"
         id="tspan6772"
         style="font-style:normal;font-variant:normal;font-weight:normal;font-stretch:normal;font-size:1.80287px;font-family:Arial;-inkscape-font-specification:'Arial, Normal';font-variant-ligatures:normal;font-variant-caps:normal;font-variant-numeric:normal;font-variant-east-asian:normal;stroke-width:0.00534471">NAT Gateway</tspan></text></g></svg>
