<?xml version="1.0" encoding="UTF-8" standalone="no"?>
<!-- Created with Inkscape (http://www.inkscape.org/) -->

<svg
   width="131.63075mm"
   height="86.741264mm"
   viewBox="0 0 131.63075 86.741264"
   version="1.1"
   id="svg12333"
   xml:space="preserve"
   xmlns="http://www.w3.org/2000/svg"
   xmlns:svg="http://www.w3.org/2000/svg"><defs
     id="defs12330"><clipPath
       clipPathUnits="userSpaceOnUse"
       id="clipPath12449"><path
         d="M 148,96 V 424 H 645.91998 V 96 Z"
         clip-rule="evenodd"
         id="path12447" /></clipPath><clipPath
       clipPathUnits="userSpaceOnUse"
       id="clipPath12491"><path
         d="M 148,96 V 424 H 645.91998 V 96 Z"
         clip-rule="evenodd"
         id="path12489" /></clipPath><clipPath
       clipPathUnits="userSpaceOnUse"
       id="clipPath12523"><path
         d="m 148,149.28 h 241.44 v 3.52 H 148 Z"
         clip-rule="evenodd"
         id="path12521" /></clipPath><clipPath
       clipPathUnits="userSpaceOnUse"
       id="clipPath12533"><path
         d="M 148,96 V 424 H 645.91998 V 96 Z"
         clip-rule="evenodd"
         id="path12531" /></clipPath><clipPath
       clipPathUnits="userSpaceOnUse"
       id="clipPath12561"><path
         d="M 148,96 V 424 H 645.91998 V 96 Z"
         clip-rule="evenodd"
         id="path12559" /></clipPath><clipPath
       clipPathUnits="userSpaceOnUse"
       id="clipPath12593"><path
         d="M 148,96 V 424 H 645.91998 V 96 Z"
         clip-rule="evenodd"
         id="path12591" /></clipPath><clipPath
       clipPathUnits="userSpaceOnUse"
       id="clipPath12621"><path
         d="M 148,96 V 424 H 645.91998 V 96 Z"
         clip-rule="evenodd"
         id="path12619" /></clipPath><clipPath
       clipPathUnits="userSpaceOnUse"
       id="clipPath12649"><path
         d="M -215.28999,-258.51999 V 69.480003 H 282.63 V -258.51999 Z"
         clip-rule="evenodd"
         id="path12647" /></clipPath><clipPath
       clipPathUnits="userSpaceOnUse"
       id="clipPath12659"><path
         d="M -239.61,-277.54999 H 1.83 V 16.530001 h -241.44 z"
         clip-rule="evenodd"
         id="path12657" /></clipPath><clipPath
       clipPathUnits="userSpaceOnUse"
       id="clipPath12669"><path
         d="M 148,96 V 424 H 645.91998 V 96 Z"
         clip-rule="evenodd"
         id="path12667" /></clipPath><clipPath
       clipPathUnits="userSpaceOnUse"
       id="clipPath12679"><path
         d="m 632.96002,96 h 12.95996 v 12.16 h -12.95996 z"
         clip-rule="evenodd"
         id="path12677" /></clipPath><clipPath
       clipPathUnits="userSpaceOnUse"
       id="clipPath12695"><path
         d="m 445.44,96 h 200.47998 v 29.28 H 445.44 Z"
         clip-rule="evenodd"
         id="path12693" /></clipPath></defs><g
     id="layer1"
     transform="translate(-40.991078,-41.437125)"><g
       id="g12445"
       clip-path="url(#clipPath12449)"
       transform="matrix(0.26458333,0,0,0.26458333,1.8303685,16.037129)"><g
         id="g12451"><path
           d="m 261.19,366.31 v 33.70001"
           style="fill:none;stroke:#000000;stroke-width:0.482;stroke-linecap:butt;stroke-linejoin:miter;stroke-miterlimit:10;stroke-dasharray:none;stroke-opacity:1"
           id="path12453" /></g><g
         id="g12455"><path
           d="m 257.09,388.20999 4.1,12.52002 4.32999,-12.52002"
           style="fill:none;stroke:#000000;stroke-width:0.482;stroke-linecap:butt;stroke-linejoin:miter;stroke-miterlimit:10;stroke-dasharray:none;stroke-opacity:1"
           id="path12457" /></g><g
         id="g12459"
         transform="translate(261.19,415.17001)"><path
           d="m 0,0 c -3.86,0 -7.23,-3.13 -7.23,-7.22 0,-3.85 3.37,-7.22 7.23,-7.22 4.09,0 7.22,3.37 7.22,7.22 C 7.22,-3.13 4.09,0 0,0 Z"
           style="fill:#ffffff;fill-opacity:1;fill-rule:nonzero;stroke:#000000;stroke-width:0.482;stroke-linecap:butt;stroke-linejoin:miter;stroke-miterlimit:4;stroke-dasharray:none;stroke-opacity:1"
           id="path12461" /></g><g
         id="g12463"
         transform="translate(261.19,413.01001)"><path
           d="m 0,0 c -2.65,0 -5.06,-2.17 -5.06,-5.06 0,-2.65 2.41,-5.05 5.06,-5.05 2.89,0 5.05,2.4 5.05,5.05 C 5.05,-2.17 2.89,0 0,0 Z"
           style="fill:#000000;fill-opacity:1;fill-rule:nonzero;stroke:none"
           id="path12465" /></g><g
         id="g12467"
         transform="translate(261.19,170.38)"><path
           d="m 0,0 c -2.89,0 -5.06,-2.16 -5.06,-5.05 0,-2.89 2.17,-5.06 5.06,-5.06 2.89,0 5.05,2.17 5.05,5.06 C 5.05,-2.16 2.89,0 0,0 Z"
           style="fill:#000000;fill-opacity:1;fill-rule:nonzero;stroke:none"
           id="path12469" /></g><g
         id="g12471"><path
           d="m 261.19,170.38 v 35.39"
           style="fill:none;stroke:#000000;stroke-width:0.482;stroke-linecap:butt;stroke-linejoin:miter;stroke-miterlimit:10;stroke-dasharray:none;stroke-opacity:1"
           id="path12473" /></g><g
         id="g12475"><path
           d="m 257.09,194.21001 4.1,12.51999 4.09,-12.51999"
           style="fill:none;stroke:#000000;stroke-width:0.482;stroke-linecap:butt;stroke-linejoin:miter;stroke-miterlimit:10;stroke-dasharray:none;stroke-opacity:1"
           id="path12477" /></g></g><text
       xml:space="preserve"
       transform="scale(1.0002321,0.99976795)"
       style="font-style:normal;font-variant:normal;font-weight:normal;font-stretch:normal;font-size:2.78152px;font-family:Arial;-inkscape-font-specification:'Arial, Normal';font-variant-ligatures:normal;font-variant-caps:normal;font-variant-numeric:normal;font-variant-east-asian:normal;writing-mode:lr-tb;fill:#000000;fill-opacity:1;fill-rule:nonzero;stroke:none;stroke-width:0.00855331"
       id="text12483"
       x="141.83743"
       y="72.949814"><tspan
         x="141.83743 143.68726 145.22876 146.63014 148.14363"
         y="72.949814"
         id="tspan12481"
         style="font-style:normal;font-variant:normal;font-weight:normal;font-stretch:normal;font-size:2.78152px;font-family:Arial;-inkscape-font-specification:'Arial, Normal';font-variant-ligatures:normal;font-variant-caps:normal;font-variant-numeric:normal;font-variant-east-asian:normal;stroke-width:0.00855331">Saved</tspan></text><g
       id="g12487"
       clip-path="url(#clipPath12491)"
       transform="matrix(0.26458333,0,0,0.26458333,1.8303685,16.037129)"><g
         id="g12493"><path
           d="M 363.29001,342 H 541.71997"
           style="fill:none;stroke:#000000;stroke-width:0.482;stroke-linecap:butt;stroke-linejoin:miter;stroke-miterlimit:10;stroke-dasharray:none;stroke-opacity:1"
           id="path12495" /></g><g
         id="g12497"><path
           d="m 260.45999,261.13 v 49.82001"
           style="fill:none;stroke:#000000;stroke-width:0.482;stroke-linecap:butt;stroke-linejoin:miter;stroke-miterlimit:10;stroke-dasharray:none;stroke-opacity:1"
           id="path12499" /></g><g
         id="g12501"><path
           d="m 256.37,299.39999 4.08999,12.27002 4.34,-12.51001"
           style="fill:none;stroke:#000000;stroke-width:0.482;stroke-linecap:butt;stroke-linejoin:miter;stroke-miterlimit:10;stroke-dasharray:none;stroke-opacity:1"
           id="path12503" /></g></g><text
       xml:space="preserve"
       transform="scale(1.0002321,0.99976795)"
       style="font-style:normal;font-variant:normal;font-weight:normal;font-stretch:normal;font-size:2.78152px;font-family:Arial;-inkscape-font-specification:'Arial, Normal';font-variant-ligatures:normal;font-variant-caps:normal;font-variant-numeric:normal;font-variant-east-asian:normal;writing-mode:lr-tb;fill:#000000;fill-opacity:1;fill-rule:nonzero;stroke:none;stroke-width:0.00855331"
       id="text12509"
       x="51.898994"
       y="91.030846"><tspan
         x="51.898994 53.300369 54.813854 56.383392 57.896881 59.718666 62.101006 63.614491 64.259125 64.903755 65.856689"
         y="91.030846"
         id="tspan12507"
         style="font-style:normal;font-variant:normal;font-weight:normal;font-stretch:normal;font-size:2.78152px;font-family:Arial;-inkscape-font-specification:'Arial, Normal';font-variant-ligatures:normal;font-variant-caps:normal;font-variant-numeric:normal;font-variant-east-asian:normal;stroke-width:0.00855331">sendEmail()</tspan></text><text
       xml:space="preserve"
       transform="scale(1.0002321,0.99976795)"
       style="font-style:normal;font-variant:normal;font-weight:normal;font-stretch:normal;font-size:2.78152px;font-family:Arial;-inkscape-font-specification:'Arial, Normal';font-variant-ligatures:normal;font-variant-caps:normal;font-variant-numeric:normal;font-variant-east-asian:normal;writing-mode:lr-tb;fill:#000000;fill-opacity:1;fill-rule:nonzero;stroke:none;stroke-width:0.00855331"
       id="text12515"
       x="66.035912"
       y="54.233795"><tspan
         x="66.035912 68.053894 69.595406 70.35215 71.108894 72.566322 74.079811 75.481186 76.994667"
         y="54.233795"
         id="tspan12513"
         style="font-style:normal;font-variant:normal;font-weight:normal;font-stretch:normal;font-size:2.78152px;font-family:Arial;-inkscape-font-specification:'Arial, Normal';font-variant-ligatures:normal;font-variant-caps:normal;font-variant-numeric:normal;font-variant-east-asian:normal;stroke-width:0.00855331">Not saved</tspan></text><g
       id="g12519"
       clip-path="url(#clipPath12523)"
       transform="matrix(0.26458333,0,0,0.26458333,1.8303685,16.037129)"><path
         d="M 387.60999,150.89 H 148.25"
         style="fill:none;stroke:#000000;stroke-width:0.482;stroke-linecap:butt;stroke-linejoin:miter;stroke-miterlimit:4;stroke-dasharray:none;stroke-opacity:1"
         id="path12525" /></g><g
       id="g12529"
       clip-path="url(#clipPath12533)"
       transform="matrix(0.26458333,0,0,0.26458333,1.8303685,16.037129)"><g
         id="g12535"><path
           d="M 486.34,234.17 H 387.60999"
           style="fill:none;stroke:#000000;stroke-width:0.482;stroke-linecap:butt;stroke-linejoin:miter;stroke-miterlimit:10;stroke-dasharray:none;stroke-opacity:1"
           id="path12537" /></g><g
         id="g12539"><path
           d="m 401.82001,230.08 -14.21002,4.09 14.21002,4.33"
           style="fill:none;stroke:#000000;stroke-width:0.482;stroke-linecap:butt;stroke-linejoin:miter;stroke-miterlimit:10;stroke-dasharray:none;stroke-opacity:1"
           id="path12541" /></g></g><text
       xml:space="preserve"
       transform="scale(1.0002321,0.99976795)"
       style="font-style:normal;font-variant:normal;font-weight:normal;font-stretch:normal;font-size:2.78152px;font-family:Arial;-inkscape-font-specification:'Arial, Normal';font-variant-ligatures:normal;font-variant-caps:normal;font-variant-numeric:normal;font-variant-east-asian:normal;writing-mode:lr-tb;fill:#000000;fill-opacity:1;fill-rule:nonzero;stroke:none;stroke-width:0.00855331"
       id="text12547"
       x="111.87177"
       y="82.985252"><tspan
         x="111.87177 113.91777 115.45928 117.78557 119.32708 120.72845 122.26997 123.2229"
         y="82.985252"
         id="tspan12545"
         style="font-style:normal;font-variant:normal;font-weight:normal;font-stretch:normal;font-size:2.78152px;font-family:Arial;-inkscape-font-specification:'Arial, Normal';font-variant-ligatures:normal;font-variant-caps:normal;font-variant-numeric:normal;font-variant-east-asian:normal;stroke-width:0.00855331">Remove()</tspan></text><text
       xml:space="preserve"
       transform="scale(1.0002321,0.99976795)"
       style="font-style:normal;font-variant:normal;font-weight:normal;font-stretch:normal;font-size:2.78152px;font-family:Arial;-inkscape-font-specification:'Arial, Normal';font-variant-ligatures:normal;font-variant-caps:normal;font-variant-numeric:normal;font-variant-east-asian:normal;writing-mode:lr-tb;fill:#000000;fill-opacity:1;fill-rule:nonzero;stroke:none;stroke-width:0.00855331"
       id="text12553"
       x="109.71375"
       y="86.457207"><tspan
         x="109.71375 110.4705 112.01201 113.5255 114.28224 115.03898 116.01994 117.53342 119.07494 120.58842 121.23306 122.186 123.72751 125.24099"
         y="86.457207"
         id="tspan12551"
         style="font-style:normal;font-variant:normal;font-weight:normal;font-stretch:normal;font-size:2.78152px;font-family:Arial;-inkscape-font-specification:'Arial, Normal';font-variant-ligatures:normal;font-variant-caps:normal;font-variant-numeric:normal;font-variant-east-asian:normal;stroke-width:0.00855331">[not required]</tspan></text><g
       id="g12557"
       clip-path="url(#clipPath12561)"
       transform="matrix(0.26458333,0,0,0.26458333,1.8303685,16.037129)"><g
         id="g12563"><path
           d="M 541.71997,342 V 267.63"
           style="fill:none;stroke:#000000;stroke-width:0.482;stroke-linecap:butt;stroke-linejoin:miter;stroke-miterlimit:10;stroke-dasharray:none;stroke-opacity:1"
           id="path12565" /></g><g
         id="g12567"><path
           d="M 602.89001,222.36999 H 486.34"
           style="fill:none;stroke:#000000;stroke-width:0.482;stroke-linecap:butt;stroke-linejoin:miter;stroke-miterlimit:4;stroke-dasharray:none;stroke-opacity:1"
           id="path12569" /></g><g
         id="g12571"
         transform="translate(602.89001,254.39)"><path
           d="m 0,0 c 0,7.46 -6.26,13.24 -13.73,13.24 -89.1,0 -89.1,0 -89.1,0 -7.7,0 -13.72,-5.78 -13.72,-13.24 0,-41.639999 0,-41.639999 0,-41.639999 0,-7.220002 6.02,-13.240002 13.72,-13.240002 89.1,0 89.1,0 89.1,0 7.47,0 13.73,6.02 13.73,13.240002 z"
           style="fill:none;stroke:#000000;stroke-width:0.482;stroke-linecap:butt;stroke-linejoin:miter;stroke-miterlimit:4;stroke-dasharray:none;stroke-opacity:1"
           id="path12573" /></g></g><text
       xml:space="preserve"
       transform="scale(1.0002321,0.99976795)"
       style="font-style:normal;font-variant:normal;font-weight:normal;font-stretch:normal;font-size:2.78152px;font-family:Arial;-inkscape-font-specification:'Arial, Normal';font-variant-ligatures:normal;font-variant-caps:normal;font-variant-numeric:normal;font-variant-east-asian:normal;writing-mode:lr-tb;fill:#000000;fill-opacity:1;fill-rule:nonzero;stroke:none;stroke-width:0.00855331"
       id="text12579"
       x="113.14193"
       y="110.212"><tspan
         x="113.14193 114.5433 115.30005 116.81353 117.79449 119.30798 121.12977 123.51211 125.02559 125.67022 126.31486 127.26779"
         y="110.212"
         id="tspan12577"
         style="font-style:normal;font-variant:normal;font-weight:normal;font-stretch:normal;font-size:2.78152px;font-family:Arial;-inkscape-font-specification:'Arial, Normal';font-variant-ligatures:normal;font-variant-caps:normal;font-variant-numeric:normal;font-variant-east-asian:normal;stroke-width:0.00855331">storeEmail()</tspan></text><text
       xml:space="preserve"
       transform="scale(1.0002321,0.99976795)"
       style="font-style:normal;font-variant:normal;font-weight:normal;font-stretch:normal;font-size:2.78152px;font-family:Arial;-inkscape-font-specification:'Arial, Normal';font-variant-ligatures:normal;font-variant-caps:normal;font-variant-numeric:normal;font-variant-east-asian:normal;writing-mode:lr-tb;fill:#000000;fill-opacity:1;fill-rule:nonzero;stroke:none;stroke-width:0.00855331"
       id="text12585"
       x="132.31503"
       y="78.920715"><tspan
         x="132.31503 133.82852 135.37004 136.12679 138.14476 139.68628 140.30287 141.87242 143.41393 144.92741 145.68416 147.22568 149.57999 151.09346 151.7381"
         y="78.920715"
         id="tspan12583"
         style="font-style:normal;font-variant:normal;font-weight:normal;font-stretch:normal;font-size:2.78152px;font-family:Arial;-inkscape-font-specification:'Arial, Normal';font-variant-ligatures:normal;font-variant-caps:normal;font-variant-numeric:normal;font-variant-east-asian:normal;stroke-width:0.00855331">do/Upload email</tspan></text><g
       id="g12589"
       clip-path="url(#clipPath12593)"
       transform="matrix(0.26458333,0,0,0.26458333,1.8303685,16.037129)"><g
         id="g12595"><path
           d="M 546.06,280.14001 541.71997,267.63 537.63,280.14001"
           style="fill:none;stroke:#000000;stroke-width:0.482;stroke-linecap:butt;stroke-linejoin:miter;stroke-miterlimit:10;stroke-dasharray:none;stroke-opacity:1"
           id="path12597" /></g><g
         id="g12599"><path
           d="M 362.57001,225.74 H 159.33"
           style="fill:none;stroke:#000000;stroke-width:0.482;stroke-linecap:butt;stroke-linejoin:miter;stroke-miterlimit:4;stroke-dasharray:none;stroke-opacity:1"
           id="path12601" /></g></g><text
       xml:space="preserve"
       transform="scale(1.0002321,0.99976795)"
       style="font-style:normal;font-variant:normal;font-weight:normal;font-stretch:normal;font-size:2.78152px;font-family:Arial;-inkscape-font-specification:'Arial, Normal';font-variant-ligatures:normal;font-variant-caps:normal;font-variant-numeric:normal;font-variant-east-asian:normal;writing-mode:lr-tb;fill:#000000;fill-opacity:1;fill-rule:nonzero;stroke:none;stroke-width:0.00855331"
       id="text12607"
       x="64.088493"
       y="74.601639"><tspan
         x="64.088493 66.134506 67.647987 70.002296 71.543808 73.057297 74.458672 75.972153"
         y="74.601639"
         id="tspan12605"
         style="font-style:normal;font-variant:normal;font-weight:normal;font-stretch:normal;font-size:2.78152px;font-family:Arial;-inkscape-font-specification:'Arial, Normal';font-variant-ligatures:normal;font-variant-caps:normal;font-variant-numeric:normal;font-variant-east-asian:normal;stroke-width:0.00855331">Composed</tspan></text><text
       xml:space="preserve"
       transform="scale(1.0002321,0.99976795)"
       style="font-style:normal;font-variant:normal;font-weight:normal;font-stretch:normal;font-size:2.78152px;font-family:Arial;-inkscape-font-specification:'Arial, Normal';font-variant-ligatures:normal;font-variant-caps:normal;font-variant-numeric:normal;font-variant-east-asian:normal;writing-mode:lr-tb;fill:#000000;fill-opacity:1;fill-rule:nonzero;stroke:none;stroke-width:0.00855331"
       id="text12613"
       x="46.270233"
       y="79.893738"><tspan
         x="46.270233 47.783718 49.32523 50.08197 52.240089 53.809628 55.323116 56.864628 57.789536 59.30302 60.115818 61.629303 62.386044 63.787422 65.328934 67.683243 70.009521 70.65416 72.083557 73.484932 74.12957 75.643051 77.15654 77.80117 79.314659 80.856171 81.612915 83.126396 85.508736 87.022217 87.666847"
         y="79.893738"
         id="tspan12611"
         style="font-style:normal;font-variant:normal;font-weight:normal;font-stretch:normal;font-size:2.78152px;font-family:Arial;-inkscape-font-specification:'Arial, Normal';font-variant-ligatures:normal;font-variant-caps:normal;font-variant-numeric:normal;font-variant-east-asian:normal;stroke-width:0.00855331">do/Generate commissioning email</tspan></text><g
       id="g12617"
       clip-path="url(#clipPath12621)"
       transform="matrix(0.26458333,0,0,0.26458333,1.8303685,16.037129)"><g
         id="g12623"
         transform="translate(363.29001,249.09)"><path
           d="m 0,0 c 0,6.98 -6.02,12.52 -13.49,12.52 -176.99,0 -176.99,0 -176.99,0 -7.46,0 -13.48001,-5.54 -13.48001,-12.52 0,-29.6 0,-29.6 0,-29.6 0,-6.74 6.02001,-12.519999 13.48001,-12.519999 176.99,0 176.99,0 176.99,0 C -6.02,-42.119999 0,-36.34 0,-29.6 Z"
           style="fill:none;stroke:#000000;stroke-width:0.482;stroke-linecap:butt;stroke-linejoin:miter;stroke-miterlimit:4;stroke-dasharray:none;stroke-opacity:1"
           id="path12625" /></g><g
         id="g12627"><path
           d="M 363.29001,330.92999 H 159.81"
           style="fill:none;stroke:#000000;stroke-width:0.482;stroke-linecap:butt;stroke-linejoin:miter;stroke-miterlimit:4;stroke-dasharray:none;stroke-opacity:1"
           id="path12629" /></g></g><text
       xml:space="preserve"
       transform="scale(1.0002321,0.99976795)"
       style="font-style:normal;font-variant:normal;font-weight:normal;font-stretch:normal;font-size:2.78152px;font-family:Arial;-inkscape-font-specification:'Arial, Normal';font-variant-ligatures:normal;font-variant-caps:normal;font-variant-numeric:normal;font-variant-east-asian:normal;writing-mode:lr-tb;fill:#000000;fill-opacity:1;fill-rule:nonzero;stroke:none;stroke-width:0.00855331"
       id="text12635"
       x="68.321358"
       y="102.50631"><tspan
         x="68.321358 70.171173 71.712685 73.226173"
         y="102.50631"
         id="tspan12633"
         style="font-style:normal;font-variant:normal;font-weight:normal;font-stretch:normal;font-size:2.78152px;font-family:Arial;-inkscape-font-specification:'Arial, Normal';font-variant-ligatures:normal;font-variant-caps:normal;font-variant-numeric:normal;font-variant-east-asian:normal;stroke-width:0.00855331">Sent</tspan></text><text
       xml:space="preserve"
       transform="scale(1.0002321,0.99976795)"
       style="font-style:normal;font-variant:normal;font-weight:normal;font-stretch:normal;font-size:2.78152px;font-family:Arial;-inkscape-font-specification:'Arial, Normal';font-variant-ligatures:normal;font-variant-caps:normal;font-variant-numeric:normal;font-variant-east-asian:normal;writing-mode:lr-tb;fill:#000000;fill-opacity:1;fill-rule:nonzero;stroke:none;stroke-width:0.00855331"
       id="text12641"
       x="46.43993"
       y="107.79824"><tspan
         x="46.43993 47.953415 49.494926 50.251667 52.101482 54.483822 55.997307 56.641937 57.286572 58.043316 58.800056 60.313541 61.070286 62.611797 63.592758 64.349503 65.862984 67.376472 68.917984 70.431465 71.972984 72.757751 73.402382 74.803757"
         y="107.79824"
         id="tspan12639"
         style="font-style:normal;font-variant:normal;font-weight:normal;font-stretch:normal;font-size:2.78152px;font-family:Arial;-inkscape-font-specification:'Arial, Normal';font-variant-ligatures:normal;font-variant-caps:normal;font-variant-numeric:normal;font-variant-east-asian:normal;stroke-width:0.00855331">do/Email to orthodontist</tspan></text><g
       id="g12645"
       clip-path="url(#clipPath12649)"
       transform="matrix(0.26458333,0,0,0.26458333,97.950845,109.83721)"><path
         d="m 0,0 c 0,6.98 -6.02,12.51 -13.49,12.51 -176.99,0 -176.99,0 -176.99,0 -7.46,0 -13.48001,-5.53 -13.48001,-12.51 0,-29.610001 0,-29.610001 0,-29.610001 0,-6.979999 6.02001,-12.509998 13.48001,-12.509998 176.99,0 176.99,0 176.99,0 7.47,0 13.49,5.529999 13.49,12.509998 z"
         style="fill:none;stroke:#000000;stroke-width:0.482;stroke-linecap:butt;stroke-linejoin:miter;stroke-miterlimit:4;stroke-dasharray:none;stroke-opacity:1"
         id="path12651" /></g><g
       id="g12655"
       clip-path="url(#clipPath12659)"
       transform="matrix(0.26458333,0,0,0.26458333,104.38551,123.8469)"><path
         d="m 0,0 c 0,8.91 -6.02,16.129999 -13.24,16.129999 -212.87999,0 -212.87999,0 -212.87999,0 C -233.34,16.129999 -239.36,8.91 -239.36,0 c 0,-259.70999 0,-259.70999 0,-259.70999 0,-8.91001 6.02,-16.13001 13.24001,-16.13001 212.87999,0 212.87999,0 212.87999,0 7.22,0 13.24,7.22 13.24,16.13001 z"
         style="fill:none;stroke:#000000;stroke-width:0.482;stroke-linecap:butt;stroke-linejoin:miter;stroke-miterlimit:4;stroke-dasharray:none;stroke-opacity:1"
         id="path12661" /></g><g
       id="g12665"
       clip-path="url(#clipPath12669)"
       transform="matrix(0.26458333,0,0,0.26458333,1.8303685,16.037129)"><path
         d="m 544.13,123.45 0.47999,76.05999"
         style="fill:none;stroke:#000000;stroke-width:0.482;stroke-linecap:butt;stroke-linejoin:miter;stroke-miterlimit:10;stroke-dasharray:2.89, 2.89;stroke-dashoffset:0;stroke-opacity:1"
         id="path12671" /></g><g
       id="g12675"
       clip-path="url(#clipPath12679)"
       transform="matrix(0.26458333,0,0,0.26458333,1.8303685,16.037129)"><g
         id="g12681"><path
           d="M 645.27002,106.36 634.66998,96.010002"
           style="fill:none;stroke:#000000;stroke-width:0.482;stroke-linecap:butt;stroke-linejoin:miter;stroke-miterlimit:4;stroke-dasharray:none;stroke-opacity:1"
           id="path12683" /></g><g
         id="g12685"><path
           d="m 645.27002,106.36 h -10.35004 l -0.25,-10.349998"
           style="fill:none;stroke:#000000;stroke-width:0.482;stroke-linecap:butt;stroke-linejoin:miter;stroke-miterlimit:4;stroke-dasharray:none;stroke-opacity:1"
           id="path12687" /></g></g><g
       id="g12691"
       clip-path="url(#clipPath12695)"
       transform="matrix(0.26458333,0,0,0.26458333,1.8303685,16.037129)"><path
         d="m 645.27002,106.36 v 17.09 H 447.09 V 96.010002 h 187.57998"
         style="fill:none;stroke:#000000;stroke-width:0.482;stroke-linecap:butt;stroke-linejoin:miter;stroke-miterlimit:4;stroke-dasharray:none;stroke-opacity:1"
         id="path12697" /></g><text
       xml:space="preserve"
       transform="scale(1.0002212,0.99977882)"
       style="font-style:normal;font-variant:normal;font-weight:normal;font-stretch:normal;font-size:2.78152px;font-family:Arial;-inkscape-font-specification:'Arial, Normal';font-variant-ligatures:normal;font-variant-caps:normal;font-variant-numeric:normal;font-variant-east-asian:normal;writing-mode:lr-tb;fill:#000000;fill-opacity:1;fill-rule:nonzero;stroke:none;stroke-width:0.00777571"
       id="text12703"
       x="122.41101"
       y="45.342041"><tspan
         x="122.41101 124.22005 125.62142 127.07375 127.73621 129.13759 130.41156 131.12498 131.81293 133.54553 135.66032 137.06169 137.59676 138.20827 138.92169 139.45676 140.85812 142.1321 142.84552 143.53346 144.80745 146.23428 146.79485 147.50827 148.19621 149.4447 150.84607 152.2984 153.08826 154.36223 155.20306 156.65538 157.95483 158.51538 159.78935 161.19072 162.03154 162.82141 164.29922 165.80251 167.17839"
         y="45.342041"
         id="tspan12701"
         style="font-style:normal;font-variant:normal;font-weight:normal;font-stretch:normal;font-size:2.78152px;font-family:Arial;-inkscape-font-specification:'Arial, Normal';font-variant-ligatures:normal;font-variant-caps:normal;font-variant-numeric:normal;font-variant-east-asian:normal;stroke-width:0.00777571">Context Email inv: self.years-&gt;size()&gt;=30</tspan></text></g></svg>
